<svg version="1" xmlns="http://www.w3.org/2000/svg" width="650.667" height="800" viewBox="0 0 488.000000 600.000000"><path d="M74.1 1.1C35.8 6.1 5.9 36.5 1 75.2-.4 86.5-.4 401.5 1 412.8c2.6 20.6 11.2 37.6 26.5 52.1 11.9 11.3 26.6 18.8 42.5 21.7 11.1 2 336.9 2 348 0 15.4-2.8 29.6-9.9 41.3-20.6 16.3-15 25.2-32.4 27.8-54.4.7-6.1.9-63.5.7-174.1l-.3-165-2.3-8c-8.7-31.1-30.6-53-61.7-61.7l-8-2.3L248 .4C155.9.3 77.6.6 74.1 1.1zM425 14.4c12.4 4.1 21.3 9.7 30.5 19 8.7 8.8 14.3 18.1 18.7 31.1l2.3 7 .3 168c.2 113.8-.1 170.2-.8 174.8-2.3 15.3-10 30.4-20.7 40.9-9.8 9.7-17.7 14.5-30.8 18.9l-7 2.4-169.5.3c-120.1.2-171.4 0-175.9-.8-30.6-5.3-55.3-30.5-60.1-61.5-.7-4.8-1-58.9-.8-175 .4-189-.4-170.6 8.4-188.4 9.8-19.9 30.7-35.3 52.9-39 2.8-.5 81.3-.8 174.5-.7l169.5.1 8.5 2.9z"/><path d="M90 197.4v104.5l-8.6 4.7c-4.7 2.5-9.2 4.7-10.1 4.8-1.1.1-1.5-1.1-1.7-4.6-.1-3.4-.8-5.4-2.6-7.3l-2.3-2.5H45.3c-19.3 0-19.4 0-21.8 2.5l-2.5 2.4v101.2l2.5 2.4c2.4 2.5 2.5 2.5 21.8 2.5h19.4l2.4-2.6c2.2-2.3 2.4-3.6 2.7-13 .2-5.7.6-10.4.8-10.4.2 0 9.7 1.5 21.1 3.4 11.5 1.8 43 6.9 70.1 11.2l49.2 7.9v17.2c0 16.7.1 17.3 2.4 20l2.4 2.8 23.6.3c26.2.3 27.5.1 29.5-6.1.6-1.8 1-12.5 1-23.9 0-11.4.2-21.1.5-21.6s8.8-6.7 18.8-13.7c10.1-7.1 21-14.8 24.3-17.2 3.3-2.4 12.3-8.7 20-14.1 24.1-17 69.6-49.2 78.8-55.9 4.8-3.5 9.2-6.4 9.7-6.6.6-.1 1.1 3.7 1.3 9.1.2 8.9.3 9.5 3 11.8 2.7 2.3 3.3 2.4 19.7 2.4 16.7 0 16.9 0 20-2.6l3.1-2.6-.3-58.2-.3-58.1-2.8-5.7c-1.6-3.3-4.9-7.6-7.8-10.2-7.2-6.5-13.2-8.4-28.6-9.1-24.5-1.1-99.9-3.5-116.3-3.8l-16.5-.2-6.7 3.3c-8 3.9-13.9 10.2-16.8 17.8-1.6 4.3-2 7.9-2 16.4v10.9l-8.7 4.5c-4.7 2.5-9.1 4.3-9.5 4-.5-.4-.9-1.8-.8-3.2.1-1.5.2-28.9.1-61L252 93H90v104.4zm145.8-63.2l-.3 24.3h-129l-.3-24.3-.2-24.2h130l-.2 24.2zM347 176c14 .5 40.6 1.4 59 2.1 29.1 1 34 1.4 37.2 3 12.6 6.4 12.4 23.5-.3 30-3.9 1.9-4.8 2-36.2.9-17.7-.6-43-1.5-56.2-2-13.2-.6-28.6-1-34.2-1-13.7 0-19.9-1.4-23.9-5.4-8.1-8.1-6.2-21.5 3.6-26.7 4.1-2.3 12.3-2.4 51-.9zm-111 24.2V224H106v-23.3c0-12.9.2-23.6.4-23.8.2-.2 29.5-.4 65-.4H236v23.7zm52.9 20.8c2.1 1 5.8 2.4 8.2 2.9 2.4.6 27.6 1.8 55.9 2.6 28.3.9 54.7 2 58.7 2.3l7.2.7-7.2 5.1c-4 2.8-14.4 10.2-23.2 16.4-15.3 10.8-52 36.5-74.5 51.9-33.2 22.9-42.9 29.3-43.7 29-.4-.2-.7-1.4-.5-2.7.5-3.6-2.7-9.1-5.7-9.9-1.4-.4-12.9-.8-25.4-.8h-22.9l-2.4 2.8c-2.3 2.7-2.4 3.5-2.4 15.8 0 10.1-.3 12.9-1.3 12.9-1.2 0-54.7-8.2-71.2-11-8.2-1.3-35.6-5.5-49-7.5-6-.9-11.8-2-12.8-2.4-1.7-.6-1.7-.8.5-1.9 4.7-2.4 35.6-18.6 44.3-23.2 11-5.8 41.1-21.7 56-29.5 21.8-11.4 42-22.1 54-28.5 3.9-2.1 14.2-7.5 23-12 8.7-4.6 18.6-9.8 22-11.6 7.1-3.9 7.4-4 12.4-1.4zM453 258.3c0 18.4-.2 33.6-.4 33.8-.2.2-3.2.2-6.5.1l-6.1-.4v-57.6l5.6-4.6c3.1-2.5 6-4.6 6.5-4.6s.9 14.7.9 33.3zm-248-17.5c0 .5-4.7 3.3-10.4 6.2l-10.4 5.4-3.2-2.7c-3.8-3.3-6.9-4.1-12-3.4-7.7 1-12.5 7-12.3 15.3l.1 5.2-12.6 6.7c-7 3.7-17.4 9.2-23.2 12.3-5.8 3-10.9 5.9-11.5 6.3-.5.5-1.5.9-2.2.9-1 0-1.3-5.4-1.3-26.5V240h49.5c27.2 0 49.5.4 49.5.8zm218.1 9.5c-.1.4-.1 3.8-.1 7.6v6.9l-13.7 9.8c-7.6 5.4-19 13.4-25.3 17.9-6.3 4.5-16.9 11.9-23.5 16.6-6.6 4.7-18.7 13.2-26.9 18.9-8.1 5.8-17.7 12.5-21.1 15-21.9 15.7-41.1 28.9-41.9 28.7-.9-.2-1.4-18.4-.5-19.1.2-.1 7.4-5 15.9-10.8 8.5-5.7 18.4-12.5 22-15 3.6-2.5 10.1-7 14.5-10s14.1-9.7 21.5-14.8c7.4-5.2 24.3-16.6 37.5-25.5 13.2-8.9 27.6-18.7 32-21.7 7.4-5.2 9.8-6.3 9.6-4.5zM53 352.5V392H37v-79h16v39.5zm200 28.9v46.5l-12.6.3c-6.9.2-12.8.1-13-.1-.2-.2-.4-21.3-.4-46.8V335h26v46.4zm-147.3-30.9c19.1 3 49.4 7.8 67.3 10.5 17.9 2.8 33.7 5.3 35.3 5.6l2.7.6v10.5c0 10.4 0 10.5-2.3 9.9-1.2-.3-8.1-1.5-15.2-2.6-7.2-1.1-18.4-2.9-25-4-25.5-4.1-94.1-14.9-96.5-15.2-2.4-.3-2.4-.4-2.2-10.3.2-11.7.1-10.5.6-10.5.2 0 16.1 2.5 35.3 5.5z"/><path d="M165.5 121.4c-9.4 4.2-11.7 15.5-4.9 23.5 6.5 7.8 19.8 5.2 24-4.6 1.9-4.4 1.8-6.9-.7-11.9-1.5-3.1-3.2-4.8-6.3-6.3-4.9-2.4-7.9-2.6-12.1-.7zM163.3 187.1c-9.2 5.9-8.5 20.7 1.1 25.3 12.1 5.7 24.7-5.1 20.5-17.6-2.8-8.6-14-12.6-21.6-7.7z"/></svg>