<svg version="1" xmlns="http://www.w3.org/2000/svg" viewBox="0 0 488.000000 488.000000"><path d="M64.4 5C32.3 13.4 8.9 37.7 1.9 70c-2 9.5-2.1 335.4 0 344.5 7.3 32.7 32 57.6 64.1 64.9 6.6 1.5 22.7 1.7 175.4 1.6 165.3 0 168.2 0 176.6-2 16.9-4.1 33.6-14.5 44.9-28.2 6.5-7.9 13.5-21.9 16.1-32.2 2-7.8 2-11.5 2-176.6 0-163-.1-168.9-1.9-176.2-2.3-9-6.6-18.7-11.6-26.2-8.2-12.3-24.2-25.5-37.7-30.9-15-6-6-5.7-190-5.6-161 0-168.6.1-175.4 1.9zm354.1 10.9c21.3 7.2 36.6 20.1 45.5 38.6 7.4 15.4 7 4.4 7 187.5 0 180.4.3 171.5-6.1 185.7-10 22.2-30.5 38.2-54.4 42.2-5.3.9-48.4 1.2-173.5.9-166.5-.3-166.5-.3-173-2.4-21-6.9-36.1-19.5-45.5-38.2-7.6-15.1-7-.1-7-187.7 0-161.9.1-168.3 1.9-175 7.3-27.1 28.1-46.7 56.1-53 4.9-1.1 36.1-1.3 174-1.2l168 .2 7 2.4z"/><path d="M236.4 39.1C204.7 41 181.8 51 171.2 67.7c-3.1 4.9-6.2 13.9-6.2 18V88h48.8l1-4.3c2.6-10 10.2-15.7 24.2-17.8 12.4-1.9 28.5.6 34.5 5.3 3.5 2.7 6.4 9.2 6.5 14.1 0 11.1-8.4 15.1-38.7 18.2-33.4 3.5-48.4 6.4-59.2 11.8-8.7 4.2-16.3 11.6-19.8 19.2-2.5 5.4-2.8 7.1-2.8 16.5 0 9.3.4 11.2 2.7 16.3 9.1 19.6 31.1 28.9 64.7 27.4 21.3-1 35.2-4.8 48.1-13.2l6.8-4.3.7 3.6c.3 2 1.1 5.1 1.6 6.9l1 3.2 24.9.3 24.8.3-1.9-4.8c-3.2-8-3.9-20.4-3.9-67.7-.1-41-.2-46-1.8-50.6-7.5-21.5-40.6-32.2-90.8-29.3zm43.3 92.6c-.4 9.7-1 13.9-2.5 17.4-5.7 13-17 18.9-36.7 19.1-22.2.2-32.1-5.8-31.9-19.3.2-14.2 9.8-19.6 40.9-23.4 14.7-1.7 21.8-3.1 25.5-5.1 5.2-2.8 5.3-2.5 4.7 11.3zM129.8 210.3c-1.7 1.3-8.2 14.1-33.3 65.2-7.3 14.8-24.1 49-37.4 75.8C45.9 378.2 35 401 35 402c0 3.9 4.2 7 10.5 8 10.5 1.5 15.8 4.7 21.1 12.8 2 3.2 6 7.9 8.8 10.5 19 17.8 49.7 14.9 64.5-6.2 6.7-9.4 9.9-12.4 16.1-15 4.5-1.9 6.7-2.3 12.5-1.9 10.8.7 16 4.1 23.4 15 4.7 7.1 9.8 11.5 18 15.6 7.2 3.6 7.8 3.7 18 3.7 8.7 0 11.6-.5 16.4-2.3 7-2.9 14.9-9 18.5-14.4C271.3 415 279 410 290 410c10.7 0 19.5 5.5 25.9 16.2 6.1 10.3 21.6 18.8 34.2 18.8 3.7 0 5.2-.5 7.3-2.6 1.4-1.5 2.6-3 2.6-3.4 0-.4 12.6-26.3 28.1-57.6 15.5-31.3 32.3-65.5 37.4-75.9 5.1-10.5 12.9-26.3 17.4-35.3 4.4-9 8.1-17.3 8.1-18.5 0-3.6-4.5-7.7-8.4-7.7-8.6 0-19.7-6.3-23.2-13.3-4.6-8.7-17.5-18.5-27.5-20.7-8.8-2-21.2-.9-28.2 2.3-7.2 3.3-14.4 9.2-18.2 14.9-4.3 6.5-9.5 11.7-14 14.1-3.2 1.7-5.7 2.2-12 2.1-12 0-16.2-2.8-27.8-18.4-4.4-5.9-13.8-12.3-21.1-14.5-2.7-.8-8.6-1.5-13.1-1.5-16.3 0-27.4 6.5-39 23.1-4.1 5.8-9.8 9.7-16.5 11.1-12.1 2.5-22.4-2.2-30.2-13.7-5.8-8.6-10.4-12.7-18.8-16.7-7.6-3.7-20.1-5-23.2-2.5zm18 17.7c3.6 2.1 6.7 5.1 10.3 10 6.5 9 12.9 14.6 20.9 18.3 5.9 2.8 7.4 3.1 17.2 3.1 6 .1 10.8.2 10.8.4 0 .1-2 4.2-4.4 9-4.9 9.6-43.4 87.6-58.4 118.2-14.3 29.4-20.2 37.1-30.8 40.7-5.8 2-15.7 1.2-21.2-1.6-4.1-2.1-8.8-6.9-13.9-14.3-3.8-5.6-11.5-11.9-17.7-14.4-2.5-1.1-4.6-2.2-4.6-2.6 0-.8 16.5-34.5 51.5-105.3 14.1-28.6 27-54.8 28.7-58.3 1.9-4 3.5-6.2 4.6-6.2.9 0 4.1 1.4 7 3zm121.7-.6c5.6 2.6 8.9 5.7 13.8 13.1 4.5 6.7 13.5 13.8 21 16.7 4.9 1.8 8.2 2.3 15.5 2.3 5 0 9.2.3 9.2.6 0 .8-22.8 47.5-52.8 107.9-16 32.3-25.2 49.7-27.5 52.2-12.5 13.2-34.8 11-44-4.4-8.4-14-22-21.8-38.3-21.8-4.1 0-7.4-.2-7.4-.4s11.5-23.7 25.6-52.2c14.1-28.6 31.9-64.6 39.5-80.2 7.6-15.6 14.9-29.2 16.1-30.3 7.3-6.4 20-7.9 29.3-3.5zm126 1.3c3.2 2 7.1 6.1 10.8 11.2 5.8 7.9 13.4 14.2 20.5 17 1.7.8 3.2 1.7 3.2 2.1 0 .4-8.8 18.7-19.6 40.6-10.8 22-23.8 48.4-28.9 58.9-30.1 61.6-34.5 70-36.8 69.6-6.1-.9-13.1-6.8-19.2-15.9-7.8-11.7-20.7-18.2-36.2-18.2-4 0-7.3-.2-7.3-.5 0-.5 14.2-29.6 38.8-79.5 31.7-64.6 39.3-79.5 41.5-81.8 1.2-1.4 4.5-3.5 7.2-4.9 4.2-2 6.2-2.3 13-2.1 7.1.3 8.7.7 13 3.5z"/></svg>