<svg version="1" xmlns="http://www.w3.org/2000/svg" width="646.667" height="800" viewBox="0 0 485.000000 600.000000"><path d="M73 1.1c-15.5 2-32.4 10-44.4 21C14.7 35 8.6 45 2.7 64.5.6 71.5.6 72.1.2 236-.1 404.3 0 411.8 3.7 424.4c7.3 25 28.1 46.8 53.3 55.7 14.3 5.1 13.6 5.1 191.5 4.7l166-.3 8.8-2.8c33-10.3 55.1-35.4 60.2-68.4 1.4-8.6 1.5-30.4 1.3-175.3l-.3-165.5-2.3-8.2c-9.2-34.5-37-59-71.7-63.2C399.7-.2 83.1-.2 73 1.1zm349.5 13.2c24 8.5 39.8 24.2 48.1 47.9l2.9 8.3.3 167.5c.2 113.5-.1 169.7-.8 174.3-4 26.1-23.3 48.9-49.1 57.9l-9.4 3.3-169.5.3c-166.7.2-169.6.2-177.5-1.8-26.7-6.7-47-26.4-54.2-53-1.7-6.1-1.8-16.7-1.8-177 0-163.9.1-170.7 1.9-176.5C22.2 37.2 42 18.6 69.5 12.6c6.1-1.3 28.7-1.4 176-1.3l169 .2 8 2.8z"/><path d="M113 129.5V146H68v223h349V146l-22.2-.2-22.3-.3-.3-16.3-.2-16.2h-82l-.2 16.2-.3 16.3h-94l-.3-16.3-.2-16.2h-82v16.5zm65.8 7.2l-.3 7.8h-49l-.3-7.8-.3-7.7h50.2l-.3 7.7zm177 0l-.3 7.8h-49l-.3-7.8-.3-7.7h50.2l-.3 7.7zm45 120.5l-.3 95.3-156 .3c-85.8.1-157 0-158.2-.3L84 352V162h317l-.2 95.2z"/><path d="M146.5 230c-.4.6-.5 6.1-.4 12.3l.3 11.2-12.2.3-12.2.3V269h23.9l.3 12.2.3 12.3h15l.3-12.3.3-12.2H186v-15h-23.9l-.3-12.3-.3-12.2-7.2-.3c-4.3-.2-7.4.1-7.8.8zM299 261.5v7.5h64v-15h-64v7.5z"/></svg>