<svg version="1" xmlns="http://www.w3.org/2000/svg" width="652" height="800" viewBox="0 0 489.000000 600.000000"><path d="M74.3 1.1C40.2 5.5 12.5 30 2.8 64.5l-2.3 8L.2 238C0 358.4.2 406.1 1 412.9c1.3 10.4 4.5 21.2 8.9 29.9 3.8 7.4 13.7 19.9 19.2 24.2 2.4 1.9 4.6 3.7 4.9 4 1.7 2.1 11.1 7.5 17.8 10.4 16.4 7 3.4 6.6 193 6.6 164.7 0 171.1-.1 178.3-1.9 31.7-8.1 54.2-30.2 63.2-62l2.1-7.6.4-165.5c.2-112.1 0-168.5-.8-174.7-2.2-19.6-10.1-36.2-23.5-49.7-4.4-4.5-10-9.5-12.5-11.2C441.6 8.1 427.8 2.8 414.7 1 405.3-.2 83.9-.2 74.3 1.1zM424 13.8c22.5 7 40 22.9 48.7 44.2 5.5 13.8 5.4 7.3 5 190-.3 189 .4 171.9-7.7 188.5-7.2 14.5-18.5 25.8-33.2 33.2-16.8 8.4.3 7.7-186.3 8.1-169.2.3-176.5.2-187.4-3.4-24.6-8.2-42.6-27.1-49.8-52.4-1.7-6.2-1.8-14.5-1.8-178V72.5l2.3-7.5c6.4-20.2 19.4-36.1 37.1-45.3 7.8-4.1 15.4-6.7 22.5-7.7 2.8-.4 81.2-.7 174.1-.6l169 .1 7.5 2.3z"/><path d="M201.4 107.7c-13.8 9.2-55.5 37-92.7 61.7L41 214.3v108.2l29.6 10.7 29.7 10.8 3.1-2.2c1.7-1.2 11-8.1 20.6-15.2 34.8-25.8 48.7-36.1 59.8-44.4l11.2-8.4 8.8 3 8.7 2.9.3 48.5.2 48.6 2.8 1c1.5.5 14.6 5.3 29.1 10.6 14.5 5.3 26.8 9.6 27.3 9.6 1.1 0 5-3.2 12.8-10.4 2.5-2.3 10.4-9.3 17.5-15.6 7.2-6.3 18.4-16.2 25-22 6.6-5.8 13.4-11.7 15-13.1 1.7-1.4 9.8-8.6 18-16 8.3-7.4 22-19.5 30.5-26.9 8.5-7.4 20.1-17.8 26-23 5.8-5.2 14.9-13.3 20.3-17.9l9.7-8.4v-24.1c0-13.3.3-36.6.7-51.9.6-27.3.6-27.7-1.4-27.7-1.7 0-18.7-3.8-42.8-9.5-3.3-.8-10.9-2.6-17-3.9-6-1.4-43.4-10-83-19.1-39.6-9.2-73.1-16.8-74.5-17.1-2-.4-7.7 3-27.6 16.3zm98.7 16.8c37.1 8.6 79.4 18.3 94 21.7 16.7 3.9 26.5 6.6 26.2 7.2-.9 2.1-24.1 20.6-25.8 20.6-.9 0-23.5-5.6-50.3-12.4-26.8-6.8-68.7-17.4-93.2-23.6-24.5-6.2-44.9-11.6-45.3-12-1.1-.9 22.3-16.8 24.9-16.9 1.2-.1 32.4 6.9 69.5 15.4zM204 142.9c8.5 2.2 25.4 6.5 37.5 9.6 12.1 3.1 42.3 10.7 67 17 24.8 6.3 50.7 12.9 57.8 14.7 7 1.8 12.7 3.5 12.7 3.8 0 .3-5.8 5.3-12.8 11.2l-12.9 10.7-6.9-1.8c-3.8-1-17.7-4.9-30.9-8.6-13.2-3.7-25.3-7.1-27-7.5-1.6-.4-11.3-3.1-21.5-6-10.2-2.8-23.9-6.7-30.5-8.5-6.6-1.8-22.8-6.3-36-10s-26.2-7.3-29-8.1c-9.6-2.6-10.5-2.9-10.7-3.7-.5-1.2 24.6-17.6 26.2-17.2.8.3 8.5 2.2 17 4.4zm227 58.5v35.5l-11.7 10.3c-6.5 5.7-12 10.5-12.3 10.9-.3.3-10.6 9.5-23 20.4-29.2 25.7-32.2 28.4-53 46.6-9.6 8.4-18 15.8-18.6 16.4-9.1 8.5-32.1 28.5-32.8 28.5-.3 0-.6-17.2-.6-38.3l.1-38.2 15.7-13.2c14.8-12.4 75.8-63.6 86-72.2 2.6-2.1 10.3-8.6 17.2-14.4 6.9-5.7 17-14.3 22.5-19 5.5-4.7 10.1-8.6 10.3-8.6.1-.1.2 15.8.2 35.3zm-277.6-30c14.3 4.1 145.2 40.5 167.9 46.7 8.6 2.4 15.7 4.6 15.7 5 0 .6-19.9 17.6-24.3 20.8-1.7 1.2-3.2 1-12.1-1.7-22.5-6.9-43.9-13.4-53.2-16.1-5.5-1.6-35.5-10.6-66.9-20.1-31.4-9.5-58.6-17.7-60.5-18.2-1.9-.5-3.8-1.3-4.2-1.6-.5-.5 23.3-17.7 25.1-18.1.2-.1 5.8 1.5 12.5 3.3zM114 203c9.1 2.8 18.5 5.7 21 6.5 8.4 2.6 85.4 25.7 95.5 28.7 5.5 1.6 15.6 4.6 22.5 6.8 14.8 4.5 27.1 8.2 35.7 10.7 3.5 1 6.3 2.1 6.3 2.5 0 1.3-24.9 21.8-26.5 21.8-1 0-10.8-3-21.9-6.6-11-3.6-28.2-9.2-38.1-12.4-9.9-3.2-27-8.8-38-12.3-11-3.6-37.8-12.2-59.5-19.2-21.7-7-39.9-13-40.3-13.2-.8-.5 25-18.3 26.3-18.3.3 0 8 2.3 17 5zm-38.8 32.2l15.8 5.1v41.4c0 22.7-.1 41.3-.3 41.3-.2 0-7.5-2.7-16.2-5.9l-16-5.9-.3-40.6c-.1-22.3.1-40.6.5-40.6s7.9 2.3 16.5 5.2zm50.4 16.3c9.3 3 24.2 7.8 33.2 10.7 8.9 2.8 16.1 5.5 16 5.9-.2.4-10 7.9-21.8 16.7-11.8 8.8-26.7 19.8-33 24.5-6.3 4.7-11.8 8.3-12.2 8.1-1.1-.7-1-71.4 0-71.4.5 0 8.5 2.5 17.8 5.5zM257 294l5.5 1.8.3 40.6c.1 22.3-.2 40.6-.6 40.6-.5 0-8.1-2.6-16.8-5.9l-15.9-5.9-.2-39.2c-.2-21.6-.1-39.6.2-40 .3-.4 5.3.8 11.2 2.7 6 2 13.3 4.4 16.3 5.3z"/></svg>