<svg version="1" xmlns="http://www.w3.org/2000/svg" width="650.667" height="800" viewBox="0 0 488.000000 600.000000"><path d="M74.1 1.1C39.8 5.6 11.9 30.6 2.8 65L.5 73.5v343l2.8 9c5.4 17.3 12.1 28.1 25.1 40.2 10.9 10.1 21.3 15.8 36.7 20 6 1.7 17.2 1.8 178.9 1.8 161.7 0 172.9-.1 178.9-1.8 15.4-4.2 25.8-9.9 36.6-19.9 16.3-15.2 24.8-31.5 27.5-52.9 1.4-11.6 1.4-326.3-.1-337.9-4.3-34.8-28.6-62.4-63.4-72.2l-8-2.3L248 .4C155.9.3 77.6.6 74.1 1.1zM425 14.4c12.3 4.1 21.3 9.7 30.5 19.1 8.7 8.7 14.3 18.1 18.7 31l2.3 7 .3 168c.2 114.2-.1 170.2-.8 174.9-3.8 24.4-19.3 45.2-41.5 55.6-15.8 7.5-3.1 7-190.8 7-164.9 0-168.5 0-176.3-2-9.5-2.4-22.2-8.5-28.5-13.7-14.6-12.2-24.1-28.8-26.9-46.9-.7-4.7-1-60.6-.8-174.9.4-189-.4-170.6 8.4-188.4 9.9-20 31.4-35.8 53.3-39 3.1-.5 81.7-.8 174.6-.7l169 .1 8.5 2.9z"/><path d="M127.5 67c-6 1.3-12.6 3.8-16.3 6.3l-3.2 2.2.1 22.5.1 22.5-8.4 2.1c-23.4 6-40 16.9-46.9 30.9l-2.4 5 .3 101.5c.2 55.8.5 107.8.8 115.5.4 13.5.5 14 3.2 17.5 3.7 4.6 17.1 11.3 28 14 17.3 4.3 27.7 5.4 52.7 5.4 26.8 0 39.1-1.3 57.8-6.4 15.8-4.4 24.8-9.5 28.2-16.1 2.1-4 4.4-224.6 2.4-231.6-3.4-12.4-19.8-26-38.9-32.3-3.6-1.2-6.6-2.3-6.7-2.4-.1-.1.5-2.4 1.3-5.1 2.3-7.5 2.1-18.1-.3-23.6-2.2-4.9-6.8-9-11.8-10.6-2.6-.8-3-1.5-3.3-5.1-.3-4.1-.5-4.3-6.4-7.3-9.8-5-21-6.8-30.3-4.9zm22 11.4l4 1.8-3.5 1.6c-5.9 2.6-31 2-31-.8 0-.5 2.4-1.8 5.3-2.9 6.6-2.6 19.1-2.5 25.2.3zm5 33.2l-.7 21.3 3.8.6c9.3 1.4 20.5 3.8 20.9 4.5 1.1 1.7-20.5 6.6-36.6 8.2-9.9 1-13.4.9-23-.4-11.7-1.7-25.6-5.6-24.2-6.8 1.2-1 8.2-2.8 13.8-3.5 9.3-1.2 8.5 1.1 8.5-23.6 0-12 .3-21.9.8-21.9.4 0 2.3.5 4.2 1 5 1.5 20.6 1.3 26.5-.3 2.8-.7 5.4-1.1 5.9-.9.5.3.5 9.9.1 21.8zm14.7-16.7c3.2 2.8 3.3 3.2 3.3 10.8 0 4.3-.6 9.6-1.3 11.9-1.1 3.7-1.4 4-4.2 3.6l-3-.4v-14.4c0-8.8.4-14.4 1-14.4.5 0 2.4 1.3 4.2 2.9zm-76.7 49.6c13.2 5.9 19.5 7 39.5 7 19.9-.1 28.4-1.3 47.3-7.1 8.6-2.7 9-2.7 12.1-1 5.9 3.2 13 9.1 16.1 13.4l3 4.4.3 91.4.2 91.3-4.8 2.5c-2.6 1.3-7.5 3.2-10.7 4.1-11.4 3.1-13.3 4.5-12 8.4 1.1 3.7 3.9 4.1 12.1 2 4.2-1.1 9-2.7 10.6-3.5 1.7-.9 3.2-1.3 3.5-1 .3.3.7 6.2.9 13.1.2 12.5.2 12.6-2.4 15.1-8.7 8.1-30.8 13-62.7 14-34.6 1.2-67.2-4.8-78.5-14.2l-3-2.6v-12.9c0-7.1.2-12.9.5-12.9.2 0 2.8.9 5.6 2 2.9 1.2 7.8 2.7 11 3.4 4.9 1.2 6 1.2 7.8-.1 2.3-1.6 2.8-5.5.9-7-.7-.5-5.8-2.4-11.3-4.1-5.5-1.8-11-4-12.2-4.9l-2.1-1.8-.4-90.5c-.3-101.6-1-92.6 7.4-100.7 4-3.8 13.3-10.3 14.9-10.3.3 0 3.2 1.1 6.4 2.5z"/><path d="M107.5 251l-26.9 27 27.4 27.5 27.5 27.5 27.2-27.3 27.2-27.2-27.2-27.3C147.8 236.3 135.3 224 135 224c-.3 0-12.6 12.2-27.5 27zm63.2 40.8l-13.9 13.9-4.9.2c-2.7.1-4.9-.2-4.9-.6 0-.5 1.6-2.1 3.5-3.6 4.6-3.6 6.1-6.9 6.7-14 .4-5.3-.2-7.1-1.7-4.7-.3.5-1.3 1-2.2 1-1.4 0-1.4-.3.1-2.5 2-3 2-8.4.1-10.9-1.4-1.9-1.5-1.8-1.5 1.2 0 3.5-1.8 8.2-3.2 8.2-.5 0-.6-3.3-.3-7.3.5-6 .3-7.8-1.3-10.6-2.7-5-3.7-4.8-3.5.6l.2 4.8-1.4-4c-.7-2.2-2.5-6.2-3.9-8.9s-2.6-5.8-2.6-6.8c0-2.2-1.6-2.4-2.4-.3-.5 1.4 1.5 12.9 2.9 16.6 1.3 3.5-1.5 2.8-3.4-.8-2.7-4.9-4.6-7.3-5.9-7.3-.7 0-.6 1.2.4 3.5 1.4 3.6 1.9 8.7.8 9.8-.4.3-1.8-.3-3.2-1.3-1.3-1.1-3.4-2-4.5-2-1.9 0-1.9.1-.3 1.9 1 1.1 2 3.9 2.3 6.2.6 4 .5 4.2-1.5 3.6-7.2-2.2-6.9-2.2-4.9.1 1.4 1.5 2.1 4.5 2.6 10.9.8 8.9 1.7 11.9 4.5 14.3 2.8 2.2 1.7 3.2-2.9 2.8-2.5-.2-4.5 0-4.5.4 0 1-1.5.9 20.3.8 9.7 0 17.7.3 17.7.7 0 .5-4.2 5-9.3 10.1l-9.2 9.2-24-24c-13.2-13.3-24.2-24.3-24.5-24.6-.2-.3 10.6-11.5 24-24.9l24.5-24.5 24.5 24.5 24.5 24.5-13.8 13.8zm-28.7-5.1l.1 4.8 2-2.4c2.4-2.9 3.3-2.3 2 1.2-.8 2.1-.7 2.5.4 2 .8-.3 1.5 0 1.5.7 0 1.9-3.9 7.8-6.3 9.5-2.5 1.8-8 2-10.9.4-2.4-1.3-4.8-6.7-4.8-10.8 0-4.1 1.5-4.7 3-1.1 1.2 2.9 3.7 5.6 4.4 4.9.3-.2.1-2.3-.3-4.6-.5-2.3-.4-4.8 0-5.5.7-1 .9-.9.9.3 0 .9.6 2.2 1.4 2.8 1.2 1 1.7.5 2.7-2.8 1.7-5.8 3.9-5.4 3.9.6zM113.2 358.2c-2 2-1.4 5.6 1.2 7.3 1.9 1.3 5.8 1.5 24.2 1.3l21.8-.3 1.5-2.7c1.4-2.4 1.4-2.8-.3-4.7-1.8-2-2.9-2.1-24.6-2.1-16.2 0-22.9.3-23.8 1.2zM280.9 194.4c-8.7 2.3-14.2 9.2-14.1 17.6.1 7 5.7 13.2 13.9 15.6l5.3 1.5V252h-3.2c-8.2.1-17.2 7.7-18.4 15.7-.5 3.3-.1 5.2 1.5 8.3 2.6 5 2.6 5.3 0 3.8-1.8-1.2-2.3-1-4.5 1.7-1.3 1.6-3.8 6.6-5.6 11-3.9 10.1-4.9 25-2.4 35.8 3.3 14.2 12.4 27.7 23.9 35.4 3.4 2.4 3.7 2.9 3.7 7.4 0 6-1.4 6.3-8.3 1.9-3.2-2-5.3-4.3-6.9-7.7-2.5-5.3-4.9-6.4-7.9-3.7-1.6 1.5-1.9 3.1-1.9 12.1 0 12.2 1 15.3 6.8 20.5 8.1 7.3 23.5 13.2 44.7 16.9 15.1 2.7 52.2 3.7 70.1 2 27.4-2.7 50.9-9.9 59.7-18.2 6.3-6 6.7-7.3 6.7-20.5 0-12.3-.6-14.4-4-14.4-2.1 0-5 3.1-5 5.2 0 3.7-13.2 12.2-22.2 14.4-2.8.6-2.8.6-2.8-4.2l.1-4.9 6.1-3.5c12.9-7.3 23.9-21.5 28.4-36.5 2.9-9.6 2.5-24-1-34-2.7-7.9-6.4-15.3-9.4-18.7-1.2-1.5-1.8-1.6-3-.5-1.3 1-1.4.9-.7-1.3 1.7-5.1 1.1-11.5-1.5-15.3-2.9-4.3-10.8-8.7-15.7-8.7h-3.4l.3-11.7.3-11.8 3.6-.6c12.6-2 19.3-15.6 12.7-25.7-4.4-6.6-9.9-8.6-25-9l-12.8-.4v31.9l-9.2 12.1c-5.1 6.6-9.6 12.1-10 12.1-.5.1-.8-.8-.8-1.9 0-1.7-.7-2-4-2-3.7 0-3.9-.2-4.6-3.8-.9-5.6-4.7-10.8-8.8-12.2-6.7-2.2-13.8 3.5-15.2 12.2-.6 3.4-.9 3.8-3.8 3.8-3.5 0-5.1.8-5.8 2.9-.3 1-1.2.4-3.1-2-1.5-1.9-5.8-7.4-9.7-12.4l-7-9V193l-10.7.1c-6 0-12.9.6-15.4 1.3zm70.2 44.8c.6 1.2 1.2 5 1.2 8.5l.1 6.3h8.3c7.6 0 8.3-.2 8.3-2 0-1.1.3-2 .8-2 .4 0 7 5 14.7 11 25.9 20.3 32.3 25 33.6 25 .8 0 2.9-.9 4.7-2 1.8-1.1 3.4-2 3.7-2 .2 0 2 2.8 3.9 6.2 4.1 7.5 7.6 19.4 7.6 26.1 0 6.4-2.8 18.2-4.8 20.6-3.4 3.9-29.9 10.8-52.2 13.6-14.3 1.7-44.8 2-60.1.5-22.2-2.2-53.3-8.6-55.1-11.2-4.7-7.2-6-31.9-2.2-41.3 1.1-2.8 3.3-6.9 4.7-9.3l2.7-4.2 3.1 1.6c1.7.9 3.9 1.4 4.8 1.1 1-.2 9.9-6.9 20-14.8s20.4-15.9 22.9-17.6c4.4-3 4.7-3.1 5-1.3.3 1.8 1.2 2 8.7 2h8.3l.4-6.9c.5-9.2 4-13.3 6.9-7.9zm77.5 105c-3.6 5.2-12.1 12.8-17.4 15.6-12.5 6.6-13 6.7-62.7 6.7-44.6 0-45.1 0-51.5-2.3-3.6-1.3-8.4-3.5-10.7-4.8-5-2.9-16.5-13.3-15.8-14.3.2-.4 5 .3 10.7 1.6 19.7 4.4 36.3 6.4 59.3 7 30.9.8 51.5-1.4 75.4-8.2 14.6-4.1 14.6-4.1 12.7-1.3zm-112.1 30.5c9.9.2 19 .6 20.3.8 2 .5 2.2 1.1 2.2 6.2v5.6l-10.7-.6c-11.5-.7-25.6-2.8-33.8-5.2l-5-1.4.2-4.3c.1-2.4.2-4.4.2-4.5.1-.1 2 .5 4.4 1.4 3.1 1.2 8.7 1.7 22.2 2zm84.5 3.7c0 4-.3 4.5-2.7 5-7.1 1.5-25.1 3.5-37 4.2l-13.3.7v-6.1c0-4.3.4-6.1 1.4-6.5.8-.3 11.7-.6 24.2-.6 12.4 0 22.9-.3 23.2-.6.3-.3 1.4-.5 2.4-.5 1.5 0 1.8.8 1.8 4.4z"/><path d="M334.7 294.8c-9.2 9.2-16.7 17-16.7 17.4 0 1.1 32.6 33.8 33.7 33.8 1.1 0 33.3-32.3 33.3-33.5 0-.6-7.5-8.6-16.8-17.8L351.5 278l-16.8 16.8zm39.2 26.4c-7.2 7.2-9.4 8.8-11.9 8.8-1.6 0-3-.2-3-.4 0-.3 1.4-1.8 3-3.4 2-2 3-4 3-6 0-1.7.3-3.9.6-4.9.6-1.5.4-1.6-.7-.6-2.2 2.1-2.8 1.5-1.6-1.6.6-1.6.7-3.6.2-4.7-.7-1.7-.9-1.5-1.4 1-1 5.1-2.9 4.2-2.4-1.1.3-3.4 0-5.4-1.1-6.8-1.5-1.9-1.5-1.9-1.7 1-.1 2.9-.1 3-.9.5-.4-1.4-1.8-4.5-3-7l-2.1-4.5.6 6.7c.3 3.8.4 6.8.1 6.8-.2 0-1.4-1.6-2.5-3.6-2.6-4.3-3.4-4.1-2.1.6 1.3 4.4.5 5.3-2.8 3.2-2.5-1.6-2.6-1.6-1.8.3.5 1.1 1.1 3.1 1.4 4.4.4 2.2.3 2.3-2.3 1.7-2.3-.6-2.6-.5-1.8.6.6.7 1.3 3.9 1.5 7 .3 3.4 1.1 6.5 2.1 7.6 2.3 2.6 2.2 3-1.4 3.4-2.6.3-4.1-.7-10.7-7.3-4.2-4.1-8.3-8.3-9.1-9.3-1.3-1.6 0-3.2 14-17.2l15.4-15.4 15.7 15.7 15.6 15.6-8.9 8.9zM363 331.6c0 .4-2.5 3.1-5.6 6.1-4.8 4.5-5.9 5.1-7.2 4.1-2-1.6-10.2-10-10.2-10.5 0-.2 5.2-.3 11.5-.3s11.5.3 11.5.6z"/></svg>