<svg version="1" xmlns="http://www.w3.org/2000/svg" viewBox="0 0 488.000000 488.000000"><path d="M66 .6c-9.7 1.5-15.3 2.9-20.5 5.2-16 6.9-30 19.9-37.3 34.7C0 57.1.6 44.1.2 204-.1 352 0 355.2 4 368.4c7.4 23.6 30.5 43.8 55.5 48.6 4.3.8 46.4 1 153 .8l147-.3 7-2.4c24.1-8.1 41.7-26.5 48.7-50.6l2.3-8v-147c0-164.1.5-152.5-7-167.6-11.2-22.6-31.4-37.4-55.9-40.8C347.4.1 72.6-.3 66 .6zm296 11.1c8.8 2.8 11.6 4.1 18 8.4 12.2 8.1 22.6 22.5 26.7 36.9 1.7 6.2 1.8 13.9 1.8 152 0 135.7-.1 145.9-1.8 152-5.8 21.7-21.5 38.1-43.7 45.6-5.3 1.8-11.5 1.9-153.5 1.9h-148l-7.2-2.3c-23.9-7.5-40.7-27.5-44.2-52.6-.8-5.2-1.1-52.2-1.1-145C9 53.9 8.7 60.3 16.2 45c3.2-6.7 5.8-10.2 12.2-16.5C39.6 17.3 49.8 12.3 67 9.6c1.4-.2 66.9-.3 145.5-.2 142.6.1 143 .1 149.5 2.3z"/><path d="M90.3 33.5c-6.2 2.6-6.8 4.9-6.8 24 0 16.9 0 17 2.3 17.3 1.5.2 2.2 1 2.2 2.7 0 2.3-1.7 3.5-5.1 3.5-3.7 0-11.6 4.9-16.3 10.1-6.1 6.8-8.8 11.5-12.3 21.4l-2.8 8-.3 116.6-.3 116.6 8.7 7.9c4.7 4.3 9 8 9.5 8.2.5.2 5-2 10-4.9 7-4 9.6-5 10.8-4.2.9.5 5.2 3.1 9.7 5.7l8 4.7 9.7-5.7 9.6-5.6 5 2.7 4.9 2.7 1.2 7.9c.9 5.7 1.9 8.6 3.6 10.4l2.3 2.5h70.4c80.5 0 73.2.9 76.2-9.7.9-3.2 1.8-6.3 2-7 .3-.9 8.4-1.3 31.9-1.5l31.4-.3 3.9-3.1c2.1-1.7 4.7-4.6 5.8-6.5 1.9-3.3 2-5.5 2.3-63.3.1-33-.1-60.2-.6-60.5-1.5-1.1-8.2-10.4-8.2-11.4 0-.5 2-3.5 4.5-6.5l4.5-5.4v-68.1l-8.4-16.1c-25.1-48.4-25.6-49.4-25.6-53 0-2.3.5-3.9 1.5-4.2 1.2-.5 1.5-3.4 1.5-17V36h-44v16.4c0 13.6.3 16.5 1.5 17 4.4 1.6 1.4 8.5-26.1 60.1l-5.9 11-.5 28-.5 28-3.8-6c-17.6-27.7-29.3-52.6-31.5-66.9-.7-4.4-.6-5.6.4-5.6 2.3 0 5.4-4.3 5.4-7.4 0-6.2-6.9-38.8-8.6-40.7-1.6-1.8-3.5-1.9-25.4-1.9-22.8 0-23.8.1-25.6 2.1-1.4 1.6-2.7 7.1-5.1 21.7-3.4 20.9-3.3 23.4 1 24.8 1.8.6 1.9 1.2 1.3 7.3-.6 6.5-3.9 20.7-5 21.9-.3.3-.6-4.4-.6-10.5 0-27.3-13.2-50.3-31-53.8-4.9-1-5.5-1.4-5.8-3.8-.3-2.3 0-2.7 2.2-2.7h2.6V39.8l-3.4-3.4-3.4-3.4h-14.5c-8 0-15.1-.2-15.9-.5-.7-.2-2.7.2-4.5 1zm27.5 20.4l.3 7.2-10.3-.3-10.3-.3-.3-5.9c-.2-3.2-.1-6.4.2-7.1.3-.9 3.2-1.2 10.3-1l9.8.2.3 7.2zm201.5 16c.4.1.7 2.4.7 5.3 0 4.6 1.2 7.5 12.2 28.7 6.6 13 13.4 26 15 28.9 1.5 2.9 2.8 5.5 2.8 5.7 0 .3-15.7.5-35 .5-19.2 0-35-.2-35-.5s6.8-13.7 15-29.8C308.3 83 310.1 79 310 75c-.1-2.5-.1-4.8-.1-5.1.1-.5 4.4-.5 9.4 0zM115 79.5c0 3.7.6 5.1 3.6 8.4 2.8 3.2 4.4 4.1 8.2 4.6 7.1 1 7.5 1.2 12.1 5.8 9 8.8 13.1 21.3 13.1 40V150l-44.2-.2-44.3-.3-.3-9c-.5-17 3.4-31.4 11-40 4.7-5.3 7.6-7 13.8-8 8.1-1.4 12-5.7 12-13.5v-4h15v4.5zm96.5 40.2c1 9 2.5 15.1 6.1 24.5 4 10.5 14.7 31.9 20.4 40.5 2.2 3.4 4 6.4 4 6.7 0 .6 5.6 9.4 15.9 25.1 8.9 13.6 15.3 26.8 20 41.1 6.2 19.1 7.6 28.5 7.5 53.4 0 22.2-1.5 34.9-6.2 53.5l-1.8 7-62.6.3-62.6.2-.6-2.7c-5-23.7-7.6-51-7.6-80.3 0-40.2 3.1-54.9 22.8-107.5 13.5-36.2 17.2-49.4 17.2-62.1V114h26.9l.6 5.7zm142.3 38l.3 9.3H276v-19l38.8.2 38.7.3.3 9.2zm-202 11c-.3 14.3-.5 15.1-4.1 24.8-13 34.1-16.8 52.8-17.6 86.5-.3 12.9-.9 23.4-1.3 23.2-.5-.1-15.4-.2-33.3-.2H63V154h89.1l-.3 14.7zm202.2 6.9v3.4h-78v-7l38.3-.2c21-.2 38.5-.2 39 0 .4.2.7 1.9.7 3.8zm0 11.4v4h-78v-8h78v4zm0 13.6c0 5.2-.3 5.9-4.7 11l-4.7 5.4h-60.4l-1.5-2.3c-.8-1.2-2.6-3.6-4.1-5.2-2.2-2.5-2.6-4-2.6-8.8V195h78v5.6zm-9.2 22.3l-.3 2.6-29.8.3c-26.2.3-29.8.2-30.3-1.2-1.7-4.5-1.2-4.6 30.6-4.4l30.1.2-.3 2.5zm4.6 11.5c2.5 2.9 4.6 6.3 4.6 7.5v2.1H288.3l-2.7-6.1c-1.5-3.3-2.5-6.7-2.2-7.5.4-1.2 5.4-1.4 31-1.4h30.4l4.6 5.4zm4.4 17.8l.3 3.8h-61.7l-1.2-3.3c-.7-1.8-1.2-3.7-1.2-4 0-.4 14.3-.6 31.8-.5l31.7.3.3 3.7zm.2 11.8v4h-29.5c-16.2 0-29.5-.4-29.5-.9s-.3-2.3-.6-4l-.6-3.1H354v4zm-.2 11.7l-.3 3.8h-56l-.3-3.8-.3-3.7h57.2l-.3 3.7zm0 11.8c-.2 2-.6 3.5-1 3.5H299.2l-.4-3.5-.4-3.5h55.7l-.3 3.5zm.2 12v3.5h-54v-7h54v3.5zm-.2 11.7l.3 3.8H300v-3.3c0-1.9.3-3.6.6-4 .3-.3 12.4-.5 26.7-.4l26.2.2.3 3.7zm-223.4 2.9c1 10.4.7 16.3-1.4 22.4-2.4 7.1-2.5 7.1-.1 7.8 1.5.3 2.1-.2 2.7-2.2.6-2.4.8-2.2 1.5 1.8.5 2.5.6 4.7.3 5-.2.3-1.8-.3-3.5-1.3l-3-1.8-9.7 5.7c-7.1 4.2-10.1 5.4-11.2 4.8-.8-.6-5.2-3.1-9.7-5.7l-8.2-4.8-8.6 5.1-8.6 5-3.9-3.6-4-3.5V308H129.7l.7 6.1zM354 323v4h-26.8c-14.8 0-27.1-.2-27.3-.5-.3-.2-.3-2-.1-4l.4-3.5H354v4zm-.2 11.7l-.3 3.8-26.9.3c-14.8.1-27.3-.1-27.7-.5-.4-.5-.5-2.3-.2-4.1l.5-3.2h54.9l-.3 3.7zm.2 12.1c0 7.3-.2 7.4-30.6 7.2-14.8 0-26.9-.2-27.1-.3-.1-.2 0-2.7.4-5.5l.6-5.2H354v3.8z"/><path d="M210.5 192.7c-6.5 1.7-10.1 8.7-9.2 18.1.3 3.5 3.8 14.7 9 29.2 4.7 12.9 10.8 29.9 13.6 37.7 2.8 7.9 5.7 15.6 6.5 17.2 3.4 6.4 13.7 12.1 22.1 12.1 5.1 0 13.6-4.9 17-9.8 2.8-4.1 3-4.9 3-14 0-11.8-2.5-20-12-39.9-16.9-35.4-35.5-54.2-50-50.6zm14.5 20.5c6.3 6.6 15.5 20.9 22.5 35.3 11.5 23.6 14.4 38.3 8.3 42.8-2.8 2.1-7.8 1.9-11.2-.6-2-1.4-29.6-77.8-29.6-82 0-2.7 0-2.7 2.9-1.3 1.6.9 4.8 3.5 7.1 5.8z"/></svg>