<svg version="1" xmlns="http://www.w3.org/2000/svg" width="649.333" height="800" viewBox="0 0 487.000000 600.000000"><path d="M74.4 1C54.9 3.6 39.9 11.1 25.5 25.5 11.3 39.7 3.5 55.6 1.1 75-.4 86.6-.4 401.3 1 412.8c4.6 36 32.2 65.7 67.8 72.8 10.9 2.1 338.3 2.1 349.4 0 31.6-6.1 56.8-29.9 66.1-62.6l2.2-7.5.3-166c.2-115.1 0-168.5-.8-174.3-4.7-36.1-28.8-63-65.1-72.9C415 .7 402.6.6 247.5.4 155.6.3 77.7.6 74.4 1zM422 13.7c15 4.9 24.8 11 34.3 21.2 9.9 10.8 16.5 24.4 18.7 38.8.7 4.6 1 61.5.8 174.8l-.3 168-2.7 8c-7.2 21.1-22.9 38.4-41.9 46.1-15.5 6.3-2.8 5.9-186.9 5.9-181.4 0-172 .3-186.6-5.5-18.6-7.4-33.5-22.2-40.9-40.7-5.7-14.2-5.5-6.8-5.5-186 0-108.5.4-167 1-171.2 2.6-15.7 9.5-28.8 21.4-40.6 11.2-11 24.5-18 39.1-20.4 2.8-.5 81.1-.8 174-.7l169 .1 6.5 2.2z"/><path d="M280.5 59c-52.8 5.9-119.7 13.4-148.7 16.7-29 3.2-52.4 6.1-52 6.4.4.3 4 1.2 8 1.8l7.3 1.3-.6 33.2-.7 33.1 11.9 24.7 11.8 24.7 13.8 14.6c9.3 9.9 13.7 15.3 13.6 16.8 0 1.2-1 9.6-2.3 18.6l-2.2 16.3 5-.5c2.8-.3 29.6-4.5 59.6-9.2 30-4.7 81.7-12.8 115-18.1 33.3-5.2 67.3-10.5 75.5-11.9 8.3-1.3 22.9-3.6 32.5-5 9.6-1.5 17.9-3 18.3-3.5.5-.4 1.9-7.6 3.3-16l2.5-15.4-4.9-5c-2.6-2.8-8.8-9.2-13.7-14.3-8.5-8.9-9.1-9.9-17.2-27-4.6-9.8-10-21-11.8-24.8l-3.5-7-.2-29-.3-29-2.3-.3c-1.9-.3-2.3 0-1.8 1.5 1.4 4.4 2.9 4.1-59.9 10.8-13.2 1.4-27.8 3-32.5 3.5-4.7.5-19.3 2.1-32.5 3.5s-27.8 3-32.5 3.5c-4.7.5-27.6 3-51 5.5s-50.4 5.4-60.1 6.5c-20.2 2.3-23.1 2.4-24.6.9-1.9-1.9-.3-4.8 3.1-5.4 1.7-.3 26.3-3 54.6-6C318.9 58.6 347.8 55.4 370 53c9.6-1.1 19.3-2 21.5-2.1 3.8-.1 3.7-.2-2-1.5-3.3-.7-7.6-1.3-9.5-1.3-1.9.1-46.7 5-99.5 10.9zM389 111c2.3 2.3 2.6 4.9.7 7.4-1.6 2.1 5.1 1.2-151.2 21.1-54.5 6.9-105.4 13.4-113.3 14.5-18.3 2.6-19.7 2.5-21.6-.2-2-2.9-2-4.1.1-6.7 2-2.3-9-.8 138.8-19.6 32.5-4.2 77.5-9.9 100-12.9 22.6-2.9 41.8-5.4 42.8-5.5.9 0 2.6.8 3.7 1.9zm24.8 46.2c1.7 1.7 1.5 6.3-.2 8.1-.8.8-4.1 1.8-7.3 2.2-3.2.3-23.3 2.9-44.8 5.6-48.6 6.2-115.9 14.8-180.7 23.1-37.8 4.8-50.2 6-51.5 5.2-1.1-.6-1.9-2.6-2.1-4.7-.3-3.1.1-3.9 2-4.7 1.3-.6 11.1-2.1 21.8-3.5 17.7-2.2 50.5-6.4 101.5-13 10.5-1.3 38.8-5 63-8 24.2-3.1 53.7-6.9 65.5-8.5 24.3-3.1 31.1-3.5 32.8-1.8zm23.6 29.4c1.9 1.9 2.1 6.8.4 8.2-1.8 1.4-4.6 1.8-27.3 4.7-11 1.4-33.9 4.3-51 6.5-17 2.2-59.3 7.6-94 12-34.6 4.5-73.7 9.5-86.8 11.1-22.7 2.9-23.9 3-25.8 1.3-2.2-2-2.5-6.6-.6-8.3 1.8-1.4 5.3-1.9 125.2-17.1C407 188.5 418.3 187.1 425 186.1c8.5-1.3 10.7-1.2 12.4.5z"/><path d="M63.2 90.2c-1.6 2.4-8.6 12.7-15.5 23L35 131.9v43.9l10 7.3 9.9 7.4.1 10.6v10.6l13.8 11c39.1 31.1 61.4 48.4 61.8 48 .1-.1 1.2-8.2 2.5-17.9l2.3-17.6-3.4-3.9c-1.8-2.1-8-8.9-13.8-15-5.8-6.2-11.5-13.4-12.7-16-1.3-2.7-5.1-10.7-8.5-17.8-3.5-7.2-7.6-15.9-9.4-19.5l-3.1-6.5V89.6l-5-1.2c-13.1-2.9-13.1-2.9-16.3 1.8zm6.7 36.5c8.6 10.4 8.9 37 .5 48-2.6 3.4-8.1 6.6-9.6 5.7-1.7-1.1-.7-9.9 1.5-14.3 1.9-3.9 2.2-6.2 2.2-15.6 0-9.7-.3-11.4-2.2-14.6-2.2-3.5-3.3-12.6-1.7-14.2 1.2-1.2 6.5 1.6 9.3 5zM57 135c0 1.7-.8 4.3-1.7 5.7-2.5 3.7-2.5 16.8 0 20.6.9 1.4 1.7 4.2 1.7 6.1 0 2.9-.3 3.4-1.7 2.9-5.8-2-8.9-9.4-8.7-20.8.1-9.3 4.2-17.5 8.6-17.5 1.3 0 1.8.8 1.8 3zM362.2 249.5c-2.9.7-9.7 3.9-15 7.1-22.3 13.2-51.4 31.7-53.8 34.2-5.5 5.7-5.4 4.9-5.4 62.2 0 57.3-.1 55.7 5.4 60.9l2.6 2.4v-57.8l8.6-9.8c7.3-8.2 9-9.7 11.6-9.7 6.1 0 44.3 4.1 45.1 4.9.4.4.6 18.5.5 40.3l-.3 39.5 6.5-.4c14.6-1 28.7-6.1 35.3-13 2.1-2.1 9.2-11.9 15.9-21.8l12.3-18 .3-54.5c.3-62.2.7-58.7-8.4-63-8.8-4.1-49.2-6.4-61.2-3.5zm63.8 15.7c0 1.9-17.3 28.7-23.7 36.6-3.8 4.7-8.7 8.1-14.5 10.2l-3.8 1.4-.2 51.5-.3 51.6h-5l-.3-50.5-.2-50.5-10.1.3c-10.6.4-49.8-2.1-60.9-3.9-10-1.6-14.7-5.4-10.6-8.8 1-.8 2.4-.6 5.7.8 6.7 3 60.1 6.9 71.3 5.3 8.3-1.2 17.6-4.9 21.4-8.5 2.1-1.9 8.5-11.1 22.4-31.9 2-3.1 4.3-5.8 5-6.1 2.1-.7 3.8.4 3.8 2.5z"/><path d="M311.2 350.9c-2.9 3.3-5.2 6.2-5.2 6.5 0 .3 1.1.6 2.5.6 1.3 0 8.8.9 16.7 2 7.9 1.1 15.9 2.2 17.8 2.4 3.4.5 3.6.4 7.2-6.4l3.7-6.9-3.2-.6c-1.8-.2-8.6-.9-15.2-1.5s-13.6-1.3-15.6-1.6c-3.3-.5-3.8-.1-8.7 5.5zM353.2 363.8c-2.2 4.6-2.3 5.2-2 34.1l.3 29.3 2.3-4c2.2-4 2.2-4.5 2-34l-.3-30-2.3 4.6zM302.2 396.7l.3 33.8 19 2.7c10.5 1.5 20 2.7 21.3 2.7l2.2.1v-33.5c0-18.4-.3-33.5-.7-33.5-1.4 0-37.8-5-40.1-5.5l-2.2-.5.2 33.7z"/></svg>