<svg version="1" xmlns="http://www.w3.org/2000/svg" viewBox="0 0 488.000000 488.000000"><path d="M73.2 1.1C51.4 3.9 32.8 14.9 16.7 34.5 13 39 7.4 49.7 5 57 0 71.8 0 70.4 0 241.5c0 104.9.4 162.9 1 168.3 2.3 17.8 9.9 33.8 22.3 46.8 10.3 10.9 19.4 17.1 32.1 21.8 14.3 5.3 6.3 5.1 187.1 5.1h168l8.9-2.3c30-7.6 53.1-30.3 61.8-60.7l2.3-8 .3-164c.2-114 0-166.9-.8-173.5-2.2-19.7-10.6-36.5-25-50.4C443.9 11 428.2 3.3 409.8 1 399.9-.2 82.9-.2 73.2 1.1zm347.3 12.7c25.1 8.5 41.8 25.4 49.7 50.2l2.3 7.5v342l-2.7 8c-9.2 27-31.7 46.2-58.8 50.4-5.5.9-50.8 1.1-173.5.9l-166-.3-7.3-2.3c-25.6-7.9-43.9-26.6-50.9-52.2-1.7-6.1-1.8-16.2-1.8-176.5v-170l2.3-7.5c8.7-27.5 29.5-46.4 57.3-51.9 2.4-.5 79.7-.8 173.4-.8l169 .2 7 2.3z"/><path d="M268.6 35.2c-.7 1.3-8 14.2-16.1 28.8-8.1 14.6-17.9 32.2-21.8 39.2l-7.1 12.6-9.1 2.7c-4.9 1.4-19.1 5.4-31.5 8.9l-22.5 6.4-9-4.8c-4.9-2.6-13.3-7-18.5-9.8-14.8-7.7-43.7-23-52.5-27.7C76.1 89.2 64.6 83.1 55 78S34.6 67.2 31.2 65.3c-5.2-2.8-6.3-3.1-5.8-1.6.3 1 3.5 14.6 7.1 30.3 3.6 15.7 8.9 38.2 11.6 50 2.8 11.8 6.3 26.9 7.8 33.5l2.8 12-.8 52.5c-.4 28.9-1 63.6-1.3 77.2l-.6 24.7 7.3 4.4c6.9 4.2 19.7 11.5 30.2 17.2 2.8 1.5 5.5 3.1 6 3.5.6.4 5.1 3 10 5.8 5 2.7 15.7 8.9 23.8 13.6 8.2 4.7 15.1 8.6 15.3 8.6.2 0 2.2 1.1 4.4 2.5s6.4 3.8 9.2 5.4c2.9 1.5 13.4 7.4 23.3 13.1 27.6 15.8 30.2 17.3 41.5 23.7 5.8 3.3 12.5 7.2 15 8.5l4.5 2.6 10.5-3.9c5.8-2.1 22.2-7.9 36.5-13 14.3-5 37.7-13.3 52-18.4 14.3-5.1 36.1-12.9 48.5-17.2l22.5-8-.3-29.4c-.2-16.2-.7-53.9-1.2-83.9l-.8-54.5 4.8-8.5c2.6-4.7 7.6-13.5 11-19.5 3.5-6.1 8-13.9 10-17.5 2-3.6 9.1-16.1 15.8-27.7 6.8-11.7 12.5-21.9 12.8-22.8.7-1.6-1.3-2.6-84.1-42.5-42.8-20.6-57.6-27.7-88.9-42.9-11.5-5.6-21-10.1-21.2-10.1-.2 0-1 1-1.8 2.2zm27.7 28.2c5 2.4 17.8 8.5 28.2 13.6 20.9 10.1 38.7 18.7 54 26 5.5 2.6 21.3 10.3 35 17 13.8 6.7 26 12.6 27.3 13.1 1.3.5 2.1 1.2 1.9 1.6-.2.5-2.9 5.1-5.9 10.3-3.1 5.2-6.7 11.6-8.1 14.2-1.4 2.5-6 10.6-10.3 18-4.2 7.3-8.5 14.6-9.4 16.3-1 1.6-3.6 6.1-5.8 10-2.2 3.8-4.4 6.9-4.9 6.8-.4-.1-21.9-12-47.8-26.4-25.8-14.4-55.3-30.8-65.5-36.4-33.3-18.5-44.5-24.7-45.2-25.4-.6-.5 29.2-55.3 35.8-65.9l1.5-2.2 5 2.5c2.7 1.4 9.1 4.5 14.2 6.9zM64 101.1c7.4 3.9 17.6 9.2 22.5 11.9 5 2.6 16.9 8.9 26.5 14 9.6 5.1 21.1 11.2 25.5 13.5 4.4 2.3 13.4 7.1 20 10.5 6.6 3.4 14.3 7.5 17 9 2.8 1.5 10.4 5.6 17 9.1 6.6 3.4 16.4 8.6 21.9 11.6 5.4 2.9 10.7 5.5 11.7 5.8 1.1.4 1.9 1.4 1.9 2.3.1.9 1.3 18.6 2.9 39.2 1.5 20.6 2.6 37.9 2.4 38.3-.3.4-7.3-2.8-15.6-7.1-16.4-8.6-37.1-19.2-67.2-34.7-10.4-5.4-25.3-13-33-17-7.7-4-21.2-11-30-15.5s-16.4-8.6-16.9-9c-.8-.8-4.6-16.3-15.7-64.4-2.8-12-5.3-22.5-5.6-23.2-.3-.8-.1-1.4.4-1.4s7 3.2 14.3 7.1zM220 149c0 10-.4 15-1.1 15-1 0-24.6-12-32.8-16.8l-4.4-2.6 17.9-5.2c9.8-2.8 18.5-5.2 19.2-5.3.9-.1 1.2 3.5 1.2 14.9zm22-7c2.8 1.7 7.9 4.5 11.3 6.4 3.4 1.8 11.4 6.2 17.7 9.8 6.3 3.6 14 7.9 17 9.5 3 1.7 11.1 6.2 18 10s24.9 13.8 40 22.2c38.4 21.4 36.5 20.2 34.9 21.1-.8.5-12.9 5.1-26.9 10.3-14 5.2-37.6 14-52.5 19.5-41 15.3-49.2 18.2-50.2 18.2-1.2 0-1.3-1.6-5-52.4l-2.8-38.8-3.7-2.2-3.8-2.1v-17.3c0-9.4.2-17.2.5-17.2.2 0 2.7 1.4 5.5 3zm-106.5 93c20.4 10.6 55.1 28.4 78 40.1l21 10.8.3 71.5c.1 45.8-.1 71.6-.8 71.6-.5 0-11.6-6.2-24.7-13.7-13.1-7.5-27.4-15.6-31.8-18.1-4.4-2.4-8.4-4.8-9-5.2-.5-.4-3.5-2.1-6.5-3.7s-11.6-6.5-19-10.8c-7.4-4.3-16.9-9.7-21-12-4.1-2.3-9.9-5.6-12.8-7.4-2.9-1.7-5.5-3.1-5.7-3.1-.2 0-3.7-2-7.7-4.3-4-2.4-11.7-6.8-17.1-9.8l-9.9-5.4.6-53.5c.4-29.4.9-59.5 1.2-66.8l.6-13.2 25.7 13.1c14.1 7.3 31.5 16.2 38.6 19.9zm258.9 21.2c.3 12.3.9 45.3 1.2 73.4.6 49.2.5 51.1-1.2 51.8-1.1.5-12.5 4.5-25.4 9.1-12.9 4.6-37.7 13.4-55 19.5-37.7 13.4-62.1 22-62.6 22-.2 0-.4-32.6-.4-72.5V287l2.3-1c1.2-.5 6.6-2.5 11.9-4.4 5.3-2 10.7-4 12-4.5 1.3-.6 13.3-5 26.8-10s38.9-14.5 56.5-21c17.6-6.6 32.3-12 32.6-12.1.4 0 .9 10 1.3 22.2z"/></svg>