<svg version="1" xmlns="http://www.w3.org/2000/svg" viewBox="0 0 488.000000 488.000000"><path d="M70.5 1.5c-4.4.7-10.6 2.2-13.8 3.3-6.7 2.4-18.6 8.6-21.3 11-1.1 1-3.9 3.3-6.3 5.1C19.6 28.4 9.3 44 4.4 58.2-.1 71.4-.1 74.4.2 246.5l.3 163 2.2 7.6c9.1 31.8 32.5 54.5 63.5 61.3 6.6 1.5 24 1.6 177.8 1.4l170.5-.3 9.8-3.7c27.4-10.2 46.3-30.7 54-58.3l2.2-8 .3-162.5c.2-114.2 0-165.4-.8-172.2-3.3-29.1-20.2-53-46.5-65.7-19-9.3-2-8.5-189.5-8.7C111.2.2 76.9.4 70.5 1.5zm347 12.1c21.3 7.5 36.1 20 45 37.9 7.6 15.5 7-.5 7.3 186.3.2 163.7.2 167.6-1.7 175.7-6.7 28.1-29.4 49.7-58 55.1-6.5 1.2-32.4 1.4-173.1 1.2-155.2-.3-165.9-.4-171.5-2.1-21.8-6.4-38.3-20.4-47.5-39.9-7.4-16-7-4.6-7-188 0-158.6.1-164.6 1.9-172.3 2.3-9.5 4.8-15.6 9.4-22.7 10.4-16.2 27.4-28.2 46-32.3 5.1-1.1 35.7-1.3 174.7-1.1 168.4.1 168.5.1 174.5 2.2z"/><path d="M270.9 82.7c-9.6 15.9-21 32.2-22.2 31.8-.7-.3-4.3-2.1-8-3.9l-6.6-3.4-4.8 2.5c-9 4.8-48.8 26-52.3 28-3.4 1.9-3.6 2.4-11.8 28.9-4.6 14.8-8.6 27.1-8.8 27.4-.6.5-4.2-3.2-12-12.3l-4.2-4.7-7.4 7.7c-4.1 4.3-18.2 19-31.4 32.8-27.9 29-34.4 36-34.4 36.7 0 .3.9 1.6 2.1 2.9 1.1 1.3 10 11.6 19.7 22.8 9.7 11.1 17.8 20.6 18 21 .1.4-7.9 3.6-17.8 7.1l-18.1 6.5-16.8 33c-15.2 29.8-17.1 33-19.5 33.3-2.6.3-2.6.4-2.6 8.8v8.4l208.3-.2 208.2-.3v-8c0-7.6-.1-7.9-2.5-8.5-2.4-.6-6.5-6.8-33.6-51-3.9-6.3-9.3-15-11.9-19.3l-4.9-7.8 14.2-14.2c7.8-7.8 14.2-14.6 14.2-15.1 0-.8-7.8-9.9-18.5-21.6-2.7-3-7.7-8.7-11-12.5-3.3-3.8-9.6-11-13.9-16-4.4-4.9-8.2-9.3-8.6-9.7-.3-.4-4.2 2.4-8.7 6.2-4.6 3.9-8.5 7-8.8 7-1.5 0-21.1-16.5-21.8-18.3-.5-1.2-4.6-15-9.3-30.7-11.8-39.8-11.7-39.4-12.7-40.2-.6-.3-3.4-.9-6.4-1.3-2.9-.3-5.3-.9-5.3-1.1 0-.7 9-17.4 10.7-19.9.7-1.1 1.3-2.3 1.3-2.6 0-.4-6.2-6.1-13.7-12.7-13.2-11.4-15.4-13.4-21.4-18.9l-2.7-2.4-2.3 3.8zm13.6 27.6l6.6 5.9-1.9 3.1c-2.1 3.4-4.1 7.1-12.8 23-3 5.4-6 10.8-6.8 12-.7 1.2-3.2 5.6-5.4 9.8l-4.1 7.6 4.1 2.2c2.2 1.1 5.3 2.9 6.9 3.8 1.6.9 3 1.5 3.3 1.2.2-.2 3.8-6.5 7.8-13.9l7.4-13.5 4.2.1c2.3 0 4.4.3 4.7.6.3.2 3 9 6.1 19.4 3.1 10.4 7.6 25.4 10 33.4 4.9 16.1 4 14.9 19.1 26.3 4.5 3.4 8.2 6.5 8.3 6.8 0 .3-3.6 3.6-8 7.3l-8 6.7 5.1 6c5.7 6.5 4.9 6.5 12 .4 1.9-1.6 6.2-5.3 9.4-8 3.2-2.8 8.4-7.1 11.4-9.8 3-2.6 5.7-4.7 6-4.6.3 0 3.3 3.2 6.6 7 8.4 9.7 10.8 12.4 17.8 20.3 3.4 3.8 6.6 7.6 7 8.5.8 1.6-1 3.7-20.1 23.3l-5.5 5.7 6.5 10.8c3.6 5.9 14.3 23.4 23.8 38.8 9.5 15.4 17.5 28.6 17.7 29.3.4.9-4.1 1.2-20.6 1.2H382v-47h-35v-47H231v47h-65.1l.3 23.5.3 23.5h-55.2c-30.4 0-55.3-.4-55.3-.8 0-.8 19-38.3 24.1-47.7l2.7-5 16.9-6.2c9.2-3.4 17.5-6.2 18.3-6.2.8-.1 3.7 2.4 6.5 5.4l5 5.5 5.9-5.3 5.9-5.3-7.4-8.4c-4.1-4.7-7.8-9-8.4-9.6-.5-.6-3.5-3.9-6.5-7.4-3-3.5-6.2-7.1-7-8-.8-.8-5-5.6-9.2-10.5-4.2-5-9-10.6-10.7-12.5-1.7-1.9-3-4-2.9-4.7.2-.6 8.4-9.6 18.3-19.9 9.9-10.4 21.2-22.2 25.1-26.3l7.1-7.4 4.4 4.9c2.4 2.6 6.7 7.3 9.5 10.4 2.8 3 11.3 12.4 18.8 20.7 7.6 8.4 14 15.3 14.3 15.3.3 0 3.2-2.3 6.5-5.1l5.9-5.2-6.3-6.6c-8.7-9.2-22.2-24.1-23-25.5-.4-.7 2.5-11.3 6.3-23.6 3.8-12.4 7.9-25.5 9-29.1 1.5-5.1 2.6-6.9 4.7-8 1.5-.7 11.7-6.2 22.8-12.1 11-6 20.7-10.8 21.7-10.8 2.7 0 6.8 2.3 6.3 3.5-.2.6-3.4 5.8-7.1 11.4-3.6 5.7-6.5 10.4-6.3 10.5.2.2 3.2 2.1 6.7 4.4l6.5 4.1 7.6-11.7c4.1-6.4 12.3-19 18-28 5.8-8.9 10.8-16.1 11.2-16 .3.2 3.6 2.9 7.3 6.1zm46.3 207.9l-.3 15.3-41.7.3-41.8.2v-31h84.1l-.3 15.2zM266 365.5V381l-41.5.2-41.4.3-.3-15.3c-.2-8.5-.1-15.6.1-15.8.2-.2 19-.4 41.8-.4H266v15.5zm100 0V381h-84v-31h84v15.5z"/><path d="M219.3 187.8c-2.3 1.5-4.1 3.2-3.9 3.7.2.6 3.8 6.3 8 12.8L231 216l4-2.6c2.2-1.5 4-3 4-3.5 0-.4-3.5-6.2-7.8-12.8l-7.7-12-4.2 2.7zM284.5 225.5l-6 5.4 3.7 3.8 3.7 3.7 5.3-5c2.9-2.7 5.3-5.4 5.3-6 0-.9-5-7.4-5.7-7.4-.2 0-3 2.5-6.3 5.5zM182.2 287.6c-.7 2.6-1.1 4.8-1 4.9 1.2 1.2 18.2 5.5 18.8 4.8 1.1-1.1 3.3-8.3 2.8-8.9-.6-.5-16.9-5.4-18.3-5.4-.6 0-1.6 2.1-2.3 4.6zM108 344.2c-2 4.1-2 4.3-.3 5.6 1.9 1.5 12.9 7.2 13.8 7.2.9 0 4.6-8.1 4-9-.6-1-13.5-8-14.7-8-.4 0-1.7 1.9-2.8 4.2z"/></svg>