<svg version="1" xmlns="http://www.w3.org/2000/svg" width="562.667" height="800" viewBox="0 0 422.000000 600.000000"><path d="M65.5 1c-8.4 1.2-16.6 4-25 8.3-11.5 5.9-23.4 18-29.7 30.2-9 17.6-8.3 3.4-8.3 170.5 0 165.4-.6 152.2 7.4 168.5 9.4 19.1 26.5 33.2 46.5 38.4 7.9 2.1 9.5 2.1 155.5 2.1h147.6l8.7-2.4c24.7-6.8 43.7-25.8 51-51.1l2.3-8V210c0-166.5.7-152-8.1-169.9-3.9-7.9-6.1-10.8-13.4-18.1-9.7-9.6-19-15.2-32-19.2L360.5.5l-145-.1C135.8.3 68.2.6 65.5 1zm299 10.3c23.9 7.1 39.8 23.2 46.2 46.7 1.7 6.1 1.8 15.7 1.8 152 0 135.6-.1 145.9-1.8 152-5.6 20.9-21.3 37.9-41.7 45.2l-6.5 2.3h-301l-6.5-2.3C35.1 400 20.2 384.4 13.8 364l-2.3-7.5v-293l2.3-7.5c4-12.5 7.8-18.8 16.6-27.5C41.3 17.6 52.5 11.9 66.5 10c3.3-.4 70.4-.7 149-.6 134 .1 143.4.2 149 1.9z"/><path d="M340.8 64c-11.5 8.2-12.9 8.9-15.1 7.9-3.1-1.4-3.2-1.4-22.9 12.7C294 90.9 286.3 96 285.7 96c-.7-.1-5.2-5.7-10.1-12.5-6-8.5-9.6-12.7-11.2-13.1-2.9-.8-4.4.2-36.6 23.3-12.8 9.1-31.8 22.7-42.3 30.1-10.4 7.4-28.3 20.2-39.7 28.3-11.4 8.2-21.1 14.9-21.6 14.9s-1.5-.7-2.2-1.5c-3.8-4.6-14.9 1.4-13.7 7.4.4 1.6 5.4 9.8 11.3 18.1l10.6 15.3-2.8 2.3c-1.6 1.3-3.2 2.3-3.6 2.4-.3 0-2.3-2.3-4.3-5.1-2.8-3.7-4.3-4.9-5.9-4.7-3.3.5-3.2 4.3.3 9 1.7 2.3 3.1 4.5 3.1 4.9 0 .9-8.4 7.2-30.5 22.9-8.8 6.2-18.6 13.3-21.7 15.7-3.1 2.4-6.1 4.3-6.6 4.3s-3.1-3.2-5.8-7c-6.2-8.9-10.2-10.4-15.1-5.7-2.9 2.6-2.9 5.5 0 9.8 14.7 21.5 24.5 35 26.5 36.6 2.4 1.9 6.9 1.6 9.2-.7 3.5-3.5 2.6-7.9-3-15.3l-5-6.7 5.8-4.2c3.3-2.4 10.1-7.4 15.3-11.1 5.2-3.7 15.9-11.5 23.8-17.2 8-5.8 14.7-10.5 15-10.4.3 0 2.3 2.3 4.4 5 2.9 3.7 4.4 4.9 6 4.7 3.5-.5 3.2-3.9-.9-9.2l-3.7-4.8 2.9-2.4c1.6-1.3 3.3-2.2 3.8-2.1.4.2 5.6 7 11.5 15.2 11.6 16.4 14.2 18.5 19.3 16.4 3.9-1.6 6-5 5.6-9-.3-3.2.1-3.6 21.2-18.6 11.8-8.4 24.2-17.2 27.5-19.6 3.3-2.4 16.4-11.7 29-20.7 12.7-9 25.3-18 28-20 2.8-2 9.7-7 15.5-11 13.2-9.3 16-11.8 16-14.7 0-1.4-3.6-7.3-8.2-13.9-4.6-6.4-8.7-12.2-9.3-12.9-.5-.8-.7-1.6-.5-1.8.3-.2 8.3-5.9 17.8-12.6 15.8-11.2 19.6-14.8 18.6-17.6-.2-.6 1.6-2.4 4-4 21.1-14.4 25-17.6 21.4-17.5-.7 0-7 4.1-14 9zm-75.5 26.2c4.2 6.2 7.9 11.5 21.1 29.8l9.6 13.5-2.2 1.7c-3.2 2.5-33.9 24.5-40.2 28.8-5.2 3.5-8.2 4.9-7.2 3.1 1-1.6-14.8-22.6-17-22.6-3.7 0-2.4 3.3 5.6 14.3 4.4 6.1 8 11.5 8 12.1 0 1.1-11 9.1-12.5 9.1-.5 0-1.7-1.1-2.5-2.5-5.3-8.5-14.7-20.5-16.3-20.5-3.9 0-2.7 3.2 5.3 14.5 4.5 6.3 8 11.9 7.8 12.5-.5 1.5-10.1 7.9-11 7.4-.5-.3-4.3-5.4-8.4-11.2-7.6-10.8-9.6-12.8-11.4-11.7-2.1 1.3-.7 4.5 7 15.2 4.4 6.1 8 11.4 8 11.6 0 .3-2.8 2.6-6.2 5.2-4.4 3.3-6.4 4.3-7.2 3.5-.6-.6-4.5-5.9-8.6-11.8-7.4-10.5-10.4-13-11.6-9.7-.5 1.1 2.1 5.7 7.5 13.5 4.4 6.5 8.1 12.1 8.1 12.3 0 .8-23.9 17.7-25 17.7-.5 0-3.6-3.9-6.9-8.8-3.3-4.8-7.8-11.2-10-14.2-9.1-12.4-17.1-24.2-17.1-25.1 0-.4 13.5-10.3 30.1-22 16.5-11.8 33.5-23.9 37.7-27 13.3-9.6 43.4-31.1 51.7-36.8 4.4-3 8.2-5.9 8.3-6.3.7-1.7 2-.6 5.5 4.4zM363.3 151c-1.9.8-29.6 20.9-41.3 30-1.9 1.5-24.4 18.4-50 37.6-109.1 82.1-104.8 78.7-106.1 83.9-1.1 4.2-1.6 4.7-11.3 10.4-22.5 13.3-46.8 31.9-67.4 51.5-5.1 4.9-10.2 10.3-11.4 11.9l-2.1 2.9 3.4-.7c8.3-1.7 25-6.7 33.6-10 15.3-6 18.4-8.7 25.7-22.6 2.8-5.3 6.4-8.7 20.1-19 18.1-13.6 18.6-13.9 25.5-13.9h6.2l21.6-14.7c11.9-8 27.1-18.3 33.7-22.8 6.6-4.5 20.6-13.9 31-21C285 247.4 301.8 236 312 229s29.9-20.4 43.8-30c14-9.5 26.8-18.7 28.4-20.4 4.8-4.8 6.9-10.6 7-19.1 0-4.1-.3-7.9-.7-8.4-.8-1.3-24-1.4-27.2-.1zM155.9 318.4c.6.7.9 2 .6 2.7-.5 1.2-39.1 30.9-43.2 33.3-1.9 1-4.8-1.6-4-3.6.3-.8 8.8-7.7 18.8-15.3 10.1-7.6 19.7-14.9 21.2-16.2 3.3-2.6 5-2.9 6.6-.9z"/></svg>