<svg version="1" xmlns="http://www.w3.org/2000/svg" width="332" height="452" viewBox="0 0 249.000000 339.000000"><path d="M43 13.4C31.4 15.9 21 24 16.2 34.3c-4.1 8.7-4.3 13.7-4 94.2l.3 77 2.3 5.8c4.5 11.1 14 20.1 24.6 23.2 7.4 2.2 162.8 2.2 170.2 0 10.6-3.1 20.1-12.1 24.6-23.2l2.3-5.8V125c0-75.5-.1-80.8-1.8-86.1-3.5-10.5-13.4-20.7-24.1-24.5-4.8-1.8-9.8-1.9-83.6-2.1-58.7-.1-79.9.1-84 1.1zm169 6.8c7.1 3.5 13.3 9.7 16.8 16.7l2.7 5.6v164l-2.9 5.8c-3.6 7-9.9 13-17.4 16.5l-5.7 2.7h-162l-5.7-2.7c-7.5-3.5-13.8-9.5-17.4-16.5l-2.9-5.8-.3-79.9c-.3-88.4-.5-85.7 6.1-94.9 4.2-5.9 10.4-10.6 17.1-12.9 4.7-1.6 10.8-1.7 85.6-1.5l80.5.2 5.5 2.7z"/><path d="M179.1 38.7l.2 8.8-6 12.5C160.4 86.4 160 89 160 144.2v44l3.3 3.3c5.1 5.1 12.6 7 27.7 7 14.1 0 21.8-1.7 26.9-6.1l3.1-2.6v-45.1c0-41.1-.2-45.9-1.9-53.2-2.4-9.8-6.5-21.2-12.5-34.3-4.3-9.3-4.6-10.4-4.6-18.6V30h-23.2l.3 8.7zm22.3 24.8c4.9 10.9 10.3 25.7 8.8 24-.5-.6-2.3-5-4.1-10-3.7-10.3-5.3-12.5-9.2-12.5-5.1 0-5.9 2.7-5.9 19.2 0 8 .4 15.8 1 17.2.5 1.4 2.4 3.5 4.2 4.6l3.3 2H167v-3.5c0-9.4 5.7-27.9 13-42.5 4.5-9 4.5-9 11-9h5.7l4.7 10.5zm1.6 21.9c2.4 6.7 3.9 12.4 3.5 13.6-1.2 3.9-7.9 3.7-9.4-.3-1-2.8-1.4-23.1-.5-25.9.9-2.8 1.4-1.9 6.4 12.6zm10.8 69.8l-.3 32.2-5 1.9c-10.5 4.1-31.8 3-39.2-1.9L167 186v-63h47l-.2 32.2z"/><path d="M179 148.5L168.5 159l10.8 10.8 10.7 10.7 10.7-10.7 10.8-10.8-10.5-10.5c-5.8-5.8-10.7-10.5-11-10.5-.3 0-5.2 4.7-11 10.5zm20.5 1.5l9 9-9.5 9.5-9.5 9.5-9.2-9.2-9.3-9.3 9.2-9.2c5.1-5.1 9.5-9.3 9.8-9.3.3 0 4.6 4.1 9.5 9zM42 67.5c0 6 .3 7.5 1.5 7.5 2.9 0 1.4 2.9-4 8.1-3 2.8-6.5 7.3-7.9 10-2.1 4.2-2.3 5.4-1.4 9.1.5 2.4.6 6.9.2 10.3-.4 3.3-.8 25.7-.8 49.8l-.1 43.9 2.4 1.9c2.1 1.7 4.1 1.9 20.5 1.9 18 0 18.3 0 20.5-2.4l2.3-2.4-.3-54.4-.2-54.3-2.3-4c-1.2-2.2-4.5-6.2-7.3-9C60.4 79 58.5 75 61 75c.6 0 1-3.2 1-7.5V60H42v7.5zm29 31v2.5H52c-17.8 0-19-.1-19-1.8 0-1 .3-2.2.7-2.5.3-.4 8.9-.7 19-.7H71v2.5zm-9 85c-4.7 4.6-9 8.5-9.5 8.5-.6 0-4.8-3.8-9.5-8.5l-8.5-8.5 9-9 9-9 8.9 9 9 8.9-8.4 8.6zM102.5 93c-8.9 1.5-15.2 3.9-17.5 6.7-1.9 2.5-2 4-2 39.5v37l2.8 2.8c4.2 4.2 15.3 6.4 32.2 6.5 15 0 24.7-1.5 30.6-4.9l3.9-2.2.3-39.1.2-39.1-2.9-2.1c-1.6-1.1-5.5-2.8-8.7-3.6-7.1-1.9-30.4-2.8-38.9-1.5zm37.9 9c2.1.6 3.4 1.5 3 2-4.6 4.4-37.2 5.1-47.9 1-3.5-1.3-2.9-1.9 3.7-3.6 6.5-1.6 35.3-1.2 41.2.6zm-40.5 12c10.2 1.9 36.1 1 44.2-1.5 1.7-.6 1.9-.1 1.9 5.4v6l-6.7 7.5-6.8 7.4-14 .1-14.1.1-5.2-5.3c-4.6-4.6-5.3-6-6.2-11.2-.6-3.3-1.3-7-1.6-8.3-.4-1.9-.1-2.3 1.3-1.8 1 .3 4.2 1 7.2 1.6zm-7.6 11.6c.4 2.5 2.2 5.3 5.7 8.9 3.2 3.5 5 6.3 5 7.8 0 1.4.7 2.8 1.6 3.1 2 .8 24.8.8 26.8 0 .9-.3 1.6-1.7 1.6-3 0-1.7 2.2-4.8 6.5-9.4l6.5-6.9v47.7l-2.7 1.1c-11 4.4-41.5 4.1-50.5-.5l-2.8-1.5v-26c0-23.8.8-30.9 2.3-21.3z"/></svg>