<svg version="1" xmlns="http://www.w3.org/2000/svg" width="650.667" height="800" viewBox="0 0 488.000000 600.000000"><path d="M77 .7c-9.7 1-25.2 5.6-31 9.1C18.6 26.5 4.6 46.9 1 75.2c-1.4 11.6-1.4 327.9.1 338.5 1.4 10.5 5.9 23.6 11.1 32.4 5.7 9.6 19.2 23.3 28.9 29.3 9.5 5.8 21.8 10.1 32.9 11.6 6 .8 57.9 1 175.5.8 152.1-.3 167.5-.5 173-2 16.2-4.5 28.2-11.5 40-23.3C477 448 484.7 432.1 487 412c.8-6.6 1-60.3.8-174.5l-.3-165-2.3-8c-8.7-31.1-30.6-53-61.7-61.7l-8-2.3L248 .4C155.9.3 78.9.5 77 .7zm347.6 13.6c13.1 4.4 20.9 9.2 30.6 18.8 7.1 7.2 9.4 10.3 13.2 18 8.8 17.8 8-.6 8.4 188.4.2 113.2-.1 170.2-.8 174.8-3.9 25.4-22.1 48.4-45.6 57.6-13.6 5.3-7.1 5.1-186.4 5.1-147.9 0-166.9-.2-173.8-1.6-30.3-6.3-53.5-30.6-58.2-61.1-.7-4.6-1-61.6-.8-174.8.4-189-.4-170.6 8.4-188.4 9.8-19.9 30.7-35.3 53-39.1 2.7-.4 81.2-.7 174.4-.6l169.5.1 8.1 2.8z"/><path d="M81.2 31L79 33.1V270H47.8l-2.9 2.9-2.9 3 .2 84.1.3 84.2 2.8 2.4c2.7 2.3 3.5 2.4 16.3 2.4 12.7 0 13.4.1 13.4 2s.7 2 11 2 11-.1 11-2c0-2 .7-2 29-2s29 0 29 2c0 1.9.7 2 11 2 10.2 0 11-.1 11-1.9 0-1.8 1-2 15.4-2.3 14.8-.3 15.6-.4 18-2.7l2.6-2.4V354h17v9h12l.2 42.7.3 42.8 11.2.3 11.2.3.3 2.7.3 2.7 12.8.3 12.7.3V449h97v6h26v-6h22V240h2.5c2.9 0 2.8.4 1.1-7.8-1.3-5.9-1.3-6.2.5-6.2 1.5 0 1.9-.7 1.9-3.5 0-3.2-.3-3.5-2.8-3.5-2.7 0-2.8-.1-4.7-10.6-2.1-12.4-4.7-18-9.4-21.1-3.1-2.1-4.6-2.3-16.2-2.3-10 0-13.1-.3-14.3-1.5-2.1-2.2-20.1-2.2-21 0-.3.8-1.6 1.5-2.8 1.5-3.8 0-11.8 2.8-17.7 6.1-12.9 7.3-25 19.1-38.9 37.6l-7.6 10.3H273V33.1l-2.2-2.1c-2.2-2-3-2-94.8-2s-92.6 0-94.8 2zm178.6 48.1l-.3 35.4h-167l-.3-35.7L92 43l83.2-.2c45.8-.2 83.6 0 84.1.3.4.3.6 16.5.5 36zm-.3 104.4v55l-8.7.3-8.8.3V340h-29v-31.6c0-32.1-.2-34.3-3.9-37.1-1.2-.9-15.5-1.2-59.3-1.3H92v-70.3c0-38.7.3-70.7.7-71 .3-.4 38-.6 83.7-.5l83.1.3v55zm162.8 7.7c3.2 1.6 4.6 5.2 7.7 19.6 1.6 7.8 3 14.8 3 15.5 0 .9-12.3 1.1-54.8 1-30.1-.2-55.1-.3-55.5-.3-.5 0 .1-1.2 1.1-2.8 2.6-3.6 16.2-18.4 16.2-17.6 0 .3 2.1-1.3 4.8-3.7 5.9-5.2 19.4-11.9 26.4-12.9 6.7-1 48.7 0 51.1 1.2zm12 41.2c.3.8.3 1.7 0 2-.4.3-26.9.6-59 .6-47.9 0-58.3-.2-58.3-1.3 0-.8.3-1.7.7-2 .3-.4 26.6-.7 58.4-.7 48.6 0 57.8.2 58.2 1.4zm-15.1 37.2c.2 8 .1 14.8-.1 15-.6.5-159.6.5-160.2 0-.2-.2-.3-7-.1-15l.3-14.6h159.8l.3 14.6zM198 345v60H57v-59.3c0-32.7.3-59.7.7-60 .3-.4 32.1-.7 70.5-.7H198v60zm221 18v69H259V294h160v69zm-221.2 59.8l.3 11.2-70.3-.2-70.3-.3-.3-9.9c-.1-5.5 0-10.6.2-11.3.5-1.1 13-1.3 70.3-1.1l69.8.3.3 11.3z"/><path d="M215.2 96.2l.3 8.3 14.3.3 14.2.3V88h-29.1l.3 8.2zM216 193v43h29v-86h-29v43zm20.4-33.3c.5 2 .7 66.4.1 67.2-.2.4-2.8.4-5.9.3l-5.6-.4v-33.7c0-18.6.3-34.1.7-34.4.3-.4 2.8-.7 5.4-.7 3.7 0 4.9.4 5.3 1.7zM379.1 195.1c-5.9 1.1-8.4 3-12.6 9.1-4 6-4.3 7.8-1.7 10.1 1.6 1.5 5.3 1.7 31.1 1.7 24.7 0 29.2-.2 28.8-1.4-.3-.8-1.1-4.2-1.8-7.6-1.6-8.4-4.1-11.1-11-12.1-7.2-1-27.3-.9-32.8.2zm36.3 5.9c.8.8 1.8 3.4 2.2 5.7l.7 4.3h-24.7c-27.4 0-27 .1-21.3-6.4 4.2-4.8 8.1-5.5 26.9-5.3 11.6.2 15.1.5 16.2 1.7zM368.3 260c-4.4 2.7-5.9 8.1-3.5 13 .9 1.9 2.8 4.1 4.2 4.8 3.2 1.6 9.6.9 12.1-1.4 3.8-3.4 4.1-11.3.7-14.7-4-4.1-8.7-4.7-13.5-1.7zM396.4 259.9c-6 3.6-6.5 11.2-1.3 16.3 3.3 3.2 7.4 3.6 11.9 1.3 9.3-4.8 5.3-19.5-5.3-19.5-1.2 0-3.6.9-5.3 1.9zM75.3 301.5c-2.7 1.6-4.9 4-6.2 6.8-2 4.2-2.1 5.9-2.1 41.6 0 34.5.1 37.4 1.9 40.9 1 2 2.8 4.5 3.9 5.5 4.8 4.4 7.4 4.6 54.7 4.6 41.6.1 45.3-.1 49-1.8 5.5-2.5 9-6.3 10.4-11.4.9-3 1.1-14.7.9-40.2-.3-35.7-.3-36-2.6-39.7-1.3-2.1-3.8-4.8-5.5-6l-3.2-2.3-48.5-.3-48.5-.2-4.2 2.5zm99.1 4.9c6.7 2.8 6.6 2 6.6 42.9 0 39.9-.1 41.1-5.5 43.5-1.9.9-15.1 1.2-48.9 1.2H80.2l-3-2.8c-1.7-1.6-3.3-4.4-3.7-6.3-.3-1.9-.5-19-.3-38.1l.3-34.6 2.5-2.7c1.4-1.5 3.4-3.1 4.5-3.5 1.1-.5 21.9-.9 46.3-.9 35.7-.1 44.9.2 47.6 1.3zM321.5 315.6c-16 5.6-27.8 17.8-33.6 34.4-1.6 4.9-2.2 8.8-2.2 16-.1 13.2 2.8 22 10.6 32.6 9.1 12.4 22.8 19.8 38.7 21.1 29.5 2.2 55.2-20 57.6-49.9 2-24.5-15.5-48.9-39.7-55.3-8.8-2.4-23.1-1.9-31.4 1.1zm30.4 8.3c12.2 3.8 21.9 12.3 27.4 23.9 2.7 5.7 3.2 8.1 3.5 16.4.6 14.6-2.5 22.9-12.5 33.1-21.4 21.9-57.2 15.9-71-12-2.9-5.9-3.6-8.5-4-15.6-1-14.6 2.9-25.2 12.7-34.8 11.8-11.5 28.7-15.7 43.9-11z"/><path d="M328.2 333c-8.9 2.9-15.7 8.8-20 17.3-9.2 18.2-2.2 38.7 16.3 47.8 7.3 3.5 18.9 3.9 27 .8 7.5-2.8 15.5-10.2 19.2-17.8 2.4-4.9 2.8-6.8 2.8-14.7 0-8.4-.3-9.6-3.5-16-7.8-15.3-25.5-22.7-41.8-17.4zm23 7.2c14.7 6.3 21 25.4 13.2 39.8-7.5 13.8-24.7 19-39 11.7-11.9-6-18.1-21-14-33.5 5.8-17.3 23.1-25.2 39.8-18zM70.2 416c-6.4 6 2.9 15.9 9.6 10.2 3.5-2.9 3.8-6.7.8-9.6-3.1-3.2-7.4-3.4-10.4-.6zM158.2 416c-4.4 4.1-1.3 12 4.6 12 5.9 0 9.3-5 6.7-9.9-2.3-4.6-7.6-5.5-11.3-2.1zM178.2 415.6c-3.1 2.1-3.1 8.7 0 10.8 5.1 3.6 11.8.5 11.8-5.4s-6.7-9-11.8-5.4zM358 42.4c-.6.6-1 1.4-1 1.9s-.9 2-2 3.4c-1.1 1.5-2 4.1-2 6.1s-.8 4.4-1.7 5.5c-1.4 1.5-1.8 3.7-1.8 9.4 0 6.5.3 7.7 2.3 9.3 2.1 1.7 2.2 2.5 2.2 16.8 0 12.1.3 15.4 1.5 16.6 3.7 3.6 8.8 2.7 10.5-2 .6-1.4 1-7.6 1-13.9 0-10.7.8-14.2 2.7-11.3.4.7.8 6.9.8 13.6 0 11.8.1 12.5 2.4 14.3 3.1 2.5 4.7 2.4 7.6-.6 2.4-2.3 2.5-2.8 2.5-16.9 0-14.1.1-14.6 2.5-17 2.1-2.2 2.5-3.4 2.5-8.9 0-4.9-.5-7-2-9-1.2-1.5-2-4.1-2-6.4-.1-2.7-.9-4.7-2.8-6.9-2.6-3-3.2-3.2-12.5-4.1-6.3-.6-10.1-.5-10.7.1zm22.8 11.3l.3 4.3H356v-3.8c0-2.1.3-4.2.7-4.6.4-.3 5.9-.5 12.2-.4l11.6.3.3 4.2zm3.6 8.9c.3.9.6 3.8.6 6.4 0 3.9-.5 5.4-2.5 7.2-2.4 2.2-2.5 2.8-2.7 17.7-.3 13.6-.5 15.5-2.1 16.5-3.5 2.2-4.7-1.5-4.7-15.1 0-12-.1-12.3-2.5-13.9-2.4-1.6-2.7-1.6-4.5.1-1.8 1.6-2 3.1-2 14 0 13.4-1.2 17.1-4.7 14.9-1.6-1-1.8-2.9-2.1-16.5-.2-14.9-.3-15.5-2.7-17.7-2-1.8-2.5-3.3-2.5-7.2 0-8.4-.7-8 16.5-8 13 0 15.4.2 15.9 1.6zM287 144.4c0 1.8-.6 2.6-2.1 2.8-4.7.7-5.1 6.8-.5 6.8 1.3 0 2.6.7 3 1.5.4 1.1-.2 1.5-2.5 1.5-5.1 0-5.1 6.1 0 6.8 1.5.2 2.1 1 2.1 2.8v2.4h172v-2.5c0-2 .5-2.5 2.5-2.5 4.7 0 4.4-6.1-.4-6.8-3-.5-2.6-1.6 1-2.9 3.9-1.5 3.8-5.4-.1-6.3-1.8-.4-2.6-1.3-2.8-3.3l-.3-2.7H287v2.4zm13 11.2v9.5l-4.1-.3-4.1-.3v-6.8c.1-12.9-.3-11.7 4.2-11.7h4v9.6zm140-.1v9.5H307v-19h133v9.5zm15 .1v9.5l-4.2-.3-4.1-.3.1-9c.1-5 .1-9.1.2-9.3 0-.1 1.8-.2 4-.2h4v9.6z"/></svg>