<svg version="1" xmlns="http://www.w3.org/2000/svg" viewBox="0 0 488.000000 488.000000"><path d="M73.2 1.1C53.6 3.6 37.6 12.2 22.7 28 10.2 41.3 3.3 56.1 1 75c-.8 7-1 53.4-.8 173.5l.3 164 2.3 8c8.8 30.7 30.3 52 61 60.8l7.7 2.2 166.4.3c182.8.3 175.7.5 191.7-5.7 28.8-11.2 49.4-37.5 53.4-68.2 1.3-10.5 1.3-324.8-.1-335.9-2.3-18.9-10.8-35.8-24.9-49.4C443.9 11 428.2 3.3 409.8 1 399.9-.2 82.9-.2 73.2 1.1zm347.3 12.8c22.8 7.7 38.7 22.3 47.2 43.1 5.6 13.9 5.4 5.9 5.1 188.3l-.3 168.2-2.4 7c-7.6 22.7-22.3 38.8-43.1 47.2-13.9 5.6-5.9 5.4-188.3 5.1l-168.2-.3-7-2.3c-25.2-8.5-41.8-25.3-49.7-50.2l-2.3-7.5v-341l2.3-7.5c8.7-27.6 29.5-46.4 57.3-51.9 2.4-.5 79.7-.8 173.4-.8l169 .2 7 2.4z"/><path d="M49 233.5V418h67v9h54v-9h136v9h54v-9h75V49H49v184.5zM419 199v134H65V65h354v134zm-.2 177l.2 26H65v-25.8c0-14.2.2-26.1.4-26.3.2-.2 79.8-.3 176.8-.2l176.3.3.3 26z"/><path d="M127.5 82.4C113.1 87 102 98.5 98.1 113c-1.7 6.5-1.1 176.9.7 182 2 6 9.5 16.3 14.8 20.3 2.7 2 7.4 4.7 10.4 6l5.5 2.2 109.5.3c107.3.2 109.6.2 116.1-1.8 9-2.7 17.9-9.4 23-17.2 7.2-11.3 6.9-6.4 6.9-102.5 0-84.8 0-86.5-2.1-92.5-4.3-13-13.8-22.5-26.7-26.9-5.3-1.8-10-1.9-115.1-1.8-85.6 0-110.5.3-113.6 1.3zm226.5 17c4.9 2.6 9.8 7.4 12.3 12.1l2.2 4v174.2l-3 4.8c-4 6.4-10.1 11-16.5 12.4-3.5.8-37.5 1.1-108.4 1.1-113.9 0-109.2.3-117.7-6.3-2.4-1.8-5.4-5.4-6.8-8.2l-2.6-5-.3-83.9c-.2-72.3 0-84.7 1.3-89.1 2-7.1 8.1-13.8 14.8-16.4 5.1-2 7.1-2 113.2-1.8 103.2.2 108.2.3 111.5 2.1zM107.9 356.8c-16.6 10.6-5 37.3 14 32.2 8.2-2.2 13.1-8.8 13.1-17.5 0-13.9-15.2-22.2-27.1-14.7zm16.5 13.1c1.8 6.3-5.3 11.4-10.9 7.7-3.1-2-4-5.1-2.5-8.6 2.5-6.1 11.6-5.4 13.4.9zM319.4 355.9c-11 5-13.8 19-5.6 27.8 7.6 8.3 18.1 8.2 25.8-.2 8.7-9.4 5.7-23-6.3-28.1-4.4-1.9-9-1.7-13.9.5zM332 367c4.2 4.2 1.2 12-4.8 12-4.5 0-7.2-2.6-7.2-6.7 0-2 .7-4.5 1.7-5.5 2.2-2.4 7.7-2.4 10.3.2zM366.4 355.9c-2.3 1-5.4 3.6-7 5.7-2.5 3.3-2.9 4.6-2.9 10.4 0 5.7.4 7.2 2.8 10.3 5 6.6 12.9 9.1 20.2 6.3 8-3.1 13.3-11.9 11.9-19.7-2.2-11.3-14.7-17.9-25-13zM379 367c6.2 6.2-2.5 15.5-9.8 10.4-2.7-1.9-3-7.8-.5-10.6 2.2-2.4 7.7-2.4 10.3.2z"/></svg>