<svg version="1" xmlns="http://www.w3.org/2000/svg" viewBox="0 0 488.000000 488.000000"><path d="M92.5 19.1C59.8 23.9 34.3 47 25.3 80.2c-1.6 5.8-1.8 19.1-2.1 162.3-.2 113.9 0 158.5.8 165.5 4 32.6 26.5 59 58.5 68.6 5.7 1.7 15.1 1.9 168.5 2.2 147.4.2 163.2.1 170-1.4 27.9-6.1 50.2-26.2 59.6-53.6 4.5-13.2 4.5-16.5 4.2-181.3l-.3-156-2.2-7.6c-9.2-32.6-35-55.4-67.6-59.8-9.6-1.3-313.2-1.3-322.2 0zm322 10.3c28.1 4.2 49.1 22.7 57.7 50.8l2.2 7.3.4 147.6c.2 86-.1 154.2-.6 163.5-.9 13.9-1.4 17-4.1 24.4-6.2 17-18.6 30.8-34.6 38.5-16.4 8-5.1 7.5-182.2 7.5-154.6 0-158-.1-166.2-2-25.1-6-45.3-26.2-51.7-51.5-1.6-6.5-1.7-17.4-1.6-167.6L34 87.3l2.3-8C43.9 53 67.5 32.5 94.2 29.1c3.4-.5 74.9-.9 158.8-1 123.5-.1 154.2.2 161.5 1.3z"/><path d="M294 54.8c-4 1.9-7 7.1-7 11.9 0 1.8 4.5 16.8 10 33.4 5.5 16.5 9.7 30.6 9.3 31.2-.6 1.1-4.5 5.4-18.4 20.1l-5.7 6-6.3-4.1c-14-8.8-19.9-12.3-21.1-12.3-.6 0-7.4 2.9-15 6.5s-14 6.5-14.3 6.5c-.2 0-2-5.1-4-11.3-2.1-6.1-5.7-15.5-8-20.8-7.3-16-7.3-18.3-.1-16.7 5.8 1.2 8.6-.1 8.6-4.2 0-3.7-2.8-5.7-9.5-6.5-5.9-.7-11.2 1.5-13.3 5.5-2.4 4.6-.9 13.5 4.1 24.5 8.7 19.4 14.2 38.5 20.7 72.4 5.9 31.1 6.6 37.7 5.3 50.1l-.6 6.2-9.6-.6c-5.3-.4-12.3-.9-15.6-1.2l-6-.6-7.5-12.7c-4.1-6.9-11.8-20-17.2-29-5.3-9-10.4-18.6-11.2-21.5-.8-2.8-3.7-13.9-6.5-24.6-2.7-10.7-6.6-25.4-8.4-32.6-2.4-9.1-3.3-14.5-3-17.5.5-4.2.1-4.9-6-13-8.7-11.5-14.5-15.2-24.2-15.7-5.9-.3-7.4-.1-9.5 1.6l-2.5 2 2.6 2.9c1.4 1.5 4.9 5.3 7.8 8.4 6.7 7.2 9.7 11.3 12.6 17 2.8 5.4 2.4 7.9-1.6 10.3l-2.9 1.7-3.9-8.3c-10-21.7-11.2-23.7-14.9-26.6-5.8-4.6-10-6.4-16.3-6.9-11.4-1.1-21.5 5.1-27.1 16.4-2.7 5.5-3.3 8-3.6 15.2-.5 10.1-1.1 7.9 11.3 43.6 5.3 15.4 10.7 31.1 12 35 1.3 3.8 5.5 16.1 9.4 27.3l7 20.3-13.6-.7c-11.8-.6-13.8-.5-14.8.9-1.4 2-.2 16.7 1.6 17.8.7.4 6.4 1 12.8 1.4 20 1.2 23.6 2.2 8 2.4-7.5 0-17 .4-21.2.7-7.5.7-8.5 1.2-8.8 4.9 0 .5-.6 1.7-1.4 2.5-.7.8-5.4 9.8-10.5 20l-9.3 18.5 2.2 13c1.2 7.1 2.6 15 3.1 17.5s1.4 7.5 2 11.2l1.2 6.7 17.3 11.6C72 378.8 80.2 384 80.7 384s2.5 6 4.3 13.2c4.9 19.5 10.6 36.8 13.5 41l2.6 3.8h31.7c17.4 0 39.5-.3 49.1-.7 15.3-.5 17.5-.8 19.1-2.6 2.9-3 6.9-17 11.5-40.4 2.4-11.8 4.6-21.8 5-22.1 1.8-1.8 9.3-3.8 11.5-3 6.1 2.2 15.1-3.2 17-10.3 1.4-5.3-.3-11.5-4.3-15.6l-3.1-3.3h2.5c1.3 0 14.3 1.5 28.9 3.4 21.3 2.7 27.6 3.8 32 5.8 5.7 2.6 12 4.4 17.8 5.2 1.9.3 3.5.6 3.6.8.3.3 12.7 30.6 25.6 62.3 3.2 7.7 6 15.2 6.3 16.6 1.6 6.3 12 12.9 20.6 12.9 6.8 0 10.2-1.7 17.2-8.9 6.5-6.6 6.9-7.3 6.9-11.5 0-8.8-9.3-15.6-21.2-15.6-7.6 0-12.2 2.4-15 7.9l-1.7 3.4-1-2.4c-.5-1.3-2.1-5.5-3.6-9.2-1.6-3.8-2.4-7.2-1.9-7.6.5-.4 4.3-3.4 8.4-6.7 4.1-3.2 9.5-7.6 11.9-9.6l4.4-3.8H406.6l12.8-13c7-7.1 13.2-13 13.6-13 .8 0 5 10 5 11.8 0 2.5-4.4 8.7-6.8 9.8-1.7.7-3.6 2.7-4.7 5-1.6 3.3-1.6 4.5-.6 8.4 2.5 9.6 11 17.8 19.5 18.7 5.6.7 9.1-1.3 11.2-6.3.8-1.9 2.1-3.4 3-3.4.9 0 2.9-1.3 4.5-2.9 2.4-2.5 2.9-3.7 2.9-8.1 0-8.5-6.7-18.3-14.3-21.1-3.8-1.4-1.7 3.3-20.9-45.4-4.3-11-11.5-27.3-16.1-36.2l-8.2-16.3h-26l-17-12c-9.3-6.5-18-11.9-19.2-12-2.6 0-5.6 4-4.7 6.3.6 1.7 6.5 6.2 25.5 19.6 11.5 7.9 11.8 8.1 17.6 8.1 3.3 0 8.7.3 12 .6l6 .6 5.7 11.5 5.7 11.5-5.3-.7c-8.4-1.1-25.6-5.3-33.5-8.1-5.3-1.9-8.9-4.1-13.8-8.4-6.4-5.6-18.2-12.5-25.5-14.9-6.2-2-11-12-11-23.1 0-3.1 1-9 2.1-13.1 1.7-5.9 2.2-10.9 2.5-24.4.2-9.4.4-17.5.4-18 .1-.6 1.4 3 3 8 2.3 6.9 3 10.9 3 17 0 8.7 1.5 12.5 5.1 12.5 1 0 2.7-.8 3.8-1.9 1.6-1.6 1.8-3 1.3-12.2-.5-10.2-.8-11.3-17.4-61.9-9.3-28.3-19.7-59.4-23-69-4-11.6-6.1-19.2-6.2-22.5l-.1-5 4.5-.1c2.5 0 5.3-.4 6.3-.8 2.5-1.2 2.2-6.1-.5-8-3-2.1-10.5-2-14.8.2zm-170.1 39c4.7 3.8 14.1 15.9 14.1 18.2 0 1.1-1.1 3.1-2.4 4.7l-2.4 2.7-2.5-5c-3.5-6.9-10.5-15.6-11.9-14.8-.7.5-.8.2-.3-.5.4-.8-.7-2.8-3.1-5.3l-3.9-4.1 4.4.6c2.7.3 5.7 1.6 8 3.5zm-32.4.6c8.3 3.9 12.5 10.3 12.5 18.9 0 10.3-8.1 17.9-18.9 17.9-8.6-.1-14.3-6.5-12.6-14.2.7-3.3 6.3-8.6 11.3-10.7 3.3-1.4 3.6-1.3 6.2 1.2 1.6 1.5 3 3.6 3.3 4.6.7 2.6-3.3 5.2-7.4 4.7-4.5-.4-6.3 2.6-3.1 5.2 5.8 4.8 18.6-3.4 16.7-10.8-.9-3.7-6-9.7-9.4-11.2-8.2-3.4-24.1 9-24.1 18.9 0 4 2.4 9.8 5.3 12.9 3.7 3.9 7.8 5.5 14.2 5.5 9.9 0 18.1-4.8 22-12.8.9-1.9 1.8-3.5 2-3.5.3 0 1.6 2.6 3.1 5.7l2.6 5.7-3.4 2.8c-1.8 1.6-5.3 4-7.6 5.5l-4.4 2.6-10.6-1.1c-5.9-.7-12.6-1.2-14.9-1.2-6.3 0-8.8-1.6-11.4-7.3-2-4.1-2.4-6.7-2.4-13.7 0-7.5.4-9.3 3-14.5 6.1-12 16.9-16.3 28-11.1zm48.1 33.6l1 5-3.2 1c-1.8.6-3.8 1.8-4.6 2.7-1.2 1.5-.9 1.6 2.2 1.1 1.9-.4 4.2-.9 5.1-1.3 1.3-.5 1.9.6 3.3 5.7.9 3.5 3.6 13.9 6 23.1l4.4 16.8-2.5 1c-1.3.5-2.7.9-3.1.9-.4 0-1.8.9-3.2 2-2.3 1.8-2.4 2-.5 2 1.2 0 3.7-.9 5.8-1.9 4.1-2.1 4.2-2.1 5.2 2.9.4 1.9 2.6 6.9 5 11.2l4.3 7.6-4.4 1.7c-2.4.9-4.4 2.1-4.4 2.6 0 1.3.6 1.2 5.2-1.1 2.3-1.1 4.3-1.8 4.5-1.7.3.4 10.3 16.9 10.3 17.2 0 .1 3.1 5.3 6.9 11.6 3.8 6.3 6.4 11.7 5.9 12-2 1.2-5.9-.5-7.6-3.3-1-1.7-4-4-7.2-5.6-5-2.5-6.5-2.7-17.5-2.7-9.7 0-12.6.3-15 1.8-11.3 6.7-9.5 6.3-26 5.2l-15-1-2.6-7.5c-1.4-4.1-6-17.4-10.1-29.5-4.2-12.1-7.9-22.7-8.3-23.6-.5-1.3.2-2 2.7-2.8 4.4-1.5 9-5 6.6-5.1-1 0-3.6.7-5.8 1.6-2.4 1-4.5 1.3-4.9.8-.4-.5-3.1-7.8-5.9-16.2L67.1 147l6.7.1c3.7 0 8.5.4 10.7.8l4 .7-5 2.3c-2.8 1.3-4.4 2.5-3.7 2.8 1.9.7 9.9-1.7 11.3-3.3.7-.8 3-1.4 5.6-1.4 5.8 0 10.5-2.4 20.5-10.4 10.4-8.3 20.1-15.5 20.9-15.6.3 0 1 2.2 1.5 5zm173.8 25c4.8 23.1 6.7 38 7.3 56.5.5 17.2.4 18.5-2.2 29-3.7 14.7-3.2 23.6 1.7 33.4 1.8 3.6 3.4 6.9 3.6 7.3.4.8-14.1 9.3-31 18.2-12.3 6.5-12.8 6.7-15.6 5.2-1.5-.8-3.3-2.1-3.9-2.8-.6-.7-5.2-14.1-10.3-29.8-5.1-15.7-13.9-42.9-19.7-60.5-15.3-47-15.5-47.6-15.2-47.9 1.1-.9 25.6-11.9 26.4-11.9.6 0 4.8 2.4 9.5 5.4 4.7 3 11 7 14.1 8.8 4.1 2.4 6.5 4.8 8.9 8.7 2 3.4 3.9 5.4 5.1 5.4 3.2 0 3-1.8-.6-7.5-2-3.1-3.5-6.2-3.3-6.9.2-.8 4.6-6 9.8-11.6 5.2-5.6 9.9-10.9 10.4-11.7 1.4-2.5 2.3-.3 5 12.7zm-225 97c51.7 3.6 148 10 151.4 10 3.4 0 3.9 1.1 2.3 5.2-1 2.8 8.9 3.1-97.1-3.7-48.9-3.2-72.7-5.1-73.2-5.8-.4-.7-.8-2.4-.8-4 0-3.2-1.3-3 17.4-1.7zm169.2 36.8c5 15.6 7.3 21.4 8.6 21.8 1 .3 1.8.9 1.8 1.3 0 1-10.8 6.2-11.3 5.3-2-3.3-10.9-42.3-10.2-44.4 2.1-5.9 2.7-7 3.4-6.2.5.5 3.9 10.5 7.7 22.2zM237.5 274c.8 0 1.5 1.9 2 4.7.3 2.7 2.9 13.5 5.6 24.1 2.7 10.7 4.9 20 4.9 20.8 0 .8-.8 1.7-1.7 2.1-1 .3-5.5 2.2-10.1 4.1-4.5 1.9-8.5 3.2-8.8 3-.5-.6 2.2-47.6 3.2-55.6.4-3.4.9-4.2 2.1-3.8.8.3 2.1.6 2.8.6zm-13 3.7c-.3 2.1-.8 5.3-1.1 7l-.5 3.3H203v-6.4c0-7.5-.6-7.2 13.8-7.5l8.3-.1-.6 3.7zM174 282v7h-23v-6.4c0-7.6-.5-7.3 13.3-7.5l9.7-.1v7zm25.8-.3l-.3 6.8-11.2.3-11.3.3V275h23.1l-.3 6.7zM122 283v7h-13.9l-.6-5.5c-1.1-8.1-.7-8.5 7.5-8.5h7v7zm26-.1v6.9l-11.6-.1-11.7-.2-.4-5.4c-.7-8.3-.9-8.1 12.2-8.1H148v6.9zm197.6 7.6c2.5 1.5 7.1 5 10.1 7.7 3.1 2.8 8.3 6.3 11.7 7.9 6 2.8 24 7.9 27.7 7.9 2.8 0 2.2 1.3-1.4 3.1-1.8.8-11 6.1-20.5 11.8-9.6 5.6-17.5 10.1-17.7 9.9-.1-.1-1.5-4.5-3.1-9.6-2.4-7.9-3.1-9.3-5.2-9.9-3.2-.8-3.9.2-10.9 14.9-3.1 6.5-5.9 11.8-6.3 11.8-.4 0-2.4-4.2-4.5-9.3-2.1-5-4.3-9.7-4.9-10.3-1.1-1.1-4.5-3-22.1-12.4-4.4-2.3-8.4-4.6-8.8-5-.5-.4 4.5-3.6 11-7s16.1-8.9 21.3-12l9.5-5.8 4.7 1.8c2.7 1 6.9 3 9.4 4.5zm-146.4 7c-.2 3.3-.5 7.5-.9 9.2l-.5 3.3H175.5l.3-8.9.3-9 4.2-.4c2.3-.2 7.6-.3 11.6-.3l7.5.1-.2 6zm23.3-4.3c-.5 2.6-2.5 14.9-2.5 16 0 .5-4.3.8-9.6.8h-9.7l.6-6.8c.4-3.7.7-7.9.7-9.5V291h10.5c10.4 0 10.5 0 10 2.2zm-74.5 8.2v9.6h-23v-18.5l11.5-.3 11.5-.4v9.6zm25.3-1.2c-.3 4.6-.6 8.9-.8 9.5-.3 1-3.5 1.3-11.6 1.3-9.7 0-11-.2-10.5-1.6.3-.9.6-5.1.6-9.5V292H173.7l-.4 8.2zm-51.3 1.3v9.2c0 .5-3 .8-6.7.8h-6.8l-.3-9.3-.4-9.2H122v8.5zm97.1 11c.5.4-1.7 17.5-2.3 18-.2.2-4.2.6-8.9 1l-8.6.7.4-7.3c.7-12.3.3-11.8 8.1-12.2 3.7-.2 7.6-.4 8.8-.5 1.1-.1 2.3 0 2.5.3zm-47 10c-.1 4.9-.3 9-.4 9.1-.1.1-4.9.4-10.7.6l-10.5.3-.3-9.2-.3-9.2 7.3-.4c4-.2 9.1-.3 11.2-.3l3.9.1-.2 9zm25.3-1.3c-.3 4.6-.7 8.9-1 9.6-.3.9-3 1.2-11.1 1-9.6-.3-10.8-.5-10.7-2.1.1-.9.2-5.1.3-9.2l.1-7.5h23l-.6 8.2zm-74.6 2.5l.3 9.3h-13.7l-.3-9.3-.2-9.3h6.8l6.8.1.3 9.2zm25-.5l-.3 9.3-10.6.3-10.6.3-.7-8.6c-.4-4.7-.4-9-.1-9.5.4-.6 5.4-1 11.6-1h11.1l-.4 9.2zm148.9 1.5l16.3 8.8 2.5 6.3c1.4 3.4 2.5 6.7 2.5 7.3 0 1.5-10.5.2-14.5-1.8-9.9-4.9-40.3-22.8-39.9-23.5 1.3-2 12.1-6.8 14.4-6.4 1.4.3 9.8 4.4 18.7 9.3zm106.9 2.8c19.3 7.2 20.4 7.7 20.4 9.3 0 1-2 3.8-4.3 6.3s-6.5 7.2-9.4 10.5c-4.9 5.7-5.7 6.2-14 8.6-8.3 2.5-9.4 2.6-19.8 1.8-6-.5-11-.8-11-.7-1.3 2.7-14.9 23.7-15.4 23.7-.3 0-2.3-10.7-4.3-23.8-3.2-21.2-3.4-24-2.2-26.5.8-1.5 1.7-2.7 1.9-2.7.2 0 1.4 3.1 2.6 7 1.4 4.8 2.7 7.1 4 7.5 1.4.5 5.7-1.5 14.2-6.6 6.7-3.9 15.8-9.3 20.2-11.9 4.4-2.7 8.5-4.8 9.1-4.9.7-.1 4.3 1 8 2.4zm-135.3 6.9c6.2 3.6 12.1 7.2 13.2 8.1 1.9 1.5 1.8 1.5-1.5 1.1-1.9-.3-12.9-1.7-24.5-3.1-11.5-1.4-21.4-2.7-22-2.9-1.1-.3 20.4-9.5 22.3-9.6.7 0 6.3 2.9 12.5 6.4zm-72.8 9.1c-.4 4.9-.9 9.2-1.1 9.4-.2.2-4.9.6-10.4.9l-10 .5v-19.2l9.3-.3c5-.2 10-.3 11.1-.3 1.7-.1 1.8.6 1.1 9zm20.5-7.8c0 1-.5 5.3-1.2 9.5l-1.1 7.8h-16l.7-8.6c.3-4.8.9-9 1.2-9.5.3-.5 4.1-.9 8.5-.9 6.9 0 7.9.2 7.9 1.7zm-69 9v9.8l-10.5.2-10.5.3v-18.9l7.8-.4c4.2-.1 8.9-.4 10.5-.5l2.7-.2v9.7zm24.6-5.1c-.3 2.6-.6 6.9-.6 9.5v4.9h-21v-19H172.3l-.7 4.6zm-48.4 5.5c.2 5 .1 9.3-.1 9.5-.2.2-4.4.4-9.3.4-7.3 0-8.8-.3-8.8-1.5 0-1.4 2.5-12.7 3.6-16.3.2-.8 2.6-1.2 7.3-1.2h7l.3 9.1zm47.4 19.3c-.3 3.9-.5 8.1-.6 9.2 0 2-.5 2.2-10 2.3l-10 .2v-19l9.8-.3c5.3-.2 10.1-.1 10.6.1.4.2.6 3.6.2 7.5zm23.1.7c-.3 5-.7 9.3-.9 9.4-.2.2-4.6.5-9.8.6l-9.5.2-.3-6.4c-.2-3.5-.1-7.8.3-9.5l.5-3.2 10.2-.1 10.1-.2-.6 9.2zm19.3-8.4c0 .5-.7 4.7-1.6 9.5l-1.6 8.8h-14.1l.6-6.8c.4-3.7.7-7.9.7-9.5V356h8c4.4 0 8 .3 8 .7zm-89.2 10l.3 9-6.2.7c-10.5 1.1-10.7 1-11.3-2.7-.3-1.7-.8-6-1.1-9.4l-.6-6.2 7.8-.3c4.3-.2 8.5-.3 9.3-.2 1.2.1 1.6 1.9 1.8 9.1zm23.2-.2v9.5H127.3l-.6-8.7c-.3-4.7-.4-9-.1-9.5.3-.4 5-.8 10.5-.8h9.9v9.5zm62 12.7c-.1 2.8-2.5 15.7-3.1 16.2-.2.3-3.1.7-6.3 1l-5.9.5.7-6.1c.3-3.3.6-7.6.6-9.4v-3.3l5.8-.4c3.1-.2 6.3-.4 7-.5.6-.1 1.2.8 1.2 2zm-62.4 17.4c-.3.8-3.2 1.2-9.8 1.1l-9.3-.2-.3-9.2-.3-9.2 9.8-.3 9.8-.3.3 8.4c.2 4.7.1 9-.2 9.7zm23.4-9.2v9.6h-19.7c-.7 0-.7-1.9-.5-12.5l.2-6 10-.3 10-.4v9.6zm22.4-4.7c-.2 2.7-.6 6.8-.7 9.3l-.4 4.5-9.8.3-9.8.3.7-3.2c.3-1.7.6-6 .6-9.5V378h19.8l-.4 4.7zm259.2-2.8c6.5 3.9 10.8 12.7 8.4 17-1.7 3.2-3.3 2.5-6.2-2.9-2.4-4.3-8.6-10.1-12-11.2-.8-.3-.7-1.1.1-2.6 1.5-2.8 5.5-2.9 9.7-.3zm-346.2 8.5c.5 4.8.7 8.8.5 9-.2.2-3.2.6-6.7.9-7 .6-7.2.4-8.8-7.8l-.7-3.8 3.6.7c3.6.7 3.7.7 4.7-3.6 1-3.8 1.4-4.3 3.8-4.2 2.6.1 2.7.2 3.6 8.8zm18.6-3.7c0 3.2.3 7.5.6 9.5l.7 3.8h-16.1l-.7-6.8c-.3-3.7-.8-7.6-1-8.8-.3-1.2-.2-2.4.2-2.8.3-.3 4.2-.6 8.5-.6h7.8v5.7zm66.1 22.8c-.2 4.3-.4 8.6-.5 9.3-.2 1.1-2.3 1.5-8.7 1.6l-8.4.1-.3-9.2-.3-9.2 7.3-.4c12.4-.6 11.4-1.3 10.9 7.8zm14.9-6.8c-.1 1-.9 5.2-1.8 9.3l-1.8 7.5-4.7.3-4.8.3.6-6.3c1.3-13.6.9-12.8 7-12.8 4.6 0 5.5.3 5.5 1.7zm-58 8.8v9.5h-19l-.1-6.3c0-3.4-.3-7.4-.5-8.9-.5-3.1.5-3.4 12.4-3.7l7.2-.1v9.5zm22.4-.3l-.4 9.3-10 .3-10 .3v-8.9c0-4.9.3-9.2.7-9.5.3-.4 5-.7 10.3-.7h9.7l-.3 9.2zm-62-3c.4 2.9.9 7.2 1.2 9.5l.6 4.3h-11l-2.4-8.8c-1.4-4.8-2.3-9-2.1-9.5.2-.4 3.3-.7 6.7-.7h6.3l.7 5.2zm17.6 4.3v9.5h-12.9l-.5-3.3c-.3-1.7-.9-6-1.4-9.5l-.9-6.2H125v9.5zm44.8 17.7l.3 6.8H149v-12.9l5.3-.3c2.8-.2 7.5-.3 10.2-.3h5l.3 6.7zm19.1-3c-.2 8.8-.6 9.3-8.6 9.6l-7.1.3-.7-6c-.4-3.3-.4-6.5 0-7 .3-.6 4.1-1.1 8.6-1.1h7.9l-.1 4.2zm-63.7 2.8c.1 3.3.2 6.4.1 6.8-.2.4-2.9.6-6.1.4l-5.8-.4-.3-4.6c-.1-2.5-.5-5-.8-5.5-1-1.6 2-2.7 7.4-2.7h5.1l.4 6zm20.9-5.6c.2.2.2 3.2.1 6.5l-.4 6.1H128v-13h8.8c4.9 0 9.1.2 9.3.4z"/></svg>