<svg version="1" xmlns="http://www.w3.org/2000/svg" width="649.333" height="800" viewBox="0 0 487.000000 600.000000"><path d="M74.4 1C54.9 3.6 39.9 11.1 25.5 25.5 11.3 39.7 3.5 55.6 1.1 75-.4 86.6-.4 401.3 1 412.8 5.7 449.7 34.7 480 71.1 486c4.2.6 63.4 1 173.2 1 147.6 0 167.7-.2 174.4-1.6 31.7-6.5 56.4-30 65.6-62.2l2.2-7.7.3-166c.2-115.1 0-168.5-.8-174.3-2.5-19.3-9.8-34.7-22.9-48.6C452.5 15.5 438.5 7.2 423 2.9L414.5.5l-167-.1C155.6.3 77.7.6 74.4 1zM422 13.6c3.6 1.2 9.3 3.5 12.7 5.2C456.1 29.2 471.4 50 475 73.7c.7 4.6 1 61.5.8 174.8l-.3 168-2.7 8c-7.9 23-24.8 40.2-47.6 48.3l-7.7 2.7-171 .3c-193.6.3-178.1.9-195.5-8-18.1-9.2-30.1-23.5-37.1-44.3l-2.4-7-.3-168c-.2-113.1.1-170.2.8-174.8 2.5-16.1 9.3-29.3 21.4-41.2 11.2-11 24.5-18 39.1-20.4 2.8-.5 81.1-.8 174-.7l169 .1 6.5 2.1z"/><path d="M188 40.4c-9.4 2.6-17 8.5-21.5 16.7-2.9 5.2-3 5.8-3 18.4 0 12.2.3 13.6 3.5 23 6.5 18.8 23.4 49.6 38.1 69 3.3 4.4 4 6 3.7 9l-.3 3.7-8.5 2.5c-15.7 4.4-23.3 9.4-27.1 17.6-1.8 4-1.9 8.6-1.9 114.9 0 76.7.3 112.3 1.1 116 1.4 6.8 5 13 9.6 16.5 3.3 2.5 4.4 2.8 11.7 2.8 6.4 0 9-.5 12.6-2.3 2.5-1.2 6.1-2.5 8.1-2.8 3.2-.5 4.1-.1 9.3 4.5 7.3 6.3 13.4 8.5 22.4 7.9 7.8-.4 14.8-3.4 19.6-8.4 3.9-4 5.6-4.2 12.7-1 7.6 3.5 13.6 4.1 20.1 2.2 10.1-2.9 16.4-10.8 18.7-23.1.8-4 1.1-28.5 1.1-73.5 0-52.4.3-71.4 1.5-85 1.8-21.2 7.5-93.1 7.5-95.4 0-1.1-.9-1.6-3.2-1.6-7.9 0-7.8.2-7.9-13.9 0-6.9-.4-15.1-.8-18.1-.5-3-.7-5.6-.6-5.8.1-.1 6.2-.9 13.6-1.7 7.4-.8 15-1.8 16.9-2.1l3.5-.6-2.4-1.7c-2-1.3-5.3-1.6-17.9-1.6h-15.5l-2.3-7.8c-5.2-17.4-14.5-32.8-27.9-46.2-16.4-16.4-34.6-26.3-58.5-31.6-9.9-2.2-28.9-2.4-36-.5zm37.5 17.5c10.3 2.7 30.3 12.7 38.2 19.1 13.1 10.5 26.3 29.9 30.7 45.1l1.3 4.6-9.6.7c-5.3.3-13.2.6-17.6.6-8 0-10.3.6-43.7 11.3l-3.7 1.2 5 10.3 4.9 10.4 22.1-.3c21.2-.3 22.2-.4 23-2.4.5-1.1 2.4-6.3 4.2-11.5l3.3-9.5 6.8-.8c3.8-.4 7.1-.6 7.2-.4 1.9 1.8 3.2 33.1 1.5 34.1-.5.3-1.2 3.5-1.6 7.2-.5 5.2-1 6.4-2.2 6-.8-.3-4.7-1.5-8.8-2.7-8.1-2.4-8.5-3-8.5-12.5V164h-56l-9.8-14.8c-16.8-25.2-25.5-42.2-30.8-60.1-5.2-18-1.8-28.8 10.3-32.8 5.5-1.9 24-.9 33.8 1.6zm29.2 131.7c6.8.6 8.2 1 8.6 2.5.4 1.5 1.5 1.9 4.4 1.9 8.5 0 26.4 5.9 31 10.2l2.3 2.1v109.9c0 117.6.1 115.1-4.8 117.7-3.3 1.8-8.3 1.3-14.1-1.5-10.7-4.9-18.6-3.9-25.6 3.4-3.4 3.5-9.1 6.2-13 6.2-3.3 0-5.8-1.3-11.5-6.1-9.3-7.8-17.3-8.8-29.8-3.9-4.2 1.7-8.5 3-9.6 2.8-5.2-.7-5.1 2.1-5.4-114.8-.2-59.7 0-110 .3-111.8.6-3 1.4-3.7 6.8-6.1 5.3-2.4 13.6-4.8 25.9-7.5 1.5-.3 2.9-1.5 3.3-2.5.4-1.3 1.7-2.1 3.8-2.4 5.6-.7 18.9-.7 27.4-.1z"/><path d="M200.7 295.2l.2 32.3 43.6.3 43.5.2v-65h-87.5l.2 32.2zm81.1 0l.2 25.8h-75v-52l37.3.2 37.2.3.3 25.7zM200.8 359.5l-.3 26.5H288v-53h-86.9l-.3 26.5zm80.7.5v19.5l-37.2.3-37.3.2v-40l37.3.2 37.2.3V360z"/></svg>