<svg version="1" xmlns="http://www.w3.org/2000/svg" width="558.667" height="800" viewBox="0 0 419.000000 600.000000"><path d="M65.5.7C40.8 3.8 19.7 18.3 8.7 39.8-.2 57.1.5 43.1.5 210v147.5l2.3 7.5c6.5 20.5 19.8 36.8 37.2 45.3 18.1 8.9 3.5 8.2 169.5 8.2h147l7.9-2.3c13.4-3.9 22.9-9.5 32.7-19.2 7.6-7.5 9.3-10 13.7-19.1 2.8-5.7 5.6-12.9 6.4-15.9 1.9-7.9 1.9-295.8 0-303.9-7.1-30.3-31.9-53.3-61.6-57.1C348.9.1 72.2-.2 65.5.7zm296 10.6c24.2 7 41.8 25.5 46.7 48.8 1.9 9.4 1.9 289.3 0 298.9-4.6 22.7-23.8 42.7-46.7 48.5-5.2 1.3-24.8 1.5-152 1.5-128.1 0-146.8-.2-152-1.5-18.5-4.9-33.4-17-41.5-34-6.9-14.3-6.5-5.1-6.5-164.5 0-134.9.1-145 1.8-151.4 4.9-19.2 20.5-36.8 38.6-43.7 12.7-4.8 10.3-4.8 162.6-4.6 132.8.2 143.4.4 149 2z"/><path d="M230.4 84c-9.5 2.5-18.8 6.8-28.7 13.4-8.2 5.5-25.6 20.3-31.2 26.7-1.6 1.9-6 6.8-9.6 10.9-8.9 10.1-22.3 28.4-31.8 43.3l-7.9 12.2-15.3.5-15.3.5L79.9 217c-12 28.6-38.9 92.8-39.6 94.7-.4 1 4.4 1.3 22.1 1.3h22.7l2.1-4.8c14.5-33.5 27.4-53.8 46.2-73 14.8-15.2 26.7-23 42.1-27.8 8.3-2.5 25.7-2.6 34 0 32.3 9.8 62.3 42.8 85.1 93.6l5.2 11.5H340l7.6-17.4 7.5-17.5-7.2-7-7.1-7.1 15.2-.3 15.2-.3-2.8-3.7c-1.6-2-5.2-6.5-8.1-10-2.9-3.4-5.3-6.7-5.3-7.2 0-.6 2.4-1 5.4-1 11.4 0 10 1.7 21.4-24.8 5.6-13.1 10.2-24.1 10.2-24.5 0-.5-8.6-.7-19-.6l-19.1.3-3.7-7.9c-12.3-26.1-23.3-44.1-37.9-62.2-12.6-15.7-25.6-26.3-40.6-33.3-13.4-6.3-27.5-7.6-41.3-4zm27.7 13.6c26.4 7.9 52.6 37.1 76.4 85.4 2.8 5.8 6.2 13.1 7.5 16.2l2.4 5.8h12.7c7 0 13 .3 13.3.8.2.4-1.5 5.2-3.9 10.7-3.6 8.2-4.8 10.1-6.7 10.3-1.3.1-9.4.8-18 1.5l-15.7 1.2 7.4 9c4.1 4.9 7.5 9.3 7.5 9.7 0 .5-8 .8-17.7.9h-17.8l16.4 15.9 16.4 15.9-3.8 9-3.8 9.1h-21.8l-2-4.8c-6.8-15.8-18.8-36.5-29.2-50.4-9.3-12.5-27.3-30.1-37.8-37-15.1-10.1-27.4-14.5-43.4-15.4-41.7-2.4-82.9 31.2-113.2 92.3L75.7 299h-7.3c-4.1 0-7.4-.2-7.4-.3 0-.2 5.6-13.8 12.5-30.3 6.9-16.4 15.6-37.1 19.2-45.9 3.7-8.8 6.8-16.2 7-16.5.3-.3 7-.7 15-1l14.6-.5 5.4-9c32.3-53.1 68.4-89.2 97.5-97.6 8-2.2 18.8-2.4 25.9-.3z"/><path d="M169.4 228.7c-7.5 10.9-28.5 41.2-31.7 45.8-10.1 14.3-14.7 21.7-14.2 22.5.3.6 2 1.7 3.7 2.6 2.9 1.5 3.1 1.5 4.7-.7.9-1.3 6.3-9.2 12.1-17.6 5.8-8.4 15.2-22.1 21-30.4 5.8-8.4 12.4-17.9 14.7-21.3l4.1-6-3.3-2.3c-1.9-1.3-3.6-2.3-3.9-2.3-.3 0-3.5 4.4-7.2 9.7zM206.3 221.4l-3.3 2.3 5.2 7.4c2.8 4.1 9.2 13.3 14.2 20.6 27.7 40.3 34.1 49.3 35.1 49.3.5-.1 2.3-1.1 3.9-2.4l2.8-2.4-15.7-22.8c-8.7-12.6-18.8-27.2-22.5-32.4-3.7-5.2-8.6-12.3-10.9-15.8-2.3-3.4-4.5-6.2-4.9-6.2-.4.1-2.2 1.1-3.9 2.4zM189 266v45h9v-90h-9v45zM37.2 329.7l.3 6.8h304v-13l-152.3-.3-152.3-.2.3 6.7z"/></svg>