<svg version="1" xmlns="http://www.w3.org/2000/svg" width="696" height="800" viewBox="0 0 522.000000 600.000000"><path d="M110.5 27c-25.1 3.7-47 19.9-58.2 43.1-8.4 17.4-7.8 2.5-7.8 179.4v157l2.8 8.8c3.3 10.5 5.5 15.1 11.4 23.4 8.1 11.3 20.1 21.2 32.2 26.3 16.3 7 3.6 6.5 177.1 6.5 151 0 156.8-.1 164-1.9 14.4-3.7 27.6-11.1 37.5-21.2 9.4-9.6 14.8-18.7 19.6-32.9l2.4-7 .3-156c.3-172.3.6-163.5-6-179.3-4.1-10-13-21.6-21.9-28.8-9.3-7.6-12.9-9.7-21.5-13-14.5-5.5-9.6-5.3-174.4-5.2-83.9 0-154.8.4-157.5.8zm320.9 11c23.8 6.1 42.6 24.9 48.7 48.8 1.8 7.3 1.9 12.6 1.9 162.1 0 135.1-.2 155.4-1.6 161.1-4.4 19-17.8 35.7-35.4 44.3-16.8 8.2-5.6 7.7-177 7.7-169.7 0-160.2.4-175.5-7-14.5-7-27.3-20.3-33.2-34.5-5.5-13.1-5.4-7.9-5.1-175.5.3-171.6-.3-156.6 6.8-171.2 9-18.6 27.2-32.8 47.1-36.7 2.4-.5 74.4-.9 160-1C419.9 36 423.9 36 431.4 38z"/><path d="M123.2 246.2l.3 157.3 14.7.3 14.7.3.3 4.2.3 4.2 17.9.3c9.9.2 19 .1 20.2-.2 1.8-.5 2.3-1.4 2.6-4.6.2-2.2.6-4 1.1-4H345v8.9l18.9.1c10.3 0 19.5-.2 20.5-.6 1.1-.4 1.6-1.8 1.6-4.8v-4.1h27.5v-314l-145.3-.3L123 89l.2 157.2zm275.3-116.7v25l-130.2.3-130.3.2v-51l130.3.2 130.2.3v25zm0 149.5v109.5l-130.2.3-130.3.2-.2-109.6c-.2-60.3-.1-109.8.1-110 .3-.2 59-.3 130.5-.2l130.1.3V279z"/><path d="M317 114.1c-3.8 1.5-8.8 6.8-10.1 10.7-1.9 5.7-.3 11.8 4.1 16.2 4.6 4.6 9.4 5.8 16 4.1 7.3-2 12-8 12-15.6 0-10.8-12.1-19.3-22-15.4zM360 114.5c-7 3.1-11.5 10.8-10.3 18 .7 4.2 5.7 10.3 9.9 12.1 12.2 5.1 25.2-5.6 22.4-18.3-2.2-9.7-13.3-15.6-22-11.8zM251 199.4c-21.2 4.8-40.5 17.6-51.9 34.6-10.3 15.4-14.3 28.7-14.3 47.5 0 11.1.4 14.3 2.7 22 8.5 28.9 31.2 51 60.2 58.5 19.1 4.9 39.5 2.6 57.8-6.5 21.6-10.8 36.9-29.4 43.7-53 3.3-11.6 3.3-32.7-.1-43.5-5.4-17.5-14.8-31.7-27.9-42.2-11.2-9.1-21.2-14-35.2-17.3-7.8-1.8-27-1.8-35-.1zm31.9 14.7c31.6 7.2 54.1 35.1 54.1 66.9 0 22.6-12 44.8-30.7 57.1-39.7 25.9-92.4 5.8-104.9-40.1-2.4-8.7-2.3-24.2 0-33.5 3.3-12.5 9.5-23.3 18.7-32.2 9.6-9.3 16.2-13.1 28.9-16.9 8.3-2.5 25.8-3.2 33.9-1.3z"/><path d="M254.2 228.6c-8.6 2.3-16.2 6.5-22.8 12.7-11.9 11.1-17.5 23.5-17.6 39.3-.1 16.1 4.4 26.9 16.1 38.4 7.9 7.9 16.4 12.9 25.1 14.9 6.9 1.6 21.9 1.3 28.1-.5 26-7.7 42.9-33.3 39.1-59.7-3.1-21.7-19-39.6-40.3-45.2-6.8-1.9-20.8-1.8-27.7.1zm29.7 10.6c25.6 9.5 36.8 39.5 23.6 63.3-21 37.7-77.1 27.3-83.8-15.5-3.4-22.3 12-44.4 34.6-49.5 7.7-1.8 18-1.1 25.6 1.7z"/></svg>