<svg version="1" xmlns="http://www.w3.org/2000/svg" viewBox="0 0 488.000000 488.000000"><path d="M75 1C55.7 3.6 39.3 11.8 25.4 25.7c-10.8 10.8-18 23.2-22.6 39L.6 72.5.3 240.2C-.1 424.7-.2 419.7 6 435.7c6.2 16.2 17.6 30.6 31.3 39.7 10.3 6.8 17.4 10 28.6 12.9l8.6 2.2h170c178.2 0 174.7.1 187.5-4.2 12.8-4.3 24-11.3 34.1-21.4 10.6-10.6 17.8-23.3 22.1-39.1l2.3-8.3v-344l-2.2-8.4c-7.4-27.5-26.5-49-52.7-59.2C420-.1 424.4 0 244.5.1 154.3.2 78 .6 75 1zm349.4 12.3c25.1 7.7 43.3 25 51.7 49.4l3.4 9.8.3 168.5c.2 116.3-.1 170.7-.8 175.5-4.9 31.9-28.9 56.3-61 62.1-11 2-333.9 2-345 0-15.7-2.8-29.4-10-40.4-21.3-10.8-11-16.6-21.9-19.7-36.8-1.8-8.6-1.9-16.7-1.9-174.5 0-106.1.4-167.7 1-171.7C16.1 49 32.4 27.8 55.4 17.6c4.6-2.1 10.9-3.8 21.1-6 1.1-.2 78.5-.3 172-.2 160.3.1 170.3.3 175.9 1.9z"/><path d="M91 48.4c0 .6-9 43.6-9.6 46.3-.6 2.2-.3 2.3 4.5 2.3 4.9 0 5.1.1 5.1 2.8 0 2.2-3.7 6.5-20.5 23.2L50 143.5v57.8l5.5 5.5 5.5 5.5v33.3l-5.5 5.4-5.5 5.4v151.7L62.7 421l12.7 13h90.2l12.7-12.8 12.7-12.9V256l-5.4-5.4-5.4-5.4-.1-16.6-.2-16.6 5.5-5.1 5.5-5.1.1-29.1v-29.2L170.5 123c-16.8-16.8-20.5-21-20.5-23.2 0-2.7.2-2.8 5-2.8 2.8 0 5-.2 5-.4 0-.5-6.2-30.3-8.6-41.4l-1.5-7.2h-29.5c-16.2 0-29.4.2-29.4.4zm47.2 24.1l1.5 7.5H134v29.5l20 20 20 20v45.4l-5.7 5.5-5.6 5.6H78.2l-5.6-5.8-5.6-5.7v-45l20-20 20-20V80h-2.5c-2.9 0-3-.8-1.3-9.2l1.2-5.8h32.3l1.5 7.5zm25.8 146v7.5H77v-15h87v7.5zm0 20v7.5l-42.5.2c-23.4.2-43 .1-43.5 0-.6-.2-1-3.7-1-7.8V231h87v7.5zm4.3 18.3l5.7 5.6v139.1l-7.9 8.2-7.9 8.3H82.9l-7.9-8.3-8-8.2V262.6l5.7-5.9 5.8-5.8 42 .1 42 .1 5.8 5.7zM226.7 88.9c-12.2 16.3-12.1 31.3.4 58 6.7 14.1 9.2 22.9 8.7 29.5-.5 5.7-3.5 12.5-7.4 16.6l-2.4 2.6 6 5.9 5.9 5.8 2.1-2.4c10.1-11.8 13.8-23 11.9-36.7-.7-5.7-2.6-11.4-7.1-21.7-8.5-19.4-10.7-26.2-10.8-32 0-5.4 2.4-11.5 6.4-16.8l2.5-3.3-5.8-5.8-5.8-5.8-4.6 6.1zM270.7 88.9c-6.6 8.9-9 15.8-8.9 25.6 0 9.6 2.1 16.6 9.7 33.5 6.5 14.3 8.5 20.8 8.5 26.9 0 5-2.6 11.6-6.6 16.8-1.3 1.7-2.4 3.5-2.4 4 0 .4 2.5 3.2 5.4 6.1l5.3 5.4 3.7-4.4c8.5-9.8 12.5-22.7 10.6-34.4-1.3-7.8-3.5-14.3-9.8-27.9-8.8-19.4-10.1-27-5.8-36.1 1.3-2.8 2.9-5.5 3.5-5.8.6-.4 1.5-1.5 2-2.5.8-1.4-.1-2.9-4.9-7.6l-5.8-5.8-4.5 6.2zM317.4 85.2c-8.1 9-11.7 17.8-11.6 28.8 0 9.5 2 17.1 7.9 29.9 1.9 4.2 4.9 11 6.5 15.1 5.5 13.4 4.2 25.6-3.8 34l-2.4 2.6 6 5.9 5.9 5.9 2.3-2.9c14.3-17.7 15.7-33.3 5.1-57-12.1-27.2-13.4-33.3-9-42.6 1.4-3 3.4-6.6 4.3-8.1l1.8-2.7-5.5-5.6-5.5-5.6-2 2.3z"/><path d="M204 244v8h162.3l-.7 14.2c-3 61.8-13.7 108-31.8 136.7-5.3 8.4-10.8 15.2-12.2 15-.6-.1-27.8-.1-60.4 0l-59.3.1-8.1 8-8.2 8h144l5-5.3c26.5-27.5 42.4-78 46.9-148.9l.7-10.6 5.7-1c3.1-.5 14.3-2.3 24.9-3.8l19.2-2.9V236H204v8z"/></svg>