<svg version="1" xmlns="http://www.w3.org/2000/svg" viewBox="0 0 488.000000 488.000000"><path d="M73 1.1c-16.7 2.1-32.8 10-45.7 22.2C11.4 38.4 3.6 53.8 1 75.1c-.8 6.8-1 54.1-.8 173.4l.3 164 2.3 8c9.5 33.8 36.3 57.7 70 62.5 5.4.8 56.8 1 174.2.8 186.4-.4 170.6.2 187.5-7.7 26.4-12.4 44.4-36.7 48.4-65.5 1.5-10.6 1.5-324.7 0-336.6-2.3-18.9-10.8-35.8-24.9-49.4C443.9 11 428.2 3.3 409.8 1c-10-1.2-327-1.2-336.8.1zm347.5 12.8c22.8 7.7 38.7 22.3 47.2 43.1 5.6 13.9 5.4 5.9 5.1 188.3l-.3 168.2-2.3 7c-8.5 25.1-26.2 42.7-50.7 50.2-5.7 1.7-14.2 1.8-177.5 1.8-163 0-171.8-.1-177.4-1.8-25-7.7-43-25.7-50.8-50.7l-2.3-7.5v-341l2.3-7.5c8.7-27.6 29.5-46.4 57.3-51.9 2.4-.5 79.7-.8 173.4-.8l169 .2 7 2.4z"/><path d="M366.5 121.5c-14.1 3.1-23.8 8.5-34.5 19.5-8.7 8.8-14.1 18.4-16.8 29.7l-1.7 7.2-31.3.3-31.2.3V150h33v-16h-83v16h33v28H125.3l-9.4-4c-5.2-2.3-10.7-4.7-12.4-5.5-1.6-.7-6.4-2.7-10.5-4.4-4.1-1.6-18.7-7.7-32.5-13.5-13.7-5.7-25.1-10.4-25.2-10.3-.1.1 1.4 7.4 3.2 16.2 1.8 8.8 3.8 18.5 4.5 21.6 1 5.2 1.6 6 6.8 10.1 3.1 2.5 15.6 12.3 27.7 21.8 12.1 9.6 27.6 21.7 34.5 27.1 6.9 5.3 13.2 10.5 14.1 11.5.9 1.1 2.5 7.2 3.7 14.9 4.2 25.1 16.2 96 16.7 98.3l.5 2.2 96.2-.2 96.1-.3 2.7-10c8.6-31.4 26.2-95.4 27-98l1-3h10.2c18.6-.1 32.1-5.8 45.9-19.5 6.9-6.9 9.3-10.1 12.7-17 9.4-19.5 9.4-39.4 0-59-5.7-11.9-17.7-23.8-29.8-29.7-13.8-6.8-28.8-8.8-42.5-5.8zm29 17.7c8 2.7 13.3 5.9 18.9 11.6 12.5 12.7 17.6 28.9 14.2 44.9-4.9 23.7-22.1 38.7-46.7 40.9-6.2.6-6.9.5-6.9-1.1 0-1 3.4-14.1 7.5-29.1 4.1-15 7.5-27.5 7.5-27.8 0-.3-13.5-.6-30-.6s-30-.1-30-.3c0-.2.7-2.8 1.6-5.8 2.1-7.1 5.7-13.2 11.3-19.3 13.8-14.7 33.6-19.8 52.6-13.4zM96.9 183.4c11.3 4.8 20.6 8.7 20.7 8.9.6.6 5.4 31.1 4.9 31.5-.2.3-3-1.5-6.1-3.9-3.1-2.4-9.2-7.1-13.4-10.4-34.2-26.4-43.6-34.4-44.7-37.9-.6-1.9-.9-3.7-.6-3.9.4-.5 5.8 1.6 39.2 15.7zm271.1 13c0 .7-7.9 30.1-17.6 65.2-22 80.4-23.4 85.3-23.4 85.9 0 .3-37.5.4-83.2.3l-83.3-.3-8.6-51.5c-11.1-65.8-12.7-75.2-15-88-1-5.8-1.9-11.2-1.9-12 0-1.3 13.5-1.5 116.5-1.2 97.9.2 116.5.4 116.5 1.6z"/></svg>