<svg version="1" xmlns="http://www.w3.org/2000/svg" width="634.667" height="800" viewBox="0 0 476.000000 600.000000"><path d="M72 1.2C56.6 3.4 40.2 11.5 27.8 22.9c-10.6 9.8-18.4 22.5-23 37.3l-2.3 7.3-.3 167.3C2 398.9 2 402.3 4 410.5c7.3 30.9 31 54.6 61.4 61.5 9 2.1 10.3 2.1 176.6 1.8l167.5-.3 7-2.4c14.9-5 24.6-11 35.5-22 13-13.1 20.5-28.7 23-47.6.8-5.4 1-60.3.8-170-.4-161.3-.4-162-2.5-169.2-8.5-29.1-28.9-49.9-57.8-59l-9-2.8-164-.1C145.2.3 75.9.6 72 1.2zm343.5 13.1c11.5 4 21 10 29 18.1 8.2 8.4 13.5 17 17.3 28.1l2.7 8v338l-2.7 7.7c-6.4 18-20.2 34-36.1 41.8-16.7 8.2-.4 7.5-182.7 7.8-110.2.2-164.7-.1-169.4-.8-29.4-4.5-52.1-25.5-59.7-55.1-1.2-4.5-1.4-32.7-1.4-170.9 0-156 .1-165.9 1.8-172 7.1-25.9 26.6-45.4 52.1-52 6.8-1.8 14.3-1.8 174.1-1.7l167 .2 8 2.8z"/><path d="M97 111.7v24l-4.2 1.2c-4.9 1.5-26 9.3-30 11.2l-2.8 1.2v119.9c0 65.9.2 119.8.5 119.8s6.9-2.5 14.7-5.6c38.1-14.9 67.6-20 101.1-17.6 23.3 1.7 25.6 2.3 43.9 11.2 9 4.4 16.8 8 17.5 8 .6 0 8.5-3.6 17.5-7.9 15.2-7.4 17-8 27.3-9.5 42.8-6.1 79.9-.7 125.3 18 4.5 1.9 8.4 3.4 8.7 3.4.3 0 .4-54.1.3-120.2l-.3-120.2-12.5-4.8c-6.9-2.6-14.9-5.6-17.7-6.5l-5.3-1.7V87.8l-14.7.6c-51 2.4-87.3 13.9-118.8 37.7-4.3 3.2-8.3 5.9-8.8 5.9s-3.4-1.9-6.5-4.3c-10.6-7.9-20.6-14-32.7-19.8-26.1-12.4-50-17.7-88.2-19.4L97 87.8v23.9zm48.5-4.2c29.7 5.1 58 17.3 78.7 34l6.3 5.1.3 95.7c.1 52.6 0 95.7-.3 95.7-.2 0-4.1-2.5-8.7-5.5-28.5-19-64-29.9-103.8-31.7-3-.2-5.4-.6-5.2-1.1.1-.4.2-44.5.2-98v-97.2l11.7.7c6.5.4 15.8 1.5 20.8 2.3zM365 202.9v97.8l-11.3.6c-21.2 1.1-44.1 5.7-60.9 12.2-15.2 5.9-25.2 11.2-43.5 23.3l-2.3 1.4v-192l7.8-5.9c20-15.3 44.4-26.3 68.7-31.2 13.2-2.6 38.3-5.3 40.8-4.3.4.2.7 44.3.7 98.1zM110.3 316.4c49.1 2.5 76 10.8 108.6 33.4 5.2 3.6 9 6.7 8.3 7-.6.2-5.5-.6-10.9-1.7-19.1-3.9-34.1-5.4-54.8-5.4-27.3 0-47.4 3.3-72.5 11.8-5.8 2-10.9 3.7-11.5 3.8-.7.1-1-34.6-1-102.7V159.7l10-3.8 10-3.8.3 81.8.2 81.8 13.3.7zM400 159.5c.6.4 1 38.4 1 103.4v102.7l-11.7-3.9c-26.9-8.9-46.3-12-73.8-12-19.6 0-35.9 1.6-54.4 5.4-5.1 1-9.8 1.9-10.5 1.9-1.6-.1 3.7-4.4 13.9-11.2 28.4-19 57.5-27.3 102.8-29.4l13.7-.6V152.2l9 3.4c5 1.8 9.5 3.6 10 3.9z"/><path d="M133.9 129.2c-2.5 2.1-2.9 4.5-1.1 6.7 1.3 1.5 4.2 2.4 11.7 3.6 11.8 1.8 29.4 6.4 38.4 9.9 3.4 1.4 11.4 5.2 17.7 8.6 6.3 3.3 12 6 12.7 6 2.5 0 5-3.7 4.3-6.4-.7-2.7-5-5.5-18.7-12.2-21.3-10.5-60.2-20.2-65-16.2zM134.4 151.8c-2.1 1.3-3.2 4.7-2.3 6.9.9 2.4 2.1 2.9 9.9 3.8 20.2 2.5 47.6 11.7 64.1 21.7 5.3 3.2 8.6 3.5 10.5 1 2.3-2.9 1.6-5.1-2.6-8.1-5.9-4.3-23.2-12.4-35-16.6-14.2-4.9-42.2-10.4-44.6-8.7zM133.2 176.2c-1.9 1.9-1.5 6.6.6 7.7 1 .6 6.3 1.7 11.8 2.6 11.4 1.8 25.1 5.4 34.9 9 6.3 2.4 25.8 11.8 30.3 14.6 1.6 1 2.5 1 4.6-.4 6.1-4 2.3-8.3-14.8-16.7-14.6-7.2-29.3-12.1-45.9-15.5-13.7-2.8-19.7-3.1-21.5-1.3zM133.8 199.1c-2.2 1.2-2.4 6.2-.3 7.9.8.7 5.7 1.9 10.8 2.6 20.1 3 43.3 10.8 58.9 19.9 9 5.2 12.3 5.7 14 2 1.9-4.1-.4-6.6-11.2-12.3-18.4-9.8-37.9-16.3-59-19.8-10.1-1.6-11-1.6-13.2-.3zM134 222.7c-2.9 2-2.7 7.1.3 8.3 1.2.5 7.6 1.8 14.2 2.9 17 2.9 35 8.9 51.1 17.1 14.5 7.5 16.7 7.8 18 2.4 1-3.8-1.5-5.7-17-13.4-15.6-7.6-27.5-11.8-42.2-14.9-16-3.4-22.1-4-24.4-2.4zM133.8 246c-2.1 1.3-2.4 6.3-.5 7.8.7.6 4.7 1.6 8.8 2.3 23.5 3.5 47.6 11.8 64 21.9 5.8 3.5 7.9 3.7 10.4 1 3.3-3.6 1.1-6.6-8.5-11.9-16.1-8.8-33.6-15.4-51-19-12.8-2.6-21.1-3.4-23.2-2.1zM134.2 269.6c-3 2.1-3 6.7.1 8.1 1.2.6 5.8 1.7 10.2 2.3 21.7 3.1 42.2 10.2 61.5 21.4 5.3 3 8.7 3.3 10.6.8 3.4-4.5.9-7.1-14.2-14.6-20.5-10.3-35-14.7-62.9-19.1-1.9-.3-3.9.1-5.3 1.1zM327.5 129.6c-19 3.4-38 9.9-54.5 18.6-10.6 5.6-12.6 7-13.3 9.9-.6 2.3 2.4 5.9 4.8 5.9.9 0 3.4-1.2 5.8-2.7 7.7-4.9 24.8-12.3 36-15.7 10.6-3.2 15.1-4.2 31.2-6.9 6.2-1.1 7.1-1.5 7.9-3.9.8-2.2.6-3.2-.9-4.8-2.1-2.4-5.5-2.5-17-.4zM328.5 152.9c-11.1 2-27.5 6.2-32.9 8.5l-3.6 1.5v17c0 9.4.1 17.1.3 17.1.1 0 4.1-1.3 8.9-3 12.5-4.2 19.3-5.8 32.6-7.8l11.7-1.8.3-16.7.2-16.7-3.7.1c-2.1 0-8.3.9-13.8 1.8zM270.6 172.8c-10.6 5.7-12.6 8-10.2 11.7 1 1.5 2.6 2.5 4 2.5 2 0 9.8-3.9 19.4-9.7 3.9-2.4 2-9.3-2.6-9.3-.9 0-5.7 2.2-10.6 4.8zM272.5 195.1c-12.5 6.4-16.1 11.7-10 14.9 2 1.1 3.3.7 11.1-3.5 10.8-5.8 12.4-7.1 12.4-10.1 0-1.9-3.2-5.4-5-5.4-.3 0-4.1 1.9-8.5 4.1zM327.5 200c-22.4 4-42.2 11-59.7 21.2-8.1 4.6-9.6 6.9-7.3 10.4 1.7 2.7 5 3.1 8 1 3.6-2.5 20.3-10.6 27.1-13.2 11.2-4.2 23.3-7.4 35.9-9.4 11.9-2 14.5-3.2 14.5-6.7 0-2.1-3.8-5.3-6.2-5.2-1.3 0-6.8.9-12.3 1.9zM336.5 221.7c-17.3 2.3-41.4 9.3-55.8 16.2-18.3 8.7-23.1 12.7-20.7 17 1.7 3.2 4.7 3.1 11.3-.5 19.7-10.7 34.4-16.1 55.2-20 15.6-2.9 18.9-4.1 19.3-6.9.6-4.1-3.4-6.6-9.3-5.8zM330.5 246.1c-22.7 3.3-63.4 18.8-69.4 26.5-2.4 3-1.7 6.2 1.6 7.7 2 .9 3.1.8 5.7-.7 21-12.3 41-19.4 64.9-23.2 10.2-1.6 12.6-2.9 12.7-6.5 0-2.5-3.3-4.9-6.6-4.8-1.6.1-5.6.5-8.9 1zM328.5 270c-24.5 4.4-49.2 13.5-64.6 23.7-4.6 3-5.4 4.9-3.4 7.9 2 3.1 5.5 3.1 10.3 0 15.7-9.9 45.4-20 65.1-22.1 9.1-1 12.6-5 8.1-9.5-2.4-2.4-2.6-2.4-15.5 0z"/></svg>