<svg version="1" xmlns="http://www.w3.org/2000/svg" width="648" height="800" viewBox="0 0 486.000000 600.000000"><path d="M77 .6C58.4 3.5 49.9 6.7 37.2 15.3 19.8 27.2 7.2 45.8 2.3 66.8.6 74.1.5 83.7.5 244c0 159.3.1 169.9 1.8 176 4.4 16.2 11 28.5 20.9 39.1 13.1 13.9 30.2 23 49 25.9 5.3.8 52.9 1 175.3.8l168-.4 7.9-2.2c25.2-7.3 47.3-27 56-49.9 6.6-17.5 6.1-2.1 6.1-189.3 0-160.3-.1-169.9-1.8-177.2-7.5-32-30.5-55.5-63.3-64.5C415 .8 399 .6 247 .4 154.9.3 78.4.4 77 .6zm338.7 12c15.2 3.1 27.7 10 38.4 21.1 11 11.4 17.5 24.6 19.9 39.9.7 4.7 1 60.5.8 173.9-.3 156.9-.4 167.4-2.1 173-3.5 11.9-9.7 22.9-18.2 32.4-6.2 7-20 15.3-32 19.5-6 2.1-6.8 2.1-176.2 2.4-189.3.3-177.1.7-192.5-6.6-19.8-9.3-32.6-24-39.9-45.7l-2.4-7-.3-167.5c-.2-113.8.1-169.7.8-174.4 3.7-24 19.3-45.1 41-55.4 5.8-2.7 14.1-5.3 21-6.5 1.4-.2 77.1-.5 168.3-.6 147.1-.1 166.6.1 173.4 1.5z"/><path d="M235 54.5V73h16V36h-16v18.5zM138.6 96.7l-5.9 5.5 12.9 12.9 12.9 12.9 5.2-5.2c2.9-2.9 5.3-5.7 5.3-6.3 0-.5-5.6-6.5-12.3-13.2l-12.2-12.2-5.9 5.6zM209.5 92.7c-4.6 2.4-7.6 5.4-9.6 9.8-1.7 3.7-1.9 7.5-2 48 0 24.2-.4 45.1-.8 46.5-.4 1.4-1.6 2.7-2.9 3-3.5.8-8.7 6.5-10 10.8-.7 2.4-1.2 11.5-1.2 23.4 0 18.1.1 19.7 2.3 23.8 1.2 2.5 3.6 5.4 5.3 6.5l3.2 2 .3 12.7c.4 12.2.5 12.8 3.4 17 1.7 2.3 4.5 5.2 6.3 6.3 1.7 1.1 3.1 2.7 3.2 3.6 0 .9 1 2.8 2.3 4.3 2.3 2.6 2.7 2.7 28.5 5.1 35.6 3.3 35.7 3.3 38.8.4 2.2-2 2.5-3 2.1-6.6-.4-4.1-.3-4.2 4.3-7.1 7.2-4.5 9-9.2 9.4-23.7.3-10.8.5-11.9 2.4-12.9 3-1.6 7-7.3 8.2-11.6 1.6-5.8 1.3-36.8-.5-42.7-1.5-5.2-7-11.3-10-11.3-3.2 0-3.5-3.8-3.5-47 0-28.2-.4-44.6-1.1-47.5-1.3-5.1-6.5-11-11.5-13.1-8.2-3.4-19.3-.1-24.4 7.3l-2.5 3.6-.5 39.3c-.5 36.7-.6 39.3-2.4 41.3-1.1 1.2-2.7 2.1-3.7 2.1-4.1 0-4.4-2.8-4.9-43.2l-.5-38.6-3-4.4c-4.2-5.9-9.6-8.8-16.5-8.7-3 0-6.8.7-8.5 1.6zm15 11.4c1.9 1.9 2 3.6 2.5 40.7l.5 38.7 2.7 4.6c5.5 9.3 14.4 11.5 21.8 5.2 6.5-5.4 6.4-4.9 7-47.5l.5-38.8 2.8-2.7c3.5-3.5 9.7-3.7 13-.4 2.2 2.1 2.2 2.7 2.7 48.4.5 42.6.6 46.5 2.4 50 1.9 3.9 5.9 7.7 8.2 7.7.7 0 2 1 2.8 2.2 1.3 1.8 1.6 5.6 1.6 20.5 0 11.7-.4 19.1-1.2 20.8l-1.1 2.5h-94.6l-1.3-2.3c-.9-1.5-1.4-7.6-1.6-18.7-.4-19.1.6-23.9 5.2-25.1 3.9-1.1 5.6-2.8 8-7.9 2-4.3 2.1-6.3 2.4-48.5.1-24.2.4-45 .7-46.3 1.3-5.6 10.4-7.5 15-3.1zM281 278c0 10.4-.1 11.2-2.5 13.5l-2.4 2.5h-65.9l-2.6-3.1c-2.4-2.9-2.6-3.7-2.6-13.5V267h76v11z"/><path d="M219 215.5v5.5l24.2-.2 24.2-.3.1-5v-5l-24.2-.3-24.3-.2v5.5zM329.5 104l-13 13 5.8 5.7 5.7 5.8 13-13 13-13-5.8-5.8-5.7-5.7-13 13zM100 174.5v8.5h36v-17h-36v8.5zM350 174.5v8.5h37v-17h-37v8.5zM146.1 233.4c-6.8 6.7-12.4 12.6-12.4 13 .1 1.1 9.3 10.6 10.3 10.6.9 0 25-24 25-24.9 0-.4-2.4-3-5.3-5.9l-5.2-5.2-12.4 12.4zM322.5 226.5l-5.8 5.7 12.9 12.9 12.9 12.9 5.8-5.8 5.7-5.7-12.8-12.8-12.9-12.8-5.8 5.6zM209.6 320.1c-3.3 3.9-3.3 6.1.2 9.9l2.7 3 27.2 2.5c15 1.4 29 2.5 31.1 2.5 7.5 0 11-8.3 5.7-13.5-1.3-1.4-3-2.5-3.8-2.5-.8 0-13.3-1.1-27.8-2.5-33.6-3.2-32.1-3.2-35.3.6zM210.9 338.3c-2 1.5-3.9 5.1-3.9 7.2 0 2.9 5.5 7.5 8.9 7.5 2.5 0 3.4.6 4.2 2.7 4 10.7 22.7 15.5 36.4 9.4 2.6-1.2 5.8-3.2 7.1-4.6 1.7-1.9 3.3-2.5 6.4-2.5 7.9 0 12.1-8.7 6.7-13.8-2-1.9-5-2.4-29-4.7-30.1-2.8-34.5-3-36.8-1.2zM49.3 382.2l.2 6.3-5.3.5c-4.1.4-5.8 1.1-7.3 3-4.2 5.6-.4 12 7.7 12.9 4 .5 4.9.9 4.9 2.6 0 1.7-.8 2-4.7 2.3-3.8.2-5.2.9-7.3 3.3-5 6.1-2 12 6.7 12.9l5.3.5v12l193.8.3 193.7.2v-12h4.3c7.4 0 11.4-5.8 8.3-11.9-1.6-3-3.2-3.8-9.1-4.3-2.2-.2-3.1-.9-3.3-2.6-.3-2 .1-2.2 3.8-2.2 7.1 0 11.9-6.6 8.9-12.2-1.2-2.3-6.6-4.8-10.4-4.8-2.4 0-2.5-.2-2.5-6.5V376H49.2l.1 6.2zM78 407.5V428H60v-41h18v20.5zm314 0V428l-148.6-.2-148.5-.3v-19.8c0-10.8 0-19.9.1-20.2 0-.3 66.8-.5 148.5-.5H392v20.5zm34.2 0l-.1 20-9 .3-9.1.3v-41.2l9.1.3 9.1.3v20z"/></svg>