<svg version="1" xmlns="http://www.w3.org/2000/svg" width="648" height="800" viewBox="0 0 486.000000 600.000000"><path d="M77 .6c-22.5 3.5-35.8 9.6-49.9 22.8C12.5 37.2 3.7 54.6 1 75c-.8 6-1 57.5-.8 174l.3 165.5 2.8 8.9c5.1 16.2 10.9 26 22.2 37.2 11.6 11.5 24.4 18.7 39.8 22.4 8 1.9 12.5 2 176.9 2 182.8 0 176 .2 189.8-5.4 26.2-10.7 44.5-32 51.7-60.2 1.7-6.5 1.8-17.9 1.8-176.4 0-163.7-.1-169.8-1.9-177-5.2-20.5-16-36.7-33.2-49.8-3.8-2.9-14.4-8.5-21-11.1C417.4.4 426 .6 247 .4 154.9.3 78.4.4 77 .6zm338.8 12c18.9 3.9 35.7 14.9 46.2 30.4 4.9 7.3 6.4 10.3 9.7 19.7l2.8 7.8.3 168.5c.2 151.7.1 169.3-1.3 176.5-6.1 30.2-30.6 53.4-61.5 58.4-4.4.7-60 1.1-168.6 1.1-176 0-171.9.1-185.6-5.4-18.5-7.5-33.5-22.4-41.5-41.1-5.6-13-5.4-6.5-5.1-189 .3-158.7.4-168.3 2.2-174 8.7-29 30.8-48.6 60.6-53.8 1.4-.2 77.1-.5 168.3-.6 148-.1 166.6.1 173.5 1.5z"/><path d="M229 112.7c-1.9.2-7.9 1.3-13.4 2.4-25.4 5.3-47.2 17.3-66.4 36.8-17.1 17.3-28.8 39.2-34.3 64.1-3 13.5-3.3 37.7-.6 51.2 10.6 53.1 50.7 93.1 104.7 104.4 12.7 2.6 36.3 2.4 49.7-.5 53.5-11.3 93.8-52.7 103.4-106.1 2.3-12.4 1.8-36.5-1-49-7.9-36.1-29.6-66.5-60.8-85.2-24.1-14.5-53.4-21-81.3-18.1zm34.6 34.9c33.7 6.9 62.1 33.1 72.7 66.9 14.4 45.9-8.5 96.6-52.8 117.1-13.5 6.2-22 7.9-40.5 7.9-14.1 0-17.7-.3-24.9-2.3-17.7-4.8-32.4-13.5-44.8-26.6-18.5-19.3-27.4-40.7-27.6-66.6-.1-17.8 2.5-29.5 10-44.5 15.2-30.3 44.2-50.4 77.8-53.9 6.9-.7 21.9.3 30.1 2z"/><path d="M206 243v58h24v-48h13.3c15.6 0 20.4-1.2 27-7 6.4-5.6 9-12.2 9.5-24.1.9-19.3-4.6-30-17.9-35-4.3-1.7-7.9-1.9-30.4-1.9H206v58zm42.3-39.6c4.5 1.8 6.8 5.8 7.4 12.7.7 7.2-1.5 13.7-5.8 17.4-2.7 2.2-3.9 2.5-11.5 2.5H230v-34h7.5c4.2 0 9 .6 10.8 1.4zM70.6 157.7c-19.6 39-25 88.5-14.2 131.2 3.3 12.7 7.9 25.7 12.8 35.8l4 8.3h39l-1.8-2.8c-34.1-51.3-34.8-120.3-1.8-172l3.4-5.2H73l-2.4 4.7zM375 153.6c0 .4 1.5 3.2 3.4 6.3 22.8 37.8 29.1 81.4 18.1 124.1-3.6 14.1-12.1 32.9-20.9 46.2l-1.8 2.8h39.1l4.2-8.8c8.3-17.7 14.6-40 17-60.2 1.6-14.4.6-43.4-2.1-56.4-3.6-18-7.6-30.3-15.5-47.4l-3.4-7.2H394c-10.4 0-19 .3-19 .6z"/></svg>