<svg version="1" xmlns="http://www.w3.org/2000/svg" width="566.667" height="800" viewBox="0 0 425.000000 600.000000"><path d="M63 1c-8.5 1.1-13.8 2.8-23 7.3-7 3.4-10.2 5.8-18 13.7-7.8 7.8-10.3 11-13.7 18C-.2 57.2.5 43 .5 208.5.5 347.7.6 355.8 2.3 362c7.2 25.7 26.4 45.1 52.2 52.7 5.6 1.7 15.7 1.8 150.5 2.1 123 .2 145.6 0 152.1-1.2 26.6-5 47.1-22.8 56.1-48.6l3.3-9.5v-297l-2.3-7.5c-7.8-24.8-25.7-42.7-50.2-50.2L356.5.5l-144-.1C133.3.3 66 .6 63 1zm289.6 9.1c21.6 3 39.6 16 49 35.6 6.7 13.9 6.5 7.4 6.2 166.8-.3 143.8-.3 144-2.4 150.2-3.6 10.2-9.2 19.3-16.8 26.8-7.6 7.5-14.9 11.8-26.1 15.6l-7 2.4h-294l-8.1-2.7c-18.7-6.4-34.3-21.5-40.4-39.3C9 354 8.9 348.4 9.2 203c.3-132.1.5-140.9 2.2-146.5 3.7-12.3 7.5-18.5 17-28.1 11.1-11 18.9-15.3 33.1-17.9 9.2-1.7 279-2.1 291.1-.4z"/><path d="M198.9 41.5c-6 1.9-14.1 9.5-17.1 16l-2.3 5-.3 105.2-.3 105.2-4.9 3.5c-16 11.5-24.9 34.9-20.8 54.7 5.5 26.6 25.9 44.4 52.3 45.7 16.9.8 30.5-4.1 42-15.3 22.2-21.6 23.4-56.3 2.7-78.6-2.9-3.2-6.9-6.8-8.8-7.9l-3.4-2.2V169c0-116.9.4-110-7.6-118.9-5.7-6.3-12.2-9.5-20.4-9.8-3.7-.1-8.5.4-11.1 1.2zm23.2 15.4l2.9 2.9v226.9l4.9 3.2c10 6.4 15.2 15.9 15.9 28.6.7 12.4-2.8 21.5-11.4 29.7-18.5 17.6-49.2 11.4-60.2-12-2.3-4.9-2.7-7-2.7-15.2 0-8.6.3-10.1 3.1-16 1.7-3.6 5.1-8.5 7.5-10.9 4.3-4.3 14.7-10.1 18.1-10.1 4.5 0 4.8-.7 4.8-12.1V261h-14v-15h14v-19h-14v-15h14v-18h-14v-15h14v-17.9l-6.7-.3-6.8-.3v-15l6.8-.3 6.7-.3V127h-14v-15h14V94.1l-6.7-.3-6.8-.3-.3-7.2-.3-7.2 6.8-.3 6.8-.3.6-9c.7-10.5 1.2-12.1 4.8-14 4.4-2.4 8.9-1.9 12.2 1.4z"/></svg>