<svg version="1" xmlns="http://www.w3.org/2000/svg" width="1066.667" height="270.667" viewBox="0 0 800.000000 203.000000"><path d="M27.5 1.4C17.8 3.8 8.6 11 4.1 19.7c-4 8-4.2 12.8-3.9 85.8l.3 70 2.7 5.7c5.1 10.9 14.2 18.2 25.6 20.7 6.7 1.4 137.5 1.6 145 .1 11.6-2.2 21.2-9.4 26-19.8l2.7-5.7v-151l-3.5-6.4c-3.9-7.2-10.8-13.4-18.7-16.6-4.6-1.9-7.5-2-76.3-2.2C50.1.2 31.3.4 27.5 1.4zM179 5.9c7.5 2.9 13.4 8.1 16.9 15.3 4.3 8.6 4.2 9.3-2.6 11.8-13.6 5.1-15.3 6.1-15.3 8.9 0 5.3-3.1 13.2-6.8 17.3-4.1 4.6-15.8 10.6-30.7 15.7-10.3 3.6-13.7 6.4-22.1 18.4-3 4.3-6.6 8.3-7.9 8.9-5.1 2.3-11.5-1.8-11.5-7.5 0-3.1 4.1-9.7 15.2-24l3.7-4.8-2-3.2c-1.3-2.2-1.9-5-1.9-9 0-6.6-.1-6.7-9-2.4-5.2 2.5-8.9 8.7-9.8 16.3-.4 3.9-1.3 5.5-5.8 10L84.2 83l-3.1-5c-1.9-3-3.1-6.4-3.1-8.4 0-4.1 12.1-33 15.2-36.3 1.3-1.4 11.5-6 26.2-11.8 13.3-5.2 28.6-11.2 34.1-13.4C165.1 3.5 171.3 3 179 5.9zM110 74c0 .3-2.6 3.9-5.6 8-7.2 9.5-8.1 11.9-6 16.2l1.7 3.2-23.3 23.3L53.6 148l4.4 4.5 4.4 4.5H28v-34.4l4.5 4.4 4.5 4.5 32.7-32.8L102.5 66l3.7 3.7c2.1 2 3.8 4 3.8 4.3zm40 11.7c0 13.3-.9 15.3-6.7 15.3-5.5 0-6.9-2.4-7.7-13-.4-5.1-.5-9.4-.3-9.6.9-.9 13.3-5.1 14-4.7.4.2.7 5.6.7 12zm-3.8 24l21.8 21.7 4.5-4.4 4.5-4.4v34.9l-17.2-.3-17.1-.3 4.4-4.5 4.3-4.4-18.2-18.3-18.2-18.2v-5.7c0-5 .5-6.3 4.2-11.7 2.3-3.4 4.4-6.1 4.7-6.1.3 0 10.4 9.8 22.3 21.7zm-39.2-6.3c1.9 0 4.3-.4 5.3-.8 1.6-.8 1.7 1 1.7 29.3V162h12.4L115 173.9c-6.3 6.5-12 11.9-12.5 12-.6 0-6.4-5.3-13-11.9l-12-12H91v-49.5l4.8-5.2c3.1-3.4 5.2-4.9 6.2-4.5.8.3 3.1.6 5 .6z"/></svg>