<svg version="1" xmlns="http://www.w3.org/2000/svg" viewBox="0 0 488.000000 488.000000"><path d="M74.1 1.1c-33.9 4.4-61.6 29-71.3 63.4l-2.3 8L.2 238C0 358.4.2 406.1 1 412.9c1.3 10.4 4.5 21.2 8.9 29.9 3.8 7.4 13.7 19.9 19.2 24.2 2.4 1.9 4.6 3.7 4.9 4 1.7 2 10.9 7.4 17.6 10.4 17.5 7.6 3.7 7.1 193.4 7.1h169.5l8.7-2.2c31.4-8 54.1-30.4 63.1-62.2l2.1-7.6.4-165.5c.2-115.2 0-168.4-.8-175-4.5-39.2-35.1-70.2-74-75C403.7-.2 83.8-.2 74.1 1.1zM424 13.8c22.5 7 40 22.9 48.7 44.2 5.5 13.8 5.4 7.3 5.1 190.5l-.3 169-2.8 8c-5.5 15.4-12.2 25.3-24 35.3-6.9 6-18.9 12.1-28.7 14.9-6.2 1.7-15.3 1.8-177 1.8-191.5 0-176.1.6-192.5-7.5-19.2-9.5-33.1-26.5-39.2-48-1.7-6.2-1.8-14.5-1.8-178V72.5l2.3-7.5c6.4-20.2 19.4-36.1 37.1-45.3 7.8-4.1 15.4-6.7 22.5-7.7 2.8-.4 81.2-.7 174.1-.6l169 .1 7.5 2.3z"/><path d="M341.4 41.9c-18.2 2.9-32 12.3-45.8 31.1-3.1 4.1-5.9 7.9-6.3 8.5-3.4 4.3-22.2 29.5-23.3 31.2-.8 1.2-6 8.2-11.6 15.5-28.2 37.2-83.1 110.9-86.2 115.6-1.8 3-4.5 8.6-5.9 12.5-2.2 6.2-2.6 9-2.7 19.5l-.1 12.2-3 .5c-57 9-87.8 21-96.8 38-2.1 3.8-2.2 5.4-2.5 36.2-.2 20.3.1 33.6.7 36.1 7.4 27.1 74.2 45.6 173.1 47.8 85.4 2 165.6-12.2 190.3-33.6 2.6-2.3 5.9-6.3 7.5-8.8l2.7-4.7v-69l-2.7-4.7c-7.6-12.8-25.4-22-59.2-30.3-12.5-3.1-37.2-7.2-53.8-9-5.2-.6-7.3-1.7-5-2.7.4-.2 15.6-20.1 33.7-44.3 18-24.2 34.9-46.7 37.3-50 2.5-3.3 10.5-13.9 17.8-23.5 20.8-27.6 23.3-32.9 24.1-50.5 1.1-23.7-7.2-39.8-28.9-56.3-16.3-12.3-26.4-16.6-41.3-17.6-3.9-.3-9.3-.1-12.1.3zM366 63.8c7.4 2.9 26.6 17.5 30.8 23.4 9.8 13.8 10.5 33.6 1.9 47.1-1.9 2.9-16.3 22.4-32 43.4l-28.6 38.2-4.3.6c-5.9.9-18.5-1.9-28.1-6.1-17.2-7.5-32.8-21.3-42.4-37.4-3-5-5.7-14.3-4.9-17.1.3-1.3 5-8.1 10.4-15.1 5.3-7 18-23.9 28.2-37.5 10.2-13.6 20.3-26.7 22.4-29.1 4.5-4.9 10.7-8.8 18.1-11.5 6.8-2.4 20.8-1.9 28.5 1.1zM250.2 187.9c6.1 9.3 17.7 21.4 27.3 28.5 11.6 8.6 30 16.7 41 18.3 2.5.3 4.4.9 4.3 1.3-.2.4-8.2 11.3-17.8 24.2l-17.5 23.5-29.5-.5c-26.3-.4-65 .8-75.1 2.4l-3.6.6-.7-5.5c-.9-7 .8-16.6 4.1-23.1 1.4-2.8 15.5-22.3 31.2-43.4 23.5-31.3 28.8-37.9 29.6-36.5.6.9 3.5 5.5 6.7 10.2zm27 115.1c62.5 3.3 114.5 14.4 131.1 28.1 4.8 4 4.8 6.8 0 10.8-14.8 12.2-57.5 22.4-114.3 27.3-19.2 1.6-78.2 1.6-98.5 0-56.7-4.6-100.4-15.1-115.4-27.7-6.2-5.2-3-9.8 11.4-16.6 14-6.5 30.9-11.2 56-15.3 39-6.5 85.6-8.8 129.7-6.6zM79.6 363.9c.5.6 5 2.6 10.1 4.5 34.1 13.2 80.2 20.1 141.8 21.3 72.9 1.4 142.6-8.2 173.7-23.8 3.2-1.6 6.2-2.9 6.7-2.9s.9 6.6.8 16.1l-.2 16.1-3.4 2.8c-18.1 15.2-71.5 26.3-139.6 29-74.4 3-152.5-7.4-182.8-24.4-10-5.6-9.8-5.1-10.4-23.5-.3-13.1-.2-16.1.9-16.1.8 0 1.8.4 2.4.9z"/></svg>