<svg version="1" xmlns="http://www.w3.org/2000/svg" viewBox="0 0 488.000000 488.000000"><path d="M77 .7c-9.6 1-25.2 5.6-31 9.1C22.3 24.3 9.7 40.2 2.8 64.5l-2.3 8-.3 165C0 348.1.2 405.5.9 411.6c2.5 21.4 11 38.5 26.6 53.3 11.9 11.3 26.6 18.8 42.5 21.7 11.1 2 336.9 2 348 0 15.4-2.8 29.6-9.9 41.3-20.6 16.3-15 25.2-32.4 27.8-54.4.7-6.1.9-63.5.7-174.1l-.3-165-2.3-8C475.4 29.7 447.8 5.4 413 1.1 405.1.1 86.1-.3 77 .7zm348 13.7c12.4 4.1 21.3 9.7 30.5 19 8.7 8.8 14.3 18.1 18.7 31.1l2.3 7 .3 168c.2 116-.1 170.2-.8 175-2.4 15.3-9.9 30.1-20.7 40.7-9.8 9.7-17.7 14.5-30.8 18.9l-7 2.4-169.5.3c-120.1.2-171.4 0-175.9-.8-30.6-5.3-55.3-30.5-60.1-61.5-.7-4.8-1-58.9-.8-175 .4-189-.4-170.6 8.4-188.4 9.8-19.9 30.7-35.3 53-39.1 2.7-.4 81.2-.7 174.4-.6l169.5.1 8.5 2.9z"/><path d="M108.5 68.1C95.9 69.9 80 80.9 80 88c0 4 3.9 8 7.9 8 2 0 4.5-1.4 8.2-4.5 5.8-5 12.1-7.5 18.8-7.5 5.3-.1 53.1 14.8 53.1 16.5 0 .6-3.8 12-8.4 25.5-4.6 13.5-11.2 32.9-14.7 43.2l-6.3 18.6-6.4-2.4c-3.6-1.3-7.4-2.4-8.6-2.4-3.5 0-6.3 2.7-8.1 7.7-.9 2.7-8.3 24.4-16.5 48.3-8.1 23.9-16.4 48.2-18.4 54-2 5.8-5 14.4-6.6 19.2-5.2 15.5-10.9 25-22.9 38.1-7.7 8.4-8.7 11.3-5.1 15.5 1 1.3 3.5 2.6 5.4 2.9 3 .5 4 0 8.2-3.8 7.2-6.7 17.6-20 22.1-28.6 2.3-4.3 7.5-17.7 11.6-29.8 4.1-12.1 13.7-40.2 21.2-62.5 7.6-22.3 14.1-40.8 14.5-41.3.9-1 22 6.4 22 7.8 0 .6-6.6 20.4-14.6 44.1-8 23.6-17.5 51.4-21 61.7-8.9 26.1-12.5 32.8-24.9 45.8-6.9 7.3-8.4 9.5-8.5 12.7 0 3.5 4.3 7.2 8.5 7.2 3 0 4.4-.9 9.6-6.2 15.4-15.8 21.4-26.5 31.9-57.3 3.9-11.6 13.9-40.8 22.2-65 8.3-24.2 15.3-45.5 15.6-47.3.9-6.3-1.1-8.1-14.5-12.7-.8-.3 2.9-12.6 11.6-38.2 14.5-42.6 16.9-49.4 17.4-49.9.2-.2 3 .5 6.3 1.5 3.2 1.1 14.5 4.7 24.9 8.1 19.6 6.3 22 7.4 26.8 11.9 3.2 2.9 7.7 11 7.7 13.9 0 4.2 2.2 8.1 5.5 9.7 3.2 1.4 3.7 1.4 6.5 0 4.5-2.3 5.5-5.3 4.1-12.2-1.5-7.9-5.6-15.8-10.9-21.5-8.7-9.3-5.7-8.1-87.7-34.7-48.8-15.7-47.8-15.5-59-14z"/><path d="M290.5 115.5c-4.7 1.7-6.5 3.8-6.5 7.6 0 5.7 5 8.2 23.4 11.9 7.7 1.5 16 3.1 18.4 3.5 2.3.4 4.2.9 4.2 1.1 0 .3-5.7 7.1-12.6 15.1-6.9 8-13.1 15.4-13.7 16.5-1.1 1.7-4.2 1.8-66.3 1.8h-65.1l-2.3 2.5c-1.3 1.4-2.3 3.7-2.3 5.2 0 4.6 36.7 141.7 38.7 144.8 2 3.1 6.1 3.7 23.7 3.4 8.2-.1 15.1 0 15.4.3.3.2 1.2 4.2 2 8.7 4 20.9 13.2 38 28.5 53.2 11.6 11.5 27.3 20.6 43.7 25.1 6.6 1.9 10.4 2.2 25.3 2.3 16.3 0 18.1-.2 26.9-2.8 54-16.1 84.1-71.9 67.4-125.2-13.5-43.2-54.8-71.6-100.4-69.1l-11.6.6-1.7-6.2c-.8-3.5-3.1-12.2-5.1-19.3-3.9-14.8-4.1-16.1-2-18.2.9-.8 6.4-7.2 12.3-14.1 5.9-6.9 12.5-14.5 14.7-16.8l4-4.4 12 2.5c15.2 3.2 18.8 3.1 25.3-.1 6.9-3.4 9.6-7.4 9.6-13.9 0-6.4-2.8-11.2-8.6-14.5l-4.3-2.5-44.5-.2c-36.6-.2-45.2 0-48.5 1.2zm10.9 74.3c.7 1.2 9.6 34.1 9.6 35.6 0 .7-3.5 3-7.7 5.1-11.3 5.5-17.8 10-26.7 18.5-9.2 8.8-14.8 16.3-20.5 27.8-4.2 8.4-9.1 24.3-9.1 29.7 0 5.4-.5 5.6-15 5.3l-13.3-.3-6.3-24c-3.5-13.2-10.7-40-15.9-59.7-5.2-19.6-9.5-36.3-9.5-37.2 0-1.4 5.6-1.6 56.9-1.6 31.4 0 57.2.4 57.5.8zm67.1 51.2c28.8 9.2 49 30.4 56.6 59 3 11.5 3 28.9 0 40.5-7.5 29-30 51.8-58.8 59.7-11.5 3.1-31.7 3.1-42.8 0-23.7-6.8-41.8-21.8-52.4-43.6-4.4-8.9-8.1-21-8.1-26.3 0-1.7 2.2-1.8 42.6-1.8h42.6l2.4-2.8c1.3-1.5 2.4-3.7 2.4-4.9 0-1.1-4.7-19.8-10.5-41.6-5.8-21.7-10.5-39.9-10.5-40.4 0-.7 5.6-.8 14.8-.6 11.6.4 16.2 1 21.7 2.8zm-51.2 7.2c2.4 8.4 16.7 62.7 16.7 63.3 0 .3-16 .5-35.5.5H263v-2.3c0-3.6 3.8-17.1 6.5-23.3 5.5-12.4 17.8-27.2 28.5-34.2 5.3-3.4 15.8-9 17.2-9.1.4-.1 1.3 2.3 2.1 5.1z"/></svg>