<svg version="1" xmlns="http://www.w3.org/2000/svg" width="677.333" height="800" viewBox="0 0 508.000000 600.000000"><path d="M84.2 9c-7.5 2-22.6 8.6-25.2 11.1-.8.8-3.1 2.6-5 4-12.1 9.1-22.1 23.6-27.1 39.2-3.9 12.1-4 19.4-3.7 180.2l.3 156 2.3 8c8.6 29.7 29.3 49.9 59.8 58.1 6.6 1.8 13.6 1.9 168.4 1.9h161.5l8-2.2c29.7-8 50.7-28.8 58.7-58.3l2.3-8.5v-161c0-180.3.5-167.1-7.3-183.9-10.8-23-29.3-38.4-53.6-44.6-7.8-2-10.5-2-170-1.9-156 0-162.4.1-169.4 1.9zm342.7 11.4c23.2 8.1 41 28.2 46.2 52.1 1 4.8 1.3 38.5 1.3 165.5 0 176.9.5 163.5-6.5 178.8-7.7 17.2-24.1 31.7-41.6 37.2-13 4-17.3 4.1-177.8 3.8l-155-.3-7.5-2.2c-10.7-3.1-16-5.7-23.9-11.6-9.4-7.1-16.5-15.7-21.1-25.2-7.7-16-7.2-2.2-7.1-181 0-110.9.4-161.7 1.1-165.1 2.8-12.6 8.6-23.8 17.4-33.2C61.9 29.1 72.9 22.5 86.2 19c7.1-1.8 12.2-1.9 169.8-1.7l162.5.2 8.4 2.9z"/><path d="M108.7 94.6c-.4.4-.7 45.1-.7 99.3l-.1 98.6-9.4 4.7L89 302v-5.1c0-4-.5-5.5-2.5-7.4-2.4-2.5-2.6-2.5-20.9-2.5H47.1l-2 2.6C43 292.2 43 293.2 43 340v47.7l2.3 2.1c2.2 2.1 3.2 2.2 20.6 2.2 18 0 18.2 0 20.6-2.5 2.3-2.2 2.5-3.2 2.5-12 0-9.2.1-9.5 2.3-9.5 1.2 0 14.8 2 30.2 4.5 15.4 2.5 32.5 5.2 38 6.1 5.5.8 21.9 3.4 36.5 5.7l26.5 4.2.5 17.2c.4 14.8.8 17.5 2.3 19 1.6 1.6 4.1 1.8 25.3 1.8 23.6 0 23.6 0 25.5-2.4 1.7-2.1 1.9-4.1 1.9-24.2v-21.8l7.7-5.3c13.8-9.5 15.7-10.9 60.8-42.8 8.8-6.3 19.6-13.9 24-17 4.4-3.1 13.6-9.6 20.5-14.5 24.2-17.1 31.9-22.5 32.5-22.5.3 0 .5 4 .5 8.8 0 8 .2 9.1 2.3 11 2.2 2.1 3.3 2.2 19.1 2.2 16.4 0 16.7 0 19.2-2.5l2.5-2.5-.3-54.7c-.3-62.2.1-59.1-8.9-68.4-4.8-5-8.3-7.1-14.4-8.7-2.2-.6-33.8-2.1-70.2-3.3-72.6-2.4-71.1-2.4-79.8 3.3-5 3.3-11.1 11.1-12.6 16-.6 1.8-1.4 8.2-1.7 14.1l-.7 10.9-8.2 4.5-8.3 4.5V94.1l-76.3-.1c-42 0-76.6.3-77 .6zM246 111.2c0 .7.1 11 .2 22.8l.2 21.5-61.2.3-61.2.2v-46h61c48.1 0 61 .3 61 1.2zm114.5 61.9c74.8 2.3 79.2 2.5 82.6 4.5 9.3 5.5 11 17.5 3.5 25-1.8 1.8-4.7 3.6-6.6 4.1-2.3.6-17.2.5-41.5-.3-20.9-.7-50-1.7-64.6-2.2-23.6-.8-27.1-1.1-30.5-2.9-9.4-4.8-11.2-18.8-3.3-26 3.6-3.2 8.4-4.2 17.9-3.7 4.7.2 23.8.9 42.5 1.5zm-114.4 18.4c0 9.9-.1 19.9-.1 22.2v4.3H124v-45l61.1.2 61.2.3-.2 18zM296 215c2.1 1.1 5.8 2.4 8.2 2.9 2.3.5 28.8 1.7 58.8 2.7 30 .9 54.9 2 55.3 2.4.4.4-1.5 2.2-4.2 4.1-2.7 1.9-19.7 13.8-37.8 26.5-33 23.2-41.6 29.2-63.1 43.9-6.4 4.5-16.7 11.5-22.9 15.8-6.1 4.2-11.4 7.7-11.7 7.7-.3 0-.6-2-.6-4.4 0-3.7-.5-4.8-3.1-7-3-2.6-3.1-2.6-21.7-2.6-30.8 0-30.2-.3-30.2 17.5 0 11.7-.1 12.5-2 12.5-1 0-29.3-4.3-62.7-9.5-33.4-5.2-61.4-9.5-62-9.5-2.7 0-1.1-1.7 4.4-4.7 3.2-1.7 11.2-5.9 17.8-9.3 6.6-3.5 15.2-8 19-10 3.9-2.1 12.4-6.5 19-10 6.6-3.4 15.2-7.9 19-10 8.4-4.5 59.1-31.2 80-42.1 8.3-4.3 19.5-10.3 25-13.3 5.5-2.9 10.4-5.4 10.8-5.5.4 0 2.5.8 4.7 1.9zm155.7 36.3l-.2 31.2h-12l-.3-27.2-.2-27.2 5.7-4.5c3.1-2.5 6-4.3 6.4-4 .5.3.7 14.5.6 31.7zM217 234.1c0 .5-14.9 8.8-19.3 10.7-.4.2-2-.8-3.4-2.2-9-9-25.3.1-22.9 12.7l.6 3.2-15.8 8.2c-8.6 4.6-19.4 10.3-23.9 12.7-4.6 2.5-8.3 4.2-8.3 3.8 0-2.3-.1-48.8 0-49.4 0-.8 93-.5 93 .3zm207 15.2v7.3l-10.6 7.5c-5.9 4.1-11.6 8.1-12.8 8.9-3.2 2.2-22 15.4-23.1 16.2-.5.4-6.6 4.7-13.5 9.6-26.8 18.8-58.1 41-71 50.3-7.4 5.3-13.8 9.4-14.2 9.2-.5-.2-.8-4.4-.8-9.2v-8.8l10.3-6.9c5.6-3.9 18.1-12.4 27.7-19.1 37.1-25.7 44.8-30.9 83.9-57.2 12.3-8.3 22.8-15.1 23.2-15.1.5 0 .9 3.3.9 7.3zM73 339.5V377H58v-36.8c0-20.3.3-37.2.7-37.5.3-.4 3.7-.7 7.5-.7H73v37.5zM263 367v44h-25v-88h25v44zm-106.2-24c35.4 5.5 64.7 10 65.3 10 .5 0 .9 4.4.9 10 0 5.5-.1 10-.2 10-.2 0-3-.5-6.3-1-5.4-.9-44.2-7.1-103.5-16.5-11.8-1.9-22.1-3.5-22.7-3.5-1 0-1.3-2.7-1.3-9.9 0-8.9.2-9.9 1.8-9.5.9.2 30.6 4.9 66 10.4z"/></svg>