<svg version="1" xmlns="http://www.w3.org/2000/svg" width="634.667" height="800" viewBox="0 0 476.000000 600.000000"><path d="M74.5.7c-9.3 1.2-19 4-27 7.9C25.4 19.3 9.1 39.2 2.7 63.3L.5 71.5v333l2.2 8.4c7.4 27.5 27.3 48.9 54.4 58.3l9.4 3.3 169 .3c166.8.2 169.1.2 177-1.8 26.2-6.6 48-25.7 57.5-50.2 6.3-16.2 6.1-10.9 5.8-189.8l-.3-162.5-2.2-7.5c-8.7-30.4-29.9-51.7-59.9-60.3L405.5.5l-164-.1C151.3.3 76.2.4 74.5.7zm340.9 13.6c24.2 8.6 41.4 27.1 47.7 51.5 1.8 7.3 1.9 12.9 1.9 171.3 0 176.8.2 170.5-5.2 183.2-7.2 17.1-22.9 32.7-39.7 39.5-13.4 5.5-6.9 5.3-185.6 5-164.5-.3-165-.3-171.5-2.4-21.5-6.9-36-19.6-45.6-39.7-6.7-14.2-6.4-4-6.4-185.3 0-161.3 0-164.2 2-172 6.6-25.7 26.1-45.3 52-52.3 7.4-2 9.8-2 175-1.8l167.5.2 7.9 2.8z"/><path d="M224.5 36.5c-6 3-19.3 9.4-29.5 14.3S163.5 66 147.5 73.7C87.9 102.5 80.7 106 80 106c-.4 0-1.3.7-2 1.5-1 1.2-.6 2.4 1.9 6.5 1.7 2.8 3.1 5.2 3.1 5.5 0 .2 1.4 2.8 3.1 5.7 1.8 2.9 5.1 8.7 7.4 12.8 2.3 4.1 8.2 14.5 13.1 23 5 8.5 10.5 18.2 12.3 21.5l3.4 6-.6 17.5c-.4 9.6-.7 24-.7 32.1v14.5l-20.7 1.7c-11.5.9-33.4 2.6-48.8 3.8-15.4 1.2-28.1 2.3-28.3 2.5-.3.2 5.7 13.7 12.9 28.9C50.4 320 60.9 343.4 60.5 344c-.2.4-5.1 3.5-10.7 6.8-15.6 9.2-14.6 8.1-11.7 13.8 2.5 5.1 17.2 33.1 29.1 55.9 3.8 7.1 8.5 16.3 10.6 20.2 3.2 6.4 4 7.3 6.4 7.3 1.6 0 53.3-4.1 115.1-9 61.7-5 116.6-9.3 122-9.7 5.4-.3 10-1 10.3-1.4.3-.5-4.1-9.8-9.8-20.6-5.6-10.9-14.1-27.2-18.8-36.3-9.6-18.4-9.6-16.5-.5-21.5 6.9-3.7 20.3-11.3 38-21.5 8.3-4.8 20.6-11.8 27.5-15.7 28-16 46.5-26.5 46.8-26.8.1-.1-.2-28.6-.8-63.2l-1.1-62.9 5.6-23.9c3-13.2 6.2-26.7 7-30C428.8 91.7 437 55.8 437 55c0-1.3-2-.4-14.5 6.3-6 3.3-18 9.5-26.5 13.9-8.5 4.5-16.4 8.6-17.6 9.3-1.1.7-8.3 4.6-16 8.6-7.6 4-18.8 9.9-24.8 13.1-6 3.2-11.7 5.8-12.7 5.8-.9 0-4.5-.9-8-1.9-3.5-1.1-14-4-23.4-6.6-9.3-2.6-17.5-5.2-18.1-5.9-.6-.6-3.1-4.7-5.4-9.1-2.4-4.4-5.4-9.7-6.7-11.7-1.2-2.1-2.3-4-2.3-4.2 0-.3-1.4-2.9-3.1-5.8-1.7-2.9-4.4-7.6-5.9-10.3-8.9-16.4-14.3-25.5-15.3-25.4-.7 0-6.1 2.5-12.2 5.4zm14.8 29.7c4.7 8.4 11.2 20.2 14.6 26.2 4.8 8.4 5.9 11.2 5 12.2-.6.8-1.5 1.4-2 1.4-.4 0-3 1.3-5.7 2.9-2.7 1.6-7.4 4.2-10.3 5.9-20.8 11.4-36.6 20.2-50.9 28.2-9.1 5.1-19.4 10.8-23 12.8-3.6 1.9-12.4 6.8-19.7 10.9-7.2 4-13.5 7.3-14 7.3-.4 0-1.7-1.7-2.9-3.8-1.1-2-5.6-9.8-9.9-17.2-13.3-22.8-21.5-37.4-21.5-38.2 0-.5.4-.8.9-.8.4 0 10.2-4.6 21.7-10.1 11.5-5.6 25-12.1 29.9-14.4 13.2-6.3 74.9-36.2 79.1-38.4.1-.1 4 6.8 8.7 15.1zm169.6 39.9c-2.7 11.8-6.3 27-7.8 33.8-1.6 6.8-3.3 12.7-3.8 13.1-.4.4-9.8 5.4-20.8 11-11 5.7-25.8 13.3-33 17-7.1 3.7-22.9 11.8-35 18-12.1 6.2-25.7 13.2-30.3 15.6-4.5 2.4-8.8 4.4-9.5 4.4-1 0-1.1-1.5-.4-6.8.4-3.7 1.6-17.3 2.5-30.2l1.7-23.4 12-6.4c6.6-3.5 17.6-9.3 24.5-12.9 6.9-3.6 19.9-10.5 29-15.3 9.1-4.8 21.9-11.6 28.5-15 6.6-3.5 19.9-10.5 29.5-15.6 9.6-5.1 17.6-9.2 17.7-9 .1.1-2 9.9-4.8 21.7zM292 119.6c5.2 1.4 10.1 3 10.9 3.4.9.5-2.6 2.8-10.2 6.9-6.4 3.3-12 6.1-12.6 6.1-.7 0-1.1-3.5-1.1-10.1 0-9.1.2-10 1.8-9.5.9.3 6 1.7 11.2 3.2zm-29 13.8v12.4l-3 1.2c-1.6.7-3 1.8-3 2.4 0 3.4-5.3 72.2-5.6 72.5-.4.5-101.4-37.3-101.4-38 0-.4 35.6-20.4 78.5-44.1 1.7-.9 9.8-5.4 18-10.1 8.3-4.7 15.3-8.6 15.8-8.6.4-.1.7 5.5.7 12.3zm134.4 58.8c.3 11.2.8 34.7 1 52.3l.5 32-42.2 24c-23.2 13.2-42.7 24.1-43.2 24.3-.6.1-2.1-1.9-3.2-4.5-1.8-4-14.4-31.2-33.4-72-3.7-8.1-3.9-8.3-6.8-7.7-2.3.5-3.1.3-3.1-.8 0-1.4 3.3-3.2 42.5-23.3 21.9-11.2 40.3-20.7 63-32.6 20.3-10.5 22.9-11.8 23.6-11.9.4 0 .9 9.1 1.3 20.2zM172 209.7c15.7 5.8 31.9 11.8 36 13.3 4.1 1.6 15.4 5.8 25 9.4 11 4 17.6 7 17.8 7.9.4 1.8-1.3 2-29.8 4.3-10.7.8-30.3 2.4-43.5 3.4-13.2 1.1-27.7 2.3-32.3 2.6l-8.4.7.3-20.9c.2-11.5.5-23.7.7-27.1l.4-6.2 2.6 1c1.5.6 15.5 5.8 31.2 11.6zm95 50.7l5.5 12.1c6 12.7 9.1 19.6 19.1 41.3 2.2 5 2.9 7.4 2.1 7.6-.7.2-7.9.9-16.2 1.5-14.4 1.1-81.8 6.5-163.8 13.1-21.4 1.8-39 3-39.1 2.8-.8-.9-29.6-64.1-29.6-64.9 0-.5.3-.9.8-.9.4 0 5.7-.5 11.7-1 6.1-.5 22.3-1.8 36-2.9 24.7-2 124.6-10 154.5-12.5 8.5-.7 15.9-1 16.3-.8.5.2 1.7 2.3 2.7 4.6zm14.9 101.1c4.3 8.2 17.3 33.1 25 47.9 1.7 3.3 3 6.1 2.8 6.2-.2.2-12.8 1.3-52.2 4.4-27.7 2.2-116.6 9.4-143 11.5-27.8 2.3-23.9 3.8-31.7-11.8-9-17.6-22.5-43.4-24.9-47.5-1.4-2.4-1.5-3.4-.6-3.7.6-.2 29.8-2.5 64.7-5 34.9-2.6 82.6-6.2 106-8 23.4-1.8 44-3.2 45.8-3.1 3.1.1 3.6.6 8.1 9.1z"/><path d="M235.2 269.2c-.7.7-1.2 2-1.2 3 0 1.7 20.9 42.7 23.2 45.5 2.3 2.9 7.8.8 7.8-2.9 0-1.5-18.5-37.9-22.6-44.6-1.6-2.4-5.3-2.9-7.2-1zM210.2 270.2c-.7.7-1.2 2.1-1.2 3.2 0 3.1 23 46.5 25 47.1 2.6.8 4.9-.4 5.6-3.1.6-2.2-4-11.7-18.9-39.4-4.7-8.8-7.4-10.9-10.5-7.8zM185.3 271.6c-2.8 1.2-.8 6.5 9.8 26.7 6.2 11.7 11.6 21.8 12.2 22.4 2.1 2.8 7.7.8 7.7-2.7 0-1.5-8.8-19.2-19.2-38.5-3.5-6.5-4.8-8-6.8-8.2-1.4-.1-3.1.1-3.7.3zM160.2 273.2c-1.4 1.4-1.6 6-.3 7.3.7.9 4.8 8.6 17.6 33.2 4.5 8.6 6.9 11.2 9.2 9.7 4.2-2.7 4-4-2.5-16.7-13.7-26.7-16.7-32.2-17.8-33.5-1.6-1.5-4.6-1.6-6.2 0zM135.5 273.5c-.5.2-11.7.9-24.8 1.6-24.9 1.2-26.7 1.7-26.7 5.9 0 1.9 21.3 43.5 23.5 45.9 1.1 1.1 5.4 1.1 27.3-.2 14.4-.9 27-2.1 28.2-2.7 3.1-1.6 2.5-4.1-3.5-15.5-3-5.8-8-15.3-11.1-21.3-6.6-12.7-8.8-15.1-12.9-13.7zm8.2 24.7c4.3 8.4 7.9 15.8 8.1 16.5.4 1.6-3.2 2.1-19.3 2.8-7.7.3-15.2.8-16.6 1.1-2.5.5-3-.2-10.4-14.8-4.3-8.4-8.2-15.9-8.8-16.6-.5-.7-.8-1.4-.6-1.6.4-.5 25.3-2.2 34.6-2.5l5.2-.1 7.8 15.2z"/></svg>