<svg version="1" xmlns="http://www.w3.org/2000/svg" viewBox="0 0 488.000000 488.000000"><path d="M77 .6c-22.5 3.5-35.8 9.6-49.9 22.8C12.5 37.2 3.7 54.6 1 75c-.8 6-1 57.3-.8 174 .4 164.5.4 165.5 2.5 172.5 4.1 13.9 7.7 21.2 14.8 30.5 12.6 16.4 28.7 26.9 48.5 31.7 7.1 1.7 16.8 1.8 176.5 1.8 184.6 0 174.5.3 190-5.9 10.9-4.4 20.6-11 29.1-19.8 11.2-11.5 17.6-22.9 22-39.4 1.8-6.6 1.9-13.8 1.9-176.9 0-164.1-.1-170.3-1.9-177.5-8.1-31.9-30.8-54.8-63.2-63.7C415 .8 399 .6 247 .4 154.9.3 78.4.4 77 .6zm338.7 12c15.2 3.1 27.7 10 38.4 21.1 10.8 11.2 17.4 24.3 19.8 39.4.7 4.2 1.1 61.4 1.1 170.7 0 145.8-.2 165.1-1.6 172-2.9 14.3-10 27.6-19.9 37.5-6 6.1-18 14-25.2 16.7-14 5.2-6.8 5.1-188.8 4.8l-169-.3-7.8-2.8c-10.7-3.8-16.4-6.8-23.4-12.4-11.9-9.5-19.7-20.7-25-35.8l-2.8-8-.3-167.5c-.2-113.8.1-169.7.8-174.4 3.7-24 19.3-45.1 41-55.4 5.8-2.7 14.1-5.3 21-6.5 1.4-.2 77.1-.5 168.3-.6 147.1-.1 166.6.1 173.4 1.5z"/><path d="M142 97.2c-8.5 13.8-18.7 30.1-22.6 36.2-3.8 6.1-9.7 15.6-13.1 21.1l-6.1 10 3.4 30.5c1.8 16.8 4.3 39.3 5.4 50.1l2.2 19.6-3.4 5c-1.8 2.8-9.2 13.5-16.4 23.9-31.8 45.9-42.5 61.6-42.2 61.8.4.3 16.9 3.8 49.8 10.6 13.5 2.8 27.4 5.7 31 6.5 3.6.8 18.7 4 33.5 7 14.9 3.1 37.6 7.8 50.5 10.5 12.9 2.7 34.5 7.2 48 10s33.9 7 45.3 9.4l20.8 4.3 2.5-3.6c1.4-2 5.8-8.3 9.8-14.1 4-5.8 10.6-15.3 14.7-21.2 4.1-5.8 13.6-19.7 21.3-30.8l13.8-20.1-.7-6.7c-.3-3.7-2.6-24.9-5.1-47.1-2.4-22.2-4.4-42.2-4.4-44.5 0-3.7 3-9.1 28.1-49.1 15.4-24.8 28.2-45.2 28.4-45.6.2-.3-7.6-2.1-17.3-4.1-16-3.3-140.9-29.3-169.2-35.3-6.3-1.3-29-6-50.5-10.5-21.4-4.4-39.7-8.3-40.5-8.5-1.1-.3-6.1 7-17 24.7zm54.4-.1c16 3.3 38.6 8 50.1 10.4 11.6 2.4 52.7 11 91.5 19 38.8 8.1 70.8 15 71.3 15.4.5.5-39.2 65.9-42 69.1-.5.5-5.8-.5-68.3-13.6-25-5.2-52.9-11-62-12.9-9.1-1.9-24.1-5-33.5-7-9.3-2-31.4-6.5-49-10.2-17.6-3.6-32.1-6.7-32.3-6.8-.1-.1 2.8-5.1 6.6-11.1s13.5-21.6 21.6-34.7c8.1-13 15.3-23.7 15.8-23.7.6 0 14.2 2.7 30.2 6.1zm46.1 105.2l121 25.2.8 7.5c.7 6.8 7.4 69.8 8 74.5.1 1.3-.3 1.9-1.3 1.8-.8-.2-24.9-5-53.5-10.8-68-13.8-146.1-29.6-170.4-34.5-10.6-2.1-19.4-4-19.6-4.2-.3-.4-1.5-11-5.5-49.3-1.7-15.4-3.3-29.7-3.6-31.8-.5-3.1-.3-3.7 1.3-3.7 1 .1 56.3 11.4 122.8 25.3zm-72 85.1c23.1 4.7 75.3 15.3 116 23.5s75.7 15.3 77.8 15.8l3.7.8-19.1 27.5c-10.5 15.1-21.1 30.5-23.5 34.2-2.5 3.7-5 6.5-5.7 6.3-.6-.3-10.9-2.5-22.7-4.9-33.9-7-219.4-45.6-220.3-45.9-.4-.1 4.8-8.1 11.5-17.7s14.8-21.3 18-26c3.3-4.7 8.1-11.8 10.6-15.8 4.6-7 4.8-7.2 8.2-6.8 1.9.3 22.4 4.3 45.5 9z"/><path d="M188.7 109.7c-.8 1-3.1 4-4.9 6.8-1.9 2.7-8.8 12.6-15.3 22-6.5 9.3-12 17.8-12.3 18.8-.6 2.4 2.5 5.7 5.5 5.7 1.8 0 3.7-1.9 8.1-7.9 10.6-14.7 27.1-38.7 27.8-40.4.9-2.5-2.2-6.7-5-6.7-1.2 0-3 .8-3.9 1.7zM216.7 114.7C213 118.9 184 161.6 184 163c.1 3 2.7 5.2 5.8 4.8 2.7-.3 4.8-2.8 19.6-24.2 9.1-13.2 16.6-24.6 16.6-25.3 0-1.9-3.7-5.3-5.8-5.3-1.1 0-2.6.8-3.5 1.7zM245.7 119.2c-1.7 1.3-7.6 9.6-24.6 34.3-8.4 12.2-9.3 14-8.5 16.4.7 1.9 1.7 2.7 3.9 2.9 3.6.3 4.8-.9 12.7-12.3 3-4.4 7.4-10.7 9.7-14 16.5-23.5 17-24.8 11.5-27.3-3-1.5-2.7-1.5-4.7 0zM274.8 123.9c-2.1.8-5 4.7-21.7 28.8-14.1 20.5-14.9 22.5-9.9 25.2 2.4 1.4 2.8 1.4 4.8-.4 1.7-1.6 26.5-36.5 32.4-45.7 1.4-2.1 1.5-3.1.6-4.7-1.4-2.6-4-4-6.2-3.2zM297.5 134.2c-2 2.9-9.5 13.6-16.6 23.8-7.1 10.2-12.9 19.4-12.9 20.6 0 3.4 3 5 12.5 6.8 5 .9 17.4 3.2 27.7 5.1 10.3 1.9 19.8 3.5 21.2 3.5 2 0 4.2-2.5 12.7-14.8 5.6-8.1 12.3-17.6 14.9-21.2 7.2-10.1 8.4-12.4 7.6-15.3-.3-1.3-1.3-2.7-2.1-3.1-2.7-1-55.7-10.6-58.6-10.6-2.3 0-3.5 1-6.4 5.2zm24.1 8.3c7.6 1.4 17.1 3.2 21.1 4 4 .8 7.5 1.5 7.8 1.5.3 0-1.7 3-4.3 6.7-2.6 3.8-8.1 11.6-12.1 17.5-4 6-7.4 10.8-7.5 10.8-1.3 0-43-8-43.3-8.4-.4-.4 3.1-5.6 18.7-28.4 2.3-3.4 4.6-6.2 5-6.2.4 0 6.9 1.1 14.6 2.5zM146.6 196.2c-1.3 2-1 5.6 2.3 31.6 3.3 25.6 4.1 29.6 5.9 31.4 1.8 1.9 2.5 2 4.7 1 1.4-.7 2.8-1.9 3.2-2.8.3-1-.4-9.4-1.6-18.8-1.2-9.4-2.9-22.7-3.8-29.4-1-7.4-2.2-13-3-13.8-2.2-2.1-6.1-1.7-7.7.8zM174.6 200.6c-.9.8-1.6 1.8-1.6 2.2 0 .9 5.8 46.2 7 54.1 1.2 8.6 5.4 11.7 9.5 7.1 1.8-2 1.7-2.9-2-31.8-2.6-21-4.2-30.2-5.3-31.5-1.9-2.1-5.5-2.2-7.6-.1zM202.5 206.3c-1.6 2.5-1.8 0 4.8 51.6 1.1 7.9 1.8 10.7 3.2 11.7 2.6 1.9 4.9 1.7 7-.6 1.7-1.9 1.6-3.1-2-31.2-2.2-17.7-4.2-30.2-5.1-31.6-1.9-2.9-5.9-2.9-7.9.1zM230.6 210.9c-1.7 1.9-1.6 3.3 1.9 31.3 2.2 17.6 4.3 30.2 5.1 31.5 1.8 2.8 5.5 3 7.8.4 1.7-1.9 1.6-3.3-2-31.7-3.1-23.8-4.2-30.2-5.6-31.6-2.3-2.3-5.1-2.3-7.2.1zM259 215.8l-2.3 1.8 3.2 25c4.6 36 4.7 36.5 6.2 37.5 3.3 2.1 9-.1 8.9-3.4 0-.7-1.8-14.4-3.9-30.5-3.2-24.7-4.1-29.5-5.7-30.7-2.5-1.9-3.7-1.8-6.4.3zM286.9 220.9l-2.3 1.9 3.8 29.8c2.1 16.4 4 30.3 4.3 31 .2.6 1.5 1.6 2.8 2.2 2.1 1 2.9.8 5-1.1l2.6-2.2-3.6-28c-4.2-32.8-4.1-31.9-6.1-33.9-2-2.1-3.7-2-6.5.3zM315.9 225.3c-1.4.8-2.5 2.3-2.7 3.9-.3 2.5 6.3 55.7 7.4 59.1 1.2 3.9 8.3 4 9.8.1.6-1.5-6.8-59.7-7.8-61.3-1.4-2.3-4.2-3-6.7-1.8zM143.4 290.8c-1 .6-5.3 6.5-20.9 29.2-3.2 4.7-7.4 10.6-9.2 13.2-5 7.2-4 12.4 2.4 11.6 2.4-.3 5-3.6 19-23.8 9-12.9 16.3-24.4 16.3-25.6 0-3.7-4.7-6.6-7.6-4.6zM171.8 296.1c-1 .5-4.8 5.4-8.6 10.7-24.5 35-25.3 36.2-25 38.8.4 3.3 3.6 5.5 6.4 4.4 1.1-.4 7.2-8.2 13.4-17.2 6.2-8.9 13.5-19.3 16.2-23.1 5.1-7.2 5.9-10.4 3-13-2.1-1.9-3-2-5.4-.6zM194.5 307.2C176.1 333 166 348.3 166 350.5c0 3.8 3.2 5.1 19.4 8l14.9 2.6 2.3-2.3c4.7-4.9 32.4-46.1 32.4-48.3 0-1.2-.6-2.8-1.4-3.4-1.6-1.3-26.1-6.1-31.4-6.1-2.9 0-3.8.8-7.7 6.2zm18.4 6c3.6.6 6.8 1.3 7 1.4.4.4-12.6 19.8-21.5 32l-2.3 3.1-7.5-1.5c-4.2-.8-7.6-1.9-7.6-2.4 0-.7 13.8-21.1 20.7-30.6 2.7-3.7 2.4-3.6 11.2-2zM252.7 314.2c-1.3 1.8-7.9 11.2-14.5 20.8-6.6 9.6-13.1 18.8-14.3 20.3-3.7 4.8-2.3 10.7 2.6 10.7 2.9 0 4.4-1.9 22.4-27.9 7.7-11.2 14.1-21.2 14.1-22.2 0-2.5-2.7-4.9-5.5-4.9-1.5 0-3.3 1.2-4.8 3.2zM279.2 321.2c-2 2.9-4.5 6.4-5.4 7.8-.9 1.4-3.9 5.6-6.7 9.5-2.7 3.8-8 11.5-11.7 16.9-6.5 9.5-6.7 10-5.3 12.5 1.6 2.9 5.2 3.9 7.5 2.1.8-.7 4.6-5.8 8.5-11.4 20.2-29 24.9-36 24.9-37.6 0-.9-.8-2.4-1.8-3.3-3.3-3-5.9-2.1-10 3.5zM311.3 321.7c-1.2.4-30.8 42.4-33.2 47.1-1 1.9-1 2.8.4 4.8 2 3 5.5 3.1 8.3.1 3.3-3.5 30.4-42.9 31.5-45.9 1.7-4.3-2.5-8-7-6.1z"/></svg>