<svg version="1" xmlns="http://www.w3.org/2000/svg" viewBox="0 0 488.000000 488.000000"><path d="M77 .6c-17.9 2.8-26.9 6-38.5 13.8C21.3 25.9 9.9 41.5 3.3 62.5l-2.8 9v171C.5 431.9 0 415.9 6.7 433c9.4 23.9 32.2 43.6 57.8 50 8 2 10.3 2 181 1.8l173-.3 7-2.4c30.1-10.1 50.3-31.9 58.2-62.7 1.7-6.5 1.8-17.9 1.8-176.4 0-163.7-.1-169.8-1.9-177-2.9-11.3-5.9-18.1-11.9-27.2-12.2-18.4-28.9-30.3-51.3-36.5C415 .8 399 .6 247 .4 154.9.3 78.4.4 77 .6zm338.8 12c30.3 6.2 53.2 30.1 58.1 60.4.7 4.3 1.1 60.9 1.1 170.8 0 176.6.1 171.1-5 184.1-7.8 19.8-24.9 35.9-46.2 43.4l-9.3 3.2H244c-135.5 0-171.5-.3-175.5-1.3-14-3.6-25.4-10-35.1-19.6-8.4-8.5-12.5-14.3-16.4-23.3-6.3-15-6-5.9-6-186.5 0-109.3.4-166.5 1.1-170.7C15.9 49.3 31.5 28.4 53 18.2c5.8-2.7 14.1-5.3 21-6.5 1.4-.2 77.1-.5 168.3-.6 148-.1 166.6.1 173.5 1.5z"/><path d="M238.3 78.2c-1.1 1.3-5.2 7.4-9.2 13.7-4 6.2-16.9 26.2-28.8 44.5-11.8 18.2-23.4 36-25.7 39.5-3.6 5.6-5.7 7.4-17.2 15.1-17.4 11.7-31.2 22.8-45.7 36.9-30.8 29.8-44.3 52.1-50 82.8l-.6 3.3h41l1.4 3.2c2.3 5.7 7.4 11.8 12.2 14.8 3.9 2.5 5.8 3 10.8 3 3.8 0 7.2-.6 9.3-1.8 5.1-2.7 10.9-9 13.3-14.3l2.2-4.9 51.1-.3c28.1-.2 52.2-.6 53.5-.8 2-.3 2.6.2 4 4 2.2 6.1 10.9 15.4 16 17.1 6.2 2 14.3.9 19.4-2.7 9.3-6.6 14.7-19.2 14.7-34.2v-8.7l3.4-1.7c3.7-1.7 4.6-1.4 4.6 1.7 0 2.8 5.2 13.6 8.1 17.1 6.2 7.2 17.4 10.4 25 7.2 11.3-4.7 19.1-18.7 19.2-34.6.1-4.2 0-25.6-.1-47.5l-.2-40 2.8-4.3c1.5-2.4 8.6-13.3 15.7-24.3 7.2-11 15-23.1 17.5-26.9 2.5-3.9 10.4-16.2 17.7-27.3 7.3-11.2 13.5-21.1 13.9-22.1.8-2.2-1.4-7.5-3.7-8.7-1.1-.6-38.2-1-97.7-1h-95.9l-2 2.2zM414 92.4c0 .5-36.2 56.5-50.3 77.8l-7 10.8h-82.4c-48.6 0-82.3-.4-82.3-.9 0-1 2.3-4.5 37-58.1l19.4-30h82.8c45.5 0 82.8.2 82.8.4zm-87.1 104.9c-.2.2-4.4 3.5-9.4 7.3-36.6 27.9-61.3 57.3-71.5 85.4l-2.8 7.5-80.6.3c-54.7.1-80.6-.1-80.6-.8 0-1.8 5.7-13.8 9.7-20.3 13.9-23 41.5-49.8 73.8-71.6l12-8.1h74.9c41.2 0 74.7.2 74.5.3zm26.1 22.6v20l-3.1-1.1c-7.2-2.5-18 1-23.6 7.6-3.2 3.7-7 11.3-8.3 16.7-1.1 4.3-1.5 4.7-6.8 7-3.1 1.3-5.9 2.5-6.2 2.7-.4.1-2-1.7-3.7-4.1-3.1-4.2-11.8-9.7-15.6-9.7-.9 0-1.7-.4-1.7-1 0-1.9 24.7-25.7 36.5-35.2 11.7-9.4 30.2-22.7 31.8-22.8.4 0 .7 9 .7 19.9zm-6.2 35.7c1.2.8 3.2 3.4 4.5 5.7 1.9 3.6 2.2 5.7 2.2 14.7 0 8.8-.3 11.1-2.1 14.5-5 9.3-9.6 9.6-14.9 1.1-2.8-4.7-3-5.5-3-15.5 0-9.8.2-11 2.8-15.3 3.9-6.7 6.5-8 10.5-5.2zm-60.7 21.1c4.7 2.8 7.4 10.2 7.4 20.8 0 7.5-.4 9.8-2.4 13.8-6.1 12.5-15.1 8.5-18.1-8.1-1.8-10.1 1.6-22.7 7.2-26.6 2.7-1.9 2.4-2 5.9.1z"/><path d="M189.8 214.5c-29.5 5.6-46.5 21.4-38.9 36.4 6.2 12 22.9 18.4 48.6 18.4 27.6 0 49.6-7.3 59.1-19.8 3.5-4.6 4.5-13.5 2.1-18.1-3.8-7.3-11.6-12.4-24.2-16-8.3-2.3-36.1-2.9-46.7-.9zm42.9 16.8c6.1 1.8 13.3 5.6 13.3 7.2 0 3.3-8.9 8.3-20.7 11.7-6.7 2-10.1 2.3-24.8 2.3-14.8 0-17.9-.3-24-2.2-3.9-1.2-8.1-3.2-9.3-4.4l-2.3-2.1 2.3-2.5c4.2-4.7 14.8-8.6 31.8-11.7 4.9-.9 28.6.3 33.7 1.7zM74 360v16h10v-32H74v16zM115 360v16h11v-32h-11v16zM156 360v16h11v-32h-11v16zM198 360v16h10v-32h-10v16zM239 360v16h11v-32h-11v16zM51 386v16h11v-32H51v16zM92.2 385.7l.3 15.8 5.3.3 5.2.3V370H91.9l.3 15.7zM134 385.9V402h10v-15c0-8.3.1-15.3.3-15.8.1-.4-2.2-.8-5-1l-5.3-.3v16zM175 386v16h11v-32h-11v16zM216 386v16h11v-32h-11v16z"/></svg>