<svg version="1" xmlns="http://www.w3.org/2000/svg" width="558.667" height="800" viewBox="0 0 419.000000 600.000000"><path d="M65.5.7C33.7 4.7 9.1 26.9 1.8 58.1.8 62.3.5 95.5.5 210.5v147l2.3 7.5c4.1 13 9.8 22.6 18.7 31.6 12.7 12.8 25.8 19.4 43 21.5 5 .6 60.9.9 151 .7 160.9-.4 145.7.4 163.5-8.4 7.9-3.9 11-6.2 18.1-13.4 7.5-7.5 9.3-10 13.7-19.1 2.8-5.7 5.6-12.9 6.4-15.9 1.9-7.9 1.9-295.8 0-303.9-7.1-30.3-31.9-53.3-61.6-57.1C348.9.1 72.2-.2 65.5.7zm296 10.6c23.6 6.9 39.7 23.1 46.2 46.8 1.7 6 1.8 15.9 1.8 150.9 0 156.7.2 150-5.5 162.7-8.6 19-24.1 31.6-45.1 36.5-8.3 2-292.2 1.9-299.9-.1-19.2-4.8-34.8-17.5-43-34.6-6.9-14.6-6.5-4.1-6.5-164C9.5 47.1 9 58.4 16.8 43.6c4.5-8.5 14.9-19.8 22.6-24.5 7.2-4.3 16.9-7.8 24.8-9 3.6-.5 67.1-.8 148.8-.7 132.4.1 142.9.3 148.5 1.9z"/><path d="M207.7 134.7c-.4.3-.7 2.1-.7 3.8 0 3.2-.1 3.2-5.7 3.9-8.7 1-23.3 5.2-33.6 9.7-23.4 10.1-46 26.9-71.2 53-15.8 16.4-25.1 27.5-46.5 56.1L32.2 285h174.4c165.4 0 174.4-.1 174.4-1.8 0-.9-1.5-9-3.4-17.9l-3.3-16.2 5.1-.3 5.1-.3v-17h-6.9l-7-.1-6.2-30.1c-6.9-33.1-8.8-38.6-16.2-46.6-5.2-5.4-8.7-7.8-15.7-10.3-4.3-1.6-9.4-1.9-38-2.4l-33-.5-.3-3.8-.3-3.7h-26.3c-14.4 0-26.6.3-26.9.7zM317.9 156c14.4 1.5 21.2 6 25.5 16.9 1.6 4.1 16.6 74.2 16.6 77.6 0 1.3-16.3 1.5-142.6 1.5-91.1 0-142.4-.3-142.2-1 .2-.5 4.3-5.8 9.3-11.7 43.9-52.8 84.1-80 123-83.3 13.5-1.1 99.6-1.1 110.4 0zM363 262.2c0 .7.3 3 .6 5l.7 3.8H212.6c-83.4 0-151.6-.3-151.6-.6s1.4-2.6 3.2-5l3.1-4.4h147.9c117.6 0 147.8.3 147.8 1.2z"/><path d="M225.5 168c-16 2.4-24.4 7.1-32.7 18.5-12 16.4-15.1 25.1-11.2 31 3.7 5.6 1.9 5.5 83.4 5.5 43.7 0 75-.4 75-.9 0-2.2-8.3-35.9-9.6-39.1-3.2-7.7-10.7-13-20.9-14.9-6.6-1.2-75.9-1.3-84-.1zm86.8 15.4c4.7 2.3 5.1 3.1 8 15.5l2.4 10.1H194.8l2.2-3.8c5.4-9.1 11.3-16.3 15.5-18.7 8.1-4.8 14.5-5.4 57-5.2 35.9.2 39.3.3 42.8 2.1z"/></svg>