<svg version="1" xmlns="http://www.w3.org/2000/svg" width="556" height="800" viewBox="0 0 417.000000 600.000000"><path d="M63 1c-8.4 1.1-13.7 2.8-23 7.3-7.1 3.4-10.1 5.7-18 13.6C14.2 29.8 11.7 33.1 8.3 40-.1 57.1.6 43 .2 202.5-.1 352.6 0 355.2 4.5 368.2c7.7 22.2 27.4 40.1 50.9 46.6 5.5 1.5 18.9 1.7 146.6 2 94.5.2 143.5 0 149.7-.7 8.4-1 19.7-4.3 25.5-7.4 17.3-9.4 29.8-24.2 36.1-42.8 3.6-10.7 3.8-18.6 3.5-162.9-.4-159 .2-146.1-8.1-162.9-3.4-6.9-5.9-10.3-13.2-17.6-13.1-13.2-24.6-19-41.8-21.4C344.7-.2 72.2-.2 63 1zm298.9 10.8c21.2 6.5 37.3 23.1 43.9 45 1.5 5.2 1.7 17.5 2 146.2.2 91.3-.1 143.2-.7 148.2-3 22.4-15.3 39.8-35.3 49.9-13.4 6.8-3.9 6.4-163.3 6.4-137.8 0-144.3-.1-151-1.9-21.6-5.8-39.7-23.3-45.7-44.1l-2.3-8v-145C9.5 47.2 9 59.2 16.2 44.1c3.4-7.2 15.2-20.2 22.7-25 6.2-4 16.6-7.8 24.3-9 3.6-.5 66.9-.8 148.8-.7l142.5.1 7.4 2.3z"/><path d="M172.5 27.7c-2.5.4-42.9 13-106.2 33.3-18.1 5.9-25.8 9.6-30.2 14.5-5.7 6.5-6.3 10.5-3.2 20.1 1.1 3.2 5.6 17.1 10 30.9 4.3 13.7 11.8 37.1 16.6 52 4.8 14.8 9.7 30.4 11 34.5 1.3 4.1 4.4 13.9 6.9 21.8s4.6 15 4.6 15.8c0 1.3-13.8 15.2-38.5 38.7l-8 7.6 5 5.3c2.8 2.9 10.2 10.7 16.6 17.3 6.3 6.6 22.5 23.4 35.8 37.2 13.4 13.9 24.6 25.3 25 25.3.3 0 9.2-8.3 19.6-18.4 10.5-10.1 19.1-18.3 19.3-18.1.1.1.4 3.6.6 7.6.4 10.2 2.9 14.5 11.8 19.9 28.2 17.3 113.3 23 171.3 11.4 23.2-4.6 40-13.2 43.6-22.2.5-1.3.9-20.6.9-43.8 0-46.9.3-44.7-8-51.3-15.1-11.9-56.2-20.1-102-20.1h-16.5l8.5-8.3c4.7-4.5 20-19.2 34-32.7 26-25 43.1-41.5 64.5-62.2 6.6-6.4 13.5-13.1 15.3-14.8l3.3-3.1-7.3-7.5c-4-4.1-7.4-7.9-7.6-8.3-.1-.4 4-4.9 9.3-10 5.2-5.1 9.5-9.5 9.5-9.8 0-.6-6.8-7.8-32.4-34.6l-18-18.7-8.6 8.3c-12.5 12.3-10.7 12-19.1 3.2-4-4.1-7.7-7.5-8.2-7.5-.5 0-14.7 13.4-31.6 29.7-42.7 41.5-46.1 44.8-47 45.1-.4.1-3.5-8.7-7-19.5-18.3-57.7-19.3-60.7-22.5-63.9-4.3-4.3-11.8-6-21.1-4.7zm14.9 11.5c5.1 7.2-3.4 17.6-18.5 22.7-6.6 2.2-8 2.1-5.9-.4 1-1.2.9-2-.5-4.1-.9-1.4-1.5-2.7-1.3-2.8.2-.2 3.1-1.3 6.4-2.5 6.9-2.5 11.6-6.7 12-10.7.5-4.7 5.2-6 7.8-2.2zm-32.1 11.7c.9 1.6 1.7 3.3 1.7 3.8s-5.4 2.7-12.1 4.8c-6.6 2.1-12.7 4.5-13.5 5.2-2.7 2.7-1 7.3 2.6 7.3.9 0 7.3-1.8 14.4-4.1 7.1-2.2 13.2-3.7 13.6-3.2 1.1 1.1 17.1 51.5 16.6 52.1-.3.2-6.5 2.3-13.8 4.7-11.9 3.8-13.4 4.1-14 2.7-1.5-3.4-15.8-48.7-15.8-50 0-1.7.1-1.7-15 3.3-7.4 2.5-14 4.5-14.7 4.5-.8 0-1.3-1.2-1.3-3 0-4.7-3.1-4.7-17.3-.3l-12.5 4-.6-4.6c-.3-2.4-.3-4.8.1-5.2.5-.3 6-2.3 12.3-4.4l12.6-4.2c.7-.3 1.4 1.4 1.8 4.1.4 2.5 1.1 4.6 1.6 4.6.6 0 17.9-5.3 27.8-8.5 1-.4.9-1.1-.3-3.4-.8-1.7-1.5-3.6-1.5-4.3 0-1.2 19.8-8.4 24-8.7.9 0 2.3 1.2 3.3 2.8zM343 62.7c2.9 3.2 10 10.5 15.7 16.3L369 89.6l-4.5 4.7c-2.6 2.6-5 4.7-5.5 4.7-1 0-30.3-30.5-30.9-32.1-.3-1 7.6-9.9 8.9-9.9.4 0 3.1 2.6 6 5.7zm-17.1 22.8c6.9 7.2 18.3 19 25.4 26.2 7 7.2 12.7 13.5 12.7 14s-1 1.7-2.2 2.7c-1.3 1-7.5 6.9-13.8 13-6.3 6.1-18 17.4-26 25.1-54.4 52.6-72.3 69.8-78.1 75.3l-6.5 6.2-12 1.5c-42.2 5.5-63.5 14.4-67.3 28.2-.6 2.2-1.1 13.3-1.1 25.8l.1 22-19.3 18.8-19.3 18.7-14.8-15.2c-34.4-35.4-47.2-49-47.2-50.3 0-.7 9.9-10.9 22-22.6 12.1-11.7 28.8-27.8 37-35.8 8.3-8 26.3-25.4 40-38.6 13.7-13.2 30.8-29.6 38-36.5 7.1-6.9 18.6-18 25.5-24.5 6.9-6.6 24.7-23.8 39.5-38.1 14.9-14.4 30.6-29.6 35-33.8l8-7.6 5.9 6.3c3.2 3.4 11.6 12.1 18.5 19.2zM48.8 84.2c1.9 1.9 3.4 2.3 8 2.1 3.2-.1 7.7-.9 10.1-1.7 5.6-2.1 6.4-2 4.9.3-.9 1.5-.8 2.4.5 4.4 2 3 1.8 3.2-5.9 5.2C55.7 97.3 45.7 96 42 91.3c-5.1-6.5.8-12.7 6.8-7.1zm63.1 25.7c4.4 14 8 25.5 7.8 25.7-1.1.9-25.9 8.5-26.8 8.2-.9-.3-18.2-51.6-17.5-51.9 3.4-1.5 27.3-8.4 27.8-8 .3.3 4.3 12 8.7 26zm201.2 155.6c16.3 1.9 30.7 4.7 40 7.8 7.9 2.7 14.9 6.3 14.9 7.7 0 3.6-18.5 10.2-37.4 13.4-42.3 7.3-96.7 6-133.1-3-9.8-2.5-22.7-8-22.9-9.9-.5-4.4 25.6-12.5 50.4-15.5 26.1-3.2 63.5-3.4 88.1-.5zM179.5 303c13.4 5.7 41.2 10.4 71.9 12 40.7 2.2 91.8-3.3 112.3-12.1 2.5-1 4.7-1.9 4.9-1.9.2 0 .4 9.9.4 22.1v22l-6.4 2.9c-18.1 8.3-51.5 13-91.6 13-39.5 0-71.1-4.4-90.3-12.6l-6.7-2.9v-22.3c0-12.2.2-22.2.4-22.2s2.5.9 5.1 2zm.1 49.4c19 9.1 69.9 14.8 111.7 12.6 30.6-1.7 56.1-6 71.5-12.3l6.2-2.6v3.1c0 3.5-1.5 5-8 7.9-16.6 7.6-43.1 11.7-79.5 12.6-44.7 1-81.8-3.8-100.5-13-6.1-3-6.5-3.4-6.8-7-.2-2-.2-3.7.1-3.7.2 0 2.5 1.1 5.3 2.4z"/><path d="M275.6 109.2l-4.7 4.3 7.6 7.5 7.5 7.5-7.7 7.7-7.6 7.7 4.5 4.7 4.5 4.7 7.7-7.3 7.7-7.3 7.5 7.4 7.4 7.4 4.5-4.5 4.5-4.5-7-7.2c-3.9-4-7-7.7-7-8.2 0-.5 3.4-4 7.5-7.8l7.4-6.8-4.7-4.8-4.6-4.7-7.7 7.6-7.6 7.5-7-7.5c-3.9-4.2-7.3-7.6-7.5-7.6-.2 0-2.6 1.9-5.2 4.2zM89 289.5l-4.4 4.5L95 304.8c5.8 5.9 14.3 14.7 18.9 19.5 4.6 4.8 8.7 8.7 9.2 8.7s2.8-1.8 5.1-3.9l4.2-4-12.1-12.8c-6.7-7-15.5-16.1-19.5-20.1l-7.4-7.2-4.4 4.5zM266.7 268.7c-.4.3-.7 1.7-.7 3 0 2.2-.2 2.3-9.5 2.3-8.3 0-9.6.2-10.5 1.9-.5 1.1-1 2.2-1 2.5 0 .3 4.5.6 10.1.6 10 0 10.1 0 9.6 2.2-.3 1.3-.9 4.4-1.2 7l-.7 4.8h8.7c8.5 0 8.7 0 8.2-2.3-.3-1.2-.9-4.3-1.2-7l-.7-4.7h10.1c5.5 0 10.1-.3 10.1-.8 0-.4-.7-1.5-1.4-2.5-1.1-1.4-2.9-1.7-10.4-1.7h-9l-.7-3c-.6-2.8-1-3-4.9-3-2.4 0-4.6.3-4.9.7z"/></svg>