<svg version="1" xmlns="http://www.w3.org/2000/svg" width="648" height="800" viewBox="0 0 486.000000 600.000000"><path d="M77.5.6c-20.9 2.6-36.3 9.6-50.4 22.8C12.5 37.2 3.7 54.6 1 75c-.8 6-1 57.5-.8 174l.3 165.5 2.8 8.9c9.6 30.6 31.5 52 61.1 59.6 7.7 1.9 11.1 2 179 2l171.2.1 8.7-2.6c30.3-8.8 51.9-31 60.3-62 1.8-6.7 1.9-13.4 1.9-177 0-164.2-.1-170.3-1.9-177.5-2.8-11-6.1-18.5-12.1-27.5-12.3-18.3-28.8-30.1-51.1-36.2C415 .8 399.1.6 247.5.4 155.6.4 79.2.4 77.5.6zm338.3 12c30.3 6.2 53.2 30.1 58.1 60.4.7 4.3 1.1 60.9 1.1 170.8 0 178.9.2 171.3-5.5 185.5-7.2 17.6-23.1 33.1-41.5 40.5-13.3 5.4-6.6 5.2-184 5.2-109.6 0-166.6-.4-170.9-1.1-24.7-4-46.4-20.9-56.1-43.7-6.3-14.9-6-5.8-6-186.4 0-109.3.4-166.5 1.1-170.7C15.9 49.3 31.5 28.4 53 18.2c5.8-2.7 14.1-5.3 21-6.5 1.4-.2 77.1-.5 168.3-.6 148-.1 166.6.1 173.5 1.5z"/><path d="M277.7 82.5c-26.1 3.2-42 8.2-49.6 15.7-5.8 5.6-6.2 7.6-6.1 30.4.1 11.3 0 20.7-.2 20.8-.2.1-9.1-.2-19.8-.8-14-.7-26-.6-42.5.2C99 152 60.6 163.1 52 180.1c-1.8 3.5-2 5.9-2 27.9 0 27.3.3 28.7 8 35.3 15.1 12.9 56.5 22.3 105.3 24 4.8.1 8.7.7 8.7 1.2 0 .6-.5 2.7-1.1 4.7-.6 2.3-.9 21.4-.7 50.1l.3 46.4 3 4.8c8.7 14.1 35.6 23.2 85.5 28.7 17.8 2 75.8 1.7 94-.5 40.4-4.9 66.8-13.1 76.8-24 2.3-2.6 4.7-5.9 5.2-7.3.6-1.5 1-21.7 1-50 0-52.9.2-51.3-6.9-58.2-10-9.7-31.7-17-64.1-21.6-11.5-1.6-33.5-3.5-44.5-3.9-5.7-.2-6.9-.5-6.6-1.7.2-.8.7-3.1 1.2-5s.9-10.7.9-19.5v-16.1l16.2-1.3c37.2-2.9 59.1-10 64.9-21.1 1.7-3.2 1.9-6.2 1.9-34.8 0-24.1-.3-32-1.4-34.5-4.4-10.7-25.8-18.6-59.1-21.7-14.8-1.4-47.5-1.1-60.8.5zm67.8 19.5c14.4 1.9 30.5 6.2 30.5 8 0 1.2-8.4 3.8-19.6 6-30.6 6-78 4.6-104.1-3.1-4-1.2-7.3-2.6-7.3-3 0-2.1 22.2-7 39.6-8.8 10.9-1.2 50-.6 60.9.9zm-92.6 31c31.6 8.2 91.2 7.6 120-1.1 3.5-1 6.5-1.9 6.7-1.9.2 0 .4 4.9.4 10.9v10.8l-6.7 2.2c-17.3 5.4-35 7.5-63.8 7.4-22.5 0-23.3-.1-34.8-3.1-6.4-1.7-16.4-3.9-22.2-4.8l-10.4-1.7-.3-3.1c-.2-1.7-.2-6.6 0-10.9.3-6.8.6-7.8 2-7.2.9.3 5 1.5 9.1 2.5zM380 160.9c0 3.7-.2 3.9-5.2 5.9-11.5 4.6-28.5 7.5-50.6 8.7-11.4.7-12.5.6-14.5-1.2-1.2-1.1-4-3.2-6.2-4.7l-4-2.6h9.5c22.3 0 51.8-3.6 64-7.9 3-1 5.8-1.9 6.3-2 .4 0 .7 1.6.7 3.8zM207.5 168c41.6 2.5 75.2 9.6 86.9 18.5 2.5 1.9 1.5 3-5.6 6.6-11.3 5.7-27.6 9.7-53.5 13.1-14.3 1.8-21.8 2.2-50.3 2.2-42.7.1-64.9-2.1-91-9-12.3-3.3-24.2-8.9-23.8-11.2.2-.9 3.2-3.1 6.8-4.9 16.1-8.1 46.9-13.5 88-15.6 13.3-.7 26.7-.6 42.5.3zM71.6 211.9c.5.5 3.8 1.8 7.3 3 16.7 5.7 41.9 10.1 69.1 12.2 17.3 1.3 69.9.6 84-1.1 23.2-2.8 46.6-7.8 57.9-12.4 5.9-2.4 6.1-2.4 6.1-.5 0 4.1-19.8 10.9-43 14.9-21.6 3.7-40.3 5.1-69.5 5.1-28.2 0-41.8-.8-62-3.7-26.9-3.8-52.5-11.9-52.5-16.6 0-1.9 1-2.3 2.6-.9zm2.5 10.7c10.3 5.3 38.4 11.4 64.4 13.9 20.5 2.1 63 2.3 82.5.6 32.2-2.9 55.3-7.8 73.3-15.6 1.4-.6 1.7-.2 1.7 2.7 0 4.3-1.7 5.9-10 9.6-8 3.6-13.8 4.9-25.5 5.7-10.9.7-31.6 3.8-43.3 6.4-29 6.5-102.4.9-132.6-10-12-4.3-15-6.5-15.4-11.2-.4-4.1.4-4.5 4.9-2.1zM338.5 258c32.9 2.8 58.4 8.2 71.8 15.2 3.1 1.7 5.7 3.6 5.7 4.3 0 3.2-15.7 9.7-32.5 13.4-23.2 5.1-46.7 7.2-80.5 7.2-36.3 0-62.5-2.7-86.5-8.8-9.7-2.4-26.5-9.5-26.5-11.2 0-6.1 34.7-16 67-19 6.3-.6 13.1-1.3 15-1.4 8.4-.9 55.6-.6 66.5.3zM206 306.4c54.3 16.3 159.7 14.6 204.3-3.5l6.7-2.7v51.9l-6.5 3c-13.3 6-32.4 10.3-60.2 13.5-18.8 2.2-70.8 2.5-89.3.6-27.5-2.9-53.1-8.4-65-14.1l-5.5-2.6-.5-25.3c-.3-13.9-.4-25.6-.2-26.1s2-.1 4 .9 7.5 2.9 12.2 4.4zm-2 57.1c35.1 12.1 105.7 15.9 159.1 8.5 21.8-3 37.3-7.1 52.7-13.7 2-.8 1.5 6.1-.5 7.9-9.8 8.6-43.1 16.1-83.3 18.8-51.8 3.4-110.7-3.1-134.3-14.9-6.6-3.3-7.2-3.9-7.8-7.3-.3-2.1-.4-4-.1-4.3.2-.2 2.1.3 4.1 1.1 2 .9 6.5 2.6 10.1 3.9z"/><path d="M306 105c0 1.9-.7 2-8.9 2-5 0-9.3.4-9.6 1-.4.6 2.5 1 8.1 1h8.7l-.6 4-.5 4h15l-.7-2.7c-.3-1.5-.7-3.2-.8-3.8-.1-.6 3.3-1.1 8.6-1.3 11.3-.4 10.6-2.2-1-2.2-7.6 0-8.5-.2-9-2-.4-1.6-1.4-2-4.9-2-3.7 0-4.4.3-4.4 2zM153.1 183.7c-.8 2.1-1.6 4.4-1.8 5-.4 1 6.3 1.3 31.6 1.3H215l-1.9-4.8-1.9-4.7-28.4-.3-28.4-.2-1.3 3.7zM297.6 263.6c-.3.9-.6 2.4-.6 3.5 0 1.8-.8 1.9-10.8 1.9h-10.8l-1.7 3-1.8 3h11.4c6.2 0 11.6.2 11.9.5.5.5.2 2.9-1.6 12.7l-.5 2.8h20.2l-.6-3.8c-.4-2-.9-5.6-1.3-8l-.7-4.2h24.2l-1.7-3-1.7-3h-11.2c-6.2 0-11.2-.3-11.2-.8.1-.4.1-1.9 0-3.5-.1-2.6-.3-2.7-5.5-2.7-4 0-5.5.4-6 1.6z"/></svg>