<svg version="1" xmlns="http://www.w3.org/2000/svg" width="650.667" height="800" viewBox="0 0 488.000000 600.000000"><path d="M73.6 1.1c-9.5 1.3-23 6-31.7 11.1-9.7 5.7-24.1 20.1-29.7 29.7C6.8 51.1 2.4 64.1 1.1 75-.4 86.6-.4 401.3 1 412.8c3.8 30.1 24.5 57.1 52.4 68.2 15.9 6.4 4.9 6.1 193.9 5.8 190.9-.3 172.9.3 189.2-6.5 26.4-11 46.8-38.3 50.5-67.5 1.4-11.5 1.4-326.2-.1-337.8-2.4-19.4-10.2-35.3-24.4-49.5C450.4 13.4 438.9 6.8 422 2.3 416 .7 403.4.6 248 .4 153.9.3 77.5.6 73.6 1.1zM422 13.2c26.9 8.3 46.3 28.5 53.2 55.3 1 4 1.3 40 1.3 175.5v170.5l-2.3 7.8c-7.5 26.1-25.9 44.1-52.8 51.9l-7.9 2.3h-339l-7.9-2.3c-22.4-6.5-38.9-20-48.2-39.7-7.5-15.7-6.9.2-7.2-186.5-.2-112.6.1-169.7.8-174.3 2.4-15.9 9.3-29.2 21.4-41.2C44.2 21.7 58 14.5 72.6 12c2.7-.4 81.2-.7 174.4-.6 156 .1 169.9.3 175 1.8z"/><path d="M319.3 42c-21.9.4-26.5.8-27.8 2.1-1.4 1.4-2.2 5.2-7.5 38.4-1.7 10.2-1.1 13.6 2.6 16 3.6 2.3 3.6 2.3.2 19-2.4 12.1-7.1 26.4-18.2 55.2-12.1 31.6-20.3 58.3-22.2 72.1l-.6 5-11.7.6c-20.7 1-44.4 2.8-53.8 4l-9.3 1.2v-72.5l-11.4-21.8C133.9 112 131 105.9 131 101.9c0-3.2.3-3.9 2-3.9 1.9 0 2-.7 2-20V58H83v20c0 17.1.2 20 1.5 20 1.1 0 1.5 1.2 1.5 4.7 0 3.9-1.4 7.4-8.9 21.7-4.9 9.4-13.6 26.4-19.5 37.7L47 182.8v94.7c0 69 .3 95.8 1.2 98.6 1.5 5.3 6.8 11.2 12.3 13.8 4.1 1.9 6.1 2.1 25.9 2.1h21.5l3.2 6.8c5 10.3 17.5 22.2 30.4 28.9 15.7 8.1 34.7 13.2 61.5 16.5 16.9 2.1 76.1 1.8 93-.5 36.5-4.9 59.3-13.3 73.6-26.9l4.1-3.9h22.9c24.8.1 28.6-.5 30.8-4.7 3-5.8 9-32.6 11.8-52.2 2-14.5 1.7-51.8-.6-65.5-5.6-33.7-13.8-53.9-36.6-89.5-18.2-28.5-24.2-38.8-32.4-55-8.6-17.1-10.9-22.8-13.6-33.4-2.7-10.7-2.6-11.8 1.1-13.5 5.6-2.4 5.6-4 1.5-26.4-4.6-24.8-5.1-27-7.3-28.9-2.7-2.3-3.6-2.4-32-1.8zM309 70c0 6.6.1 12.3.3 12.7.1.5-1.7.9-4 1.1-5.1.4-5 1.2-2.6-14.5 1.6-10.7 1.8-11.3 4-11.3 2.3 0 2.3.1 2.3 12zm10.8.7l-.3 12.8h-5l-.3-12.8-.3-12.7h6.2l-.3 12.7zm19.7-10.5c2.5 11.2 4.2 22.5 3.6 23.1-.5.5-2.4.7-4.2.5l-3.4-.3-.3-12.8C335 58.6 335 58 337 58c1.2 0 2.1.8 2.5 2.2zM115 104.6c0 5.6.5 7.4 4.4 14.6 2.3 4.6 8.5 16.4 13.6 26.3 5.1 9.9 11 21.2 13.1 25.2 2.2 3.9 3.9 7.4 3.9 7.7 0 .3-18.5.6-41.1.6h-41l.7-2.3c.3-1.2 1-2.7 1.4-3.2.4-.6 4.4-8.2 9-17 4.5-8.8 11.8-22.8 16.1-31.1 7.5-14.3 7.9-15.5 7.9-21.5v-6.4l6 .3 6 .4v6.4zm223.2 2.2c2.3 21.2 18.5 54.4 50 103 16.8 25.9 23.4 39.6 29.2 60.2 9.7 34.8 9.5 75.1-.7 116.5l-2.2 9-14.2.3c-7.9.1-14.3 0-14.3-.3s.9-3.2 2-6.5 2.7-10.8 3.5-16.7c2.3-16.4 4-21.1 10.2-28.9 6.7-8.4 7.3-9.8 7.3-18 0-3.6.5-10.9 1.1-16.2 1.8-14.8-.8-29.3-8.8-48.7-9.9-24.5-25.2-49.4-37.8-62.1-13.8-13.7-27.6-15.2-35.9-4.1-1.8 2.4-2.1 4.2-2 11 .1 7.6.7 9.8 7.7 28.7 4.1 11.3 7.8 21.3 8.2 22.2.9 2.2-.2 2.3-11 .3-13.4-2.3-35.5-4.6-52.2-5.3l-15.8-.7.3-3.5c1-10.7 8.3-34.3 21-68 15.2-40.4 19.2-53.5 21.3-70.1l1.2-8.9 15.6.2 15.6.3.7 6.3zM154 218.5V247H63v-57h91v28.5zM348.8 207c5.5 4.4 13.7 14.7 20.2 25.5 8 13.2 19.8 38 18.6 39.2-.3.3-4-.9-8.3-2.5-4.3-1.7-10.2-3.9-13.2-4.9l-5.4-1.8-2.8-8c-1.5-4.4-5.3-15.2-8.4-24-10.5-29.3-10.6-31.3-.7-23.5zM154 255.4c0 3.3-.1 3.4-5.7 4.5-4.1.8-17.7 1.1-45.3.9l-39.5-.3-.3-2.8c-.7-6-3.3-5.7 45.8-5.7h45v3.4zM122.5 267c-.3.5-1.2 1-1.8 1-.7 0-4.6 1.6-8.6 3.5l-7.3 3.5-20.7-.2-20.6-.3-.3-2.8c-.7-5.9-1.8-5.7 30.3-5.7 19.5 0 29.4.3 29 1zm165 1c51.4 4.1 91.9 14.5 104 26.6 4 4 4.3 5.9 1.2 9.5-9.9 11.5-45.2 21.7-93.2 26.9-15.7 1.7-66.8 2.4-86 1.1-55.2-3.6-100.8-15.6-110.2-29-4.4-6.4 5.8-14.2 28.3-21.6 18.2-6 48.1-11.3 75.9-13.4 15.7-1.2 65.9-1.2 80-.1zM92.9 283.7c-1.8 2.1-3.8 4.1-4.4 4.5-.5.5-6.4.7-13 .6l-12-.3-.3-4.3-.3-4.2h33.5l-3.5 3.7zm-7.3 13.4c-.3 1.7-.6 3.7-.6 4.3 0 .8-3.3 1-11 .8l-11-.3V294H86.3l-.7 3.1zm.2 14.7l.3 4.3-11.3-.3-11.3-.3-.3-2.8c-.7-5.6-.2-5.8 11.5-5.5l10.8.3.3 4.3zm.2 13.7v4.6l-11.2-.3-11.3-.3-.3-2.8c-.6-5.5-.2-5.7 11.8-5.7h11v4.5zm36.1 7.1c57.5 19.7 159.7 22.7 228.9 6.8 13.3-3.1 27.9-7.9 35.1-11.5 8-4 9-2.6 3.3 4.3-8.6 10.2-11.4 17.3-13.8 35-2.5 18-5.7 25.8-14 34.6-11.1 11.8-31 19.9-59.6 24.2-29.3 4.5-77.7 4.7-106.6.4-25.5-3.7-48.1-12-58.8-21.5-9.9-8.7-13.9-17.7-16.7-36.6-2.7-18.7-6.8-29.2-14.4-36.3-1.5-1.4-2.5-3.5-2.5-5.1v-2.7l5.9 2.9c3.2 1.6 9.2 4.1 13.2 5.5zM90.3 339l2.8 4H63v-8h24.5l2.8 4zm9.3 13.6c.8 1.8 1.4 3.6 1.4 3.9 0 .3-8.5.5-19 .5H63v-8l16.8-.2c9.2-.2 17.1-.1 17.6.1.4.2 1.4 1.8 2.2 3.7zm2.7 10.1c.3.5.7 3.5.8 6.8l.4 6H85.3c-20.3 0-20.9-.2-22-6.8-1.1-6.8-1.5-6.7 19.6-6.7 10.4 0 19.2.3 19.4.7z"/><path d="M128.6 360.6c-2.3 2.3-2 6.1.7 7.8 2.7 1.7 19.3 5.8 34.5 8.5 12.1 2.2 15.5 1.8 16.8-2.1 1.1-3.6-2-6.5-7.8-7.3-7.6-1-28.1-5.2-34.1-7-6.4-1.9-8.2-1.9-10.1.1zM353.5 361.6c-12.7 3.4-34.1 7-54 9.1-13.1 1.3-25.8 1.7-55.3 1.8-35.7 0-38.5.1-39.7 1.8-1.5 2-1 5.1 1.1 6.8 2.4 2 39.4 3.1 64.9 2 34.9-1.6 58.7-4.6 84.4-10.7 13.4-3.2 17-6.5 12.1-11.4-2.4-2.4-2.2-2.4-13.5.6z"/></svg>