<svg version="1" xmlns="http://www.w3.org/2000/svg" width="557.333" height="800" viewBox="0 0 418.000000 600.000000"><path d="M66 .6c-9.7 1.5-15.3 2.9-20.5 5.2C24.3 14.9 7.8 33.9 2.3 55.6.6 62.1.5 71.7.5 209c0 164.7-.6 151.8 7.6 168.5 7.4 15.2 18.4 26 34.4 33.6 15.2 7.2 7 6.9 166.5 6.9 159.7 0 150.9.4 166.8-7 19.8-9.3 34-26.5 39.8-48.5 1.8-6.7 1.9-13.6 1.9-153.5 0-163.5.5-152-7-167.1-11.2-22.6-31.4-37.4-55.9-40.8C347.4.1 72.6-.3 66 .6zm296 11.1c8.8 2.8 11.6 4.1 18 8.4 11.9 7.9 22.4 22.3 26.6 36.4 1.6 5.5 1.8 13 2.1 90.9.4 81.3.3 84.8-1.4 84.3-1-.3-9.8-3.8-19.5-7.8l-17.8-7.2V200c0-19.4.8-17.8-12-23.8-4.7-2.2-25.1-11.7-45.5-21.2-20.3-9.5-38.5-17.9-40.3-18.7-3-1.2-4-1.2-10.2.8l-6.8 2.2-24.4-9.1c-13.4-5.1-36.4-13.8-51.2-19.5l-27-10.4-10.5 6.7c-5.8 3.7-18.8 11.9-28.8 18.2-9.9 6.4-23.9 14.8-31 18.8-7 4-17.7 10.1-23.8 13.5-6 3.4-16.1 9-22.3 12.5-6.2 3.5-11.7 7.1-12.2 8.1-1.3 2.3-1.3 21.5-.1 23.8.6 1 2.8 3 5 4.6 2.3 1.5 4.1 3.1 4.1 3.5 0 .5-2 2.1-4.5 3.7-5.5 3.4-5.8 4.5-5.3 22.6.3 11.9.5 13.8 2.2 15 1.6 1.2 82 38 161.1 73.7 15.4 7 30.5 13.9 33.5 15.3 26.4 12.2 50 22.7 51.3 22.7 1.3 0 9.9-6.4 15.3-11.5.6-.5 3.6-3 6.5-5.5 3-2.5 7.4-6.3 9.9-8.5 15-13.5 16.8-14.8 20.6-14.1 1.9.4 4.1.9 4.9 1.2.9.4 4.5-4.1 10.3-12.5 7.7-11.3 10.5-14.4 20.6-23.1 29.7-25.6 34.7-29.9 40.8-35.3 3.6-3.1 7-5.7 7.7-5.7 1.5 0 1.6 94.6 0 105.6-2.9 21.3-15.4 38.9-34.2 48.3-15.2 7.6-6.6 7.2-168.7 6.9l-144.5-.3-6.5-2.3c-24.6-8.3-41.1-28.7-44-54.4-.8-6.3-1-53.9-.8-149.3.4-156.6-.2-143.9 7.6-159C21.7 34 34 21.7 43.5 16.8 49.6 13.7 58.4 11 67 9.6c1.4-.2 66.9-.3 145.5-.2 142.6.1 143 .1 149.5 2.3zM180.1 124.4c12.3 4.6 29.6 11 38.4 14.1 8.8 3.2 16.4 6.2 16.8 6.5.5.4-5.1 1.3-12.3 2-11.2 1.1-13 1.5-12.6 2.9 1 3.5 1.8 9.1 1.2 9.1-.6 0-8.4-3.6-33-15.4-8.7-4.2-16.4-7.6-17.1-7.6-.6 0-9.4 3.9-19.6 8.6-10.1 4.7-23.1 10.8-28.9 13.4-5.8 2.6-15 6.9-20.5 9.5-5.5 2.6-12 5.6-14.5 6.7-2.5 1.1-10.7 4.9-18.3 8.5L46 189.1l-4.5-2.7c-2.5-1.4-4.5-2.7-4.5-2.9 0-.2 6.9-4.1 15.3-8.8 21-11.7 44.4-24.8 76.7-43.1 15.1-8.5 27.8-15.5 28.1-15.6.3 0 10.7 3.8 23 8.4zm-26.2 19.8c-2.4 1.7-14.4 10.5-26.6 19.6L105 180.2v14.4l28.1 2 28 1.9 7.7-6.3c4.2-3.5 8.1-6.7 8.5-7.1.4-.4.4-3.3-.1-6.4l-.9-5.7H201v-15l7.4 3.7c6.2 3.2 8.3 5 13 11 3.1 3.9 5.6 7.4 5.6 7.8 0 .3-3.4 6.7-7.5 14.2-4.1 7.4-7.5 13.9-7.5 14.3 0 .4-7.3 3.5-16.2 7-9 3.5-21.5 8.3-27.8 10.8-6.3 2.5-15.1 5.6-19.4 6.8l-7.9 2.4-5.6-2.6c-3.1-1.5-13-6.3-22.1-10.7-9.1-4.3-20.1-9.6-24.5-11.7-25.2-11.8-40.4-19.5-39.8-20 .5-.4 8.2-4.1 17.3-8.3 9.1-4.1 27.3-12.6 40.5-18.7s27.1-12.6 31-14.3c3.8-1.8 9.4-4.4 12.5-5.9 7.5-3.6 9.3-3.5 3.9.4zm27.1 5c16.9 7.1 17.1 7.3 16.8 10.1l-.3 2.9-13.7.1c-7.6 0-13.8.3-13.8.7 0 .4.7 2.4 1.6 4.5l1.5 3.8-6.8 6.3-6.8 6.4-8-.5c-4.4-.3-12-1-17-1.5-4.9-.5-12.3-1.2-16.2-1.6-4-.3-7.3-.9-7.3-1.3 0-.3 1.7-1.7 3.7-3s10.4-7.4 18.7-13.5c25.4-18.8 27.9-20.6 29.2-20.6.7 0 9 3.3 18.4 7.2zm68.5.8l5.8 2 6.6-2.1 6.6-2.1 38 17.7c20.9 9.8 41 19.1 44.8 20.8l6.7 3.1v11.3L343.5 211c-7.9 5.6-14.2 10.7-13.8 11.3.3.6.1.7-.4.4-.6-.4-13.4 8.2-28.4 19-15.1 10.8-32 22.9-37.7 27l-10.3 7.3-25.7-11.9c-14.1-6.5-34-15.8-44.2-20.6-10.2-4.8-19.3-8.9-20.2-9.2-1-.3-1.8-.9-1.8-1.3 0-.6 34.8-14.4 47-18.5 4.4-1.5 4.7-1.8 13.3-17.6 4.9-8.8 8.6-16.6 8.4-17.3-.3-.8-3.5-5.2-7.2-10-6.4-8.3-8.5-12.6-8.5-17.3 0-2.1.5-2.3 5.3-2.4 2.8 0 7.5-.4 10.2-.9 8.7-1.3 14-1.1 20 1zm-75 29.2c.8 4.6 1.4 3.9-10 12.7l-5 3.9-25-1.8c-13.7-1.1-25.3-1.9-25.7-2-.5 0-.8-2.3-.8-5.1v-5.1l3.3.5c1.7.4 13.5 1.6 26.1 2.8l22.9 2.1 6.1-6.1c3.3-3.4 6.4-6.1 6.8-6.1.3 0 .9 1.9 1.3 4.2zM64 202.3c4.1 1.9 15.2 7.2 24.5 11.7 9.4 4.5 20.3 9.8 24.4 11.7 4 1.9 14.8 7.1 24 11.5 9.1 4.4 24.5 11.7 34.1 16.3 9.6 4.5 25.8 12.3 36 17.2 10.2 4.9 27.8 13.4 39.3 18.8l20.7 9.8v12.6l-8.2-3.8c-4.6-2.1-33.5-16.1-64.3-31.1-30.8-15-62.7-30.5-71-34.5-8.2-4-28-13.6-43.9-21.4-15.9-7.7-29.1-14.1-29.3-14.1-.2 0-2-1.2-3.9-2.6-3.1-2.4-3.4-3-2.8-6.3.4-2 .9-3.9 1.1-4.3.2-.4 3 .5 6.1 2.1 3.1 1.6 9.1 4.5 13.2 6.4zm294 6.6c0 3.5-.5 4.3-4.2 6.9-2.4 1.6-19.8 14.1-38.8 27.8-48.9 35.4-58.8 42.4-59.4 42.4-.3 0-.6-1.9-.6-4.3l.1-4.2 17.2-12.2c9.5-6.8 32.3-23.1 50.7-36.3 18.4-13.2 33.8-24 34.3-24 .4 0 .7 1.8.7 3.9zM67 218c5.5 2.8 10 5.2 10 5.4 0 .2-3.1 2.8-7 5.7-3.8 3-7 5.8-7 6.2 0 1.4-3.9.1-15-5.1l-10.4-5 4.8-3.3c2.7-1.9 6.5-4.6 8.5-6.1s4.2-2.7 4.9-2.7c.7-.1 5.7 2.2 11.2 4.9zm297.9 9.5c7.5 3 17.8 7.2 22.9 9.4l9.3 3.8-4.3 3.6c-4.1 3.5-4.3 3.5-4.6 1.4-.3-1.8-4-3.9-20.3-11.6-10.9-5.2-19.9-9.8-19.9-10.1 0-1 1.2-2 2.4-2 .5 0 7.1 2.5 14.5 5.5zm-252.4 12.6c16 7.8 40.7 19.9 55 26.8 14.3 7 26.9 13.3 28 14l2 1.2-2-.4c-1.1-.2-14.1-4.1-29-8.7-14.8-4.5-32.4-9.8-39-11.7-10.3-3-57.4-22.9-59.8-25.2-1.4-1.3 11.5-11.2 13.8-10.7 1.2.3 15.1 6.9 31 14.7zm-58.8-4.5C107 259.7 185.5 295 194.5 299c2.8 1.2 9.7 4.4 15.5 7 12.3 5.5 47.8 21.1 53.3 23.4l3.7 1.5v8.5c0 4.8-.2 8.6-.4 8.6-.9 0-28.8-12.6-121.6-55-19.5-8.9-41.8-19.1-49.5-22.5-7.7-3.5-24.3-11.1-37-16.8l-23-10.5-.3-7.6c-.2-4.3.1-7.6.7-7.6.5 0 8.5 3.4 17.8 7.6zm294.1-4.8l5.2 2.7-8.7 6.7c-4.9 3.7-23.4 17.6-41.3 30.9-17.9 13.3-33 24.6-33.7 25.1-.7.6-3.4-.2-7.8-2.5l-6.7-3.3 7.6-5.5c4.2-3 12.3-8.8 18-12.9 15.5-11.3 15.5-11.3 39.1-28.2 12.1-8.7 22.2-15.8 22.5-15.8.3.1 2.9 1.3 5.8 2.8zm-162.6 16.8c16.1 7.5 35.8 16.7 43.8 20.4 24.1 11.1 23 10.4 23 15 0 2.2-.2 4-.5 4-.5 0-37.6-17.2-79-36.7-9.9-4.7-20-9.4-22.5-10.6l-4.5-2 5-1.8c2.8-1 5.1-1.8 5.2-1.8 0-.1 13.3 6 29.5 13.5zm176.3-10c3 1.5 5.2 3.1 4.9 3.6-.3.5-4 3.3-8.2 6.3-8.1 5.7-25 18-51.5 37.4-8.7 6.4-16.8 12.3-18 13.1-1.2.8-5.3 3.7-9.2 6.5-3.8 2.8-7.6 5.4-8.2 5.9-1 .5-1.3-.7-1.3-5.3v-6l32.8-24.5c18-13.4 37.2-27.8 42.7-31.9 5.5-4.2 10.1-7.6 10.3-7.6.2-.1 2.8 1.1 5.7 2.5zm18.2 5.1c3.4 1.6 6.3 3 6.3 3.3 0 1-12.8 10-14.2 9.9-.7 0-4-1.3-7.2-2.8l-5.9-2.7 6.9-5.2c3.8-2.8 7.1-5.2 7.4-5.2.3 0 3.3 1.2 6.7 2.7zm-15.5 13c4.8 2 6.7 3.2 6.5 4.3-.2.8-4 6.7-8.4 13-4.3 6.3-13.2 19.4-19.7 29-6.6 9.6-12.4 18-13 18.7-1.1 1.2-1.2 1.2-38.3-10-5.7-1.6-10.3-3.4-10.3-3.8 0-.5 1-1.3 2.1-2 1.2-.6 9-6.1 17.3-12.2 8.3-6 17.4-12.6 20.1-14.5 5.5-3.9 16.2-11.8 27-19.9 3.9-2.8 7.6-5.2 8.4-5.3.8 0 4.6 1.2 8.3 2.7zM171 277.2l46.5 14 24 11.6c13.2 6.3 24.5 11.9 25.2 12.4.8.7 2.7-.1 5.8-2.3 4.5-3.2 4.6-3.3 9.8-2 2.8.8 5.8 1.7 6.5 2 .8.5-2.6 3.4-9.4 8-8.1 5.5-11.1 7.1-12.9 6.7-2-.5-36.8-15.7-53.5-23.3-3-1.4-9.3-4.2-14-6.3-4.7-2.1-17-7.6-27.5-12.3-10.4-4.7-25.7-11.5-34-15.2-8.2-3.7-15.4-7.2-16-7.7-.7-.8-.4-.9 1-.4 1.1.4 22.9 7.1 48.5 14.8zm130.3 39.4c2.6.9 4.7 1.9 4.6 2.2 0 .6-15.7 14.3-32 28l-3.9 3.4v-9.9l.1-9.8 11.2-7.7c6.2-4.3 12.1-7.8 13.3-7.8 1.1 0 4.1.7 6.7 1.6z"/></svg>