<svg version="1" xmlns="http://www.w3.org/2000/svg" viewBox="0 0 488.000000 488.000000"><path d="M77.5.6c-20.9 2.6-36.3 9.6-50.4 22.8C12.5 37.2 3.7 54.6 1 75c-.8 6-1 57.5-.8 174l.3 165.5 2.8 8.9c8.1 25.8 23.5 43.6 47 54.6 17.3 8 3.1 7.5 194.2 7.5h170l8.8-2.8c31-9.7 52-31.3 60.3-62.2 1.8-6.7 1.9-13.4 1.9-177 0-164.2-.1-170.3-1.9-177.5-2.8-10.9-6.1-18.5-12.1-27.5-11.9-18.1-28.8-30.1-51.1-36.2C415 .8 399.1.6 247.5.4 155.6.4 79.2.4 77.5.6zm338.3 12c30.3 6.2 53.2 30.1 58.1 60.4.7 4.3 1.1 60.9 1.1 170.8 0 178.9.2 171.3-5.5 185.5-7.2 17.6-23.1 33.1-41.5 40.5-13.3 5.4-6.5 5.2-184.8 5.2-177.7 0-172.1.1-185.1-5-17.8-7-33.7-22.3-41.1-39.8-6.3-14.9-6-5.8-6-186.4 0-109.3.4-166.5 1.1-170.7C15.9 49.3 31.5 28.4 53 18.2c5.8-2.7 14.1-5.3 21-6.5 1.4-.2 77.1-.5 168.3-.6 148-.1 166.6.1 173.5 1.5z"/><path d="M190.3 58C134.2 66.5 89.9 133.6 83 220.4c-3.9 50 5.1 99.5 25.4 138.8 8 15.6 17.1 28.2 28.1 39.3 14.4 14.4 27.9 22.7 45.2 27.7 7.7 2.3 8.7 2.3 61.3 2.3 52.4 0 53.7-.1 61.4-2.3 48.7-13.7 85.5-68.3 96.8-143.2 2.9-19.2 3.1-57.9.5-77-8-57.1-31.1-103.7-64.1-129.2-10.7-8.3-19.2-12.8-31.3-16.5l-8.8-2.7-51-.2c-28-.1-53.3.1-56.2.6zm27.2 17.6c8 1.9 20.5 8.1 28.6 14.2 32.7 24.8 56 79.6 58.7 138.2 3 63-13.3 119.2-45 155.2-11.8 13.3-26.2 22.8-41.3 26.9-10.5 2.9-27.7 2.4-37.4-1.1-24.6-8.7-45.4-30.2-61-63.1-29.5-62.2-28.8-148.5 1.6-209.4 23.7-47.2 59-69.7 95.8-60.9zm80.6-.6c10.1 2.6 24.6 9.8 31.4 15.6l2.6 2.2-5.3 7.6c-2.9 4.1-5.8 7.5-6.4 7.6-.7 0-12.2-4.2-25.6-9.3-24.2-9.1-24.6-9.3-31.7-15.7-4-3.6-7.9-6.9-8.7-7.3-.8-.4-1.4-1.2-1.4-1.6 0-1.2 39.9-.5 45.1.9zm47.5 31.7c.8 1 4.4 6.2 8 11.5l6.7 9.6-10.8 13.6c-5.9 7.5-10.8 13.6-11 13.6-.1 0-4.2-2.2-9.1-5-4.9-2.7-13.7-7.5-19.5-10.7l-10.6-5.7-5.1-9.5c-2.9-5.2-5.1-9.5-5-9.6.2-.2 8.5 2.9 18.6 6.6 10.1 3.8 18.7 6.7 19.2 6.4.4-.3 4.3-5.4 8.6-11.5 4.3-6 8-11 8.2-11 .3 0 1.1.8 1.8 1.7zm23.9 40c2.6 6.7 9.3 27.4 9.8 30.3.6 3.4.5 3.6-8.5 10.5-5 3.8-9.6 7.5-10.2 8-.6.6-3.7 3-6.8 5.4l-5.8 4.3-15.4-7.3-15.5-7.4-1.6-7.5c-.9-4.1-2.8-11.3-4.1-15.9-1.3-4.7-2.2-8.6-2-8.8.3-.4 3.3 1.2 22.3 11.8 5.9 3.2 10.7 5.9 10.8 5.9.1 0 5.7-7 12.5-15.5 6.7-8.5 12.6-15.5 13-15.5.4 0 1.1.8 1.5 1.7zm16 62.9c1.5 11.5 2.2 25 1.5 25.7-.3.2-9 6.1-19.4 13-11.2 7.5-19.4 12.3-20 11.9-.6-.5-6.6-5.2-13.3-10.6-11-8.8-12.3-10.2-12.3-13 0-1.7-.5-8.3-1-14.6-.5-6.3-.8-11.5-.6-11.7.1-.2 6.8 2.8 14.9 6.7 8 3.8 14.8 7 15 7 .2 0 7.8-5.8 16.7-13 9-7.1 16.5-12.8 16.7-12.6.2.2 1 5.2 1.8 11.2zm0 66.6c-1.3 10.4-1.9 12.5-3.7 13.8-1.8 1.3-17.4 10.5-32.1 18.9l-5.4 3.1-7.9-9.7c-18.9-23.1-17.2-20.3-16.3-26.4.4-3 .8-7.5.8-10.2.1-2.6.5-4.7 1.1-4.7.5 0 2.7 1.5 4.7 3.3 4.6 4 18.3 15.1 20 16.1.7.4 9.1-4.6 20.5-12.2l19.3-12.9.3 4.3c.2 2.4-.4 9.9-1.3 16.6zM328.4 318c6.4 7.7 12.2 14 12.9 14 .6 0 2.7-.9 4.4-2 13.2-8 31.6-18.1 32.1-17.6.8.9-4.9 18.2-9.3 28.3l-3.4 7.8-20.6 3.6c-13.7 2.3-20.8 3.2-21.3 2.5-.3-.6-3.7-7-7.4-14.3l-6.7-13.2 3.2-11.6c1.7-6.3 3.5-11.5 3.9-11.5.3 0 5.9 6.3 12.2 14zm-14 55.7c0 .1 8.9-1.4 19.6-3.2 10.7-1.9 19.6-3.2 19.8-3 .6.5-7.6 11-13.9 17.9l-5.1 5.6h-40.4l-4.7-6.5c-2.6-3.6-4.7-6.7-4.7-7 0-.2 1.7-3.1 3.8-6.3 2.1-3.2 5.8-9.8 8.2-14.6l4.4-8.8 6.4 12.8c3.5 7.1 6.5 13 6.6 13.1zm-33.9 26.1l5 7.1 11.5.1c12.3.1 12.9.8 2.6 3.7-5.4 1.5-46.6 2.7-46.6 1.4 0-.4 2.9-3.1 6.4-5.9 3.6-2.8 8.2-7.2 10.2-9.7 2.1-2.5 4.3-4.4 4.9-4.2.5.2 3.3 3.6 6 7.5z"/><path d="M192.9 135c-8.3 2.5-20.2 13.3-26.7 24.2-7.4 12.4-13.5 31.5-16.8 52.4-2.3 14.7-2.3 47.7 0 62.4 4.3 27.8 13.4 50.9 25.3 64.5 7.3 8.3 17.8 13.5 27.2 13.5 9.8 0 16.4-3.1 25.1-11.9 12.1-12.2 20.4-30.2 25.5-55.6 9.4-46.2 2-100.2-17.6-129.6-5.5-8.1-14.8-16.3-21.4-18.8-5.7-2.2-15.5-2.7-20.6-1.1zm16 16.9c6.6 3.4 6.7 4 2.3 12.8-9.8 19.5-14.7 41.4-15.9 70.3-1.2 32.9 4.4 63.5 15.8 86.3 4.5 8.8 4.4 9.4-2.2 12.8-7.4 3.7-13.6 2-21.1-5.7-9-9.4-17.6-29.8-21.2-50.4-3.5-19.6-3.5-51.1-.1-69.9 3.9-21.5 12.6-42 21.5-50.7 7.8-7.7 13.6-9.2 20.9-5.5zm21.1 28.9c11.7 31.1 13.3 77.7 4 111.3-1.6 5.9-4.1 13.3-5.5 16.5-3 6.9-3 6.9-7.7-6-13-35.5-12.4-87.1 1.4-122.9 3.5-9.1 4-9.1 7.8 1.1z"/></svg>