<svg version="1" xmlns="http://www.w3.org/2000/svg" width="652" height="800" viewBox="0 0 489.000000 600.000000"><path d="M69 2.5c-32.3 6.7-56.9 29.7-66.1 62l-2.3 8L.2 238C0 354.5.2 406.4 1 413.2c1.8 15.8 6.9 28.5 16.6 41.4 11.7 15.7 26.5 25.7 46.2 31.2l9.7 2.7h342l8.5-2.3c35.3-9.4 60-37.6 64-73 .8-6.8 1-58.7.8-175.2l-.4-165.5-2.3-8c-8.3-29.4-29.8-51.2-59.7-60.8l-6.9-2.2-172-.2C106.9 1.2 74.3 1.4 69 2.5zm82.6 10.3c-.3.5-6 4.8-12.8 9.5-32.6 22.9-37.4 26.5-38.6 29-1.2 2.4-1.7 2.6-5.5 2.1-4.2-.6-4.5-.5-15.3 8.6-6 5-11.4 9.8-12 10.6-.6.8-1.4 4.4-1.8 8.1-.6 5.5-1.5 8.2-4.9 13.8l-4.2 7-.3 48.9c-.2 43.1-.1 49.2 1.3 51.3 1.8 2.7 14.2 10.9 17.8 11.8 1.8.5 4.6-1.1 12.7-6.9 5.8-4.2 11-7.6 11.5-7.6.6 0 8.7 3.6 18 8l17 7.9.3 8.9c.2 7.1.6 9.3 2.1 10.6 1.8 1.6 20.5 9.6 22.5 9.6.7 0 4.5-2.1 8.5-4.6 8-4.9 8.7-5 16.5-1.4 2.2 1 9.3 4.1 15.6 6.9l11.5 4.9.5 15.9c.3 8.7 1 16.5 1.5 17.4 1.3 2.1 17.8 10.9 20.4 10.9 2.4 0 4.8-1.3 19.9-10.9 6.3-3.9 12-7.1 12.7-7.1.7 0 5 1.8 9.6 4.1 4.5 2.2 11.1 5.4 14.5 7l6.3 2.8.3 17c.3 15.5.5 17.2 2.3 19 1.8 1.8 3.8 2.1 22 2.6l20 .6 18.5-14.6c33.8-26.8 45.4-36 49-38.7 1.9-1.4 7.6-5.8 12.5-9.8 5-3.9 12.2-9.6 16.2-12.6 8.1-6.2 9.7-9.3 9.1-17.5-.2-4.1 0-4.8 1.2-4.3 5.9 2.3 7.1 1.8 18.5-7.7l11-9.2.3 13.4c.1 7.4.1 53 0 101.4l-.3 88-2.4 7c-8.7 25.9-26.6 43.3-52.6 51.1-5.7 1.7-15.4 1.9-174.5 2.1-153.2.3-169.3.2-177-1.3-27-5.2-49.2-25.6-57.1-52.4-1.9-6.6-2.2-10.5-2.6-32.3-.3-13.7-.1-24.7.4-24.7.7 0 14.6 6.2 36.3 16.2 13.8 6.4 18.8 8.7 23.5 10.8 2.8 1.3 9.3 4.3 14.5 6.7 5.2 2.5 16.9 7.9 26 12.2l16.5 7.6h17.7c20.8 0 20.6.1 23.8-10.9 1.1-3.8 2.1-7 2.2-7.1.2-.1 8.2-3.5 17.8-7.5 9.6-4.1 18.5-8.3 19.8-9.4 2.2-1.9 2.2-2.4 2.2-23.4v-21.4l-3.5-8.1c-3.1-7.1-3.5-9.2-3.4-15.2.2-6.5-.3-8.1-5.7-21.5l-5.9-14.5-5.5-2.7c-3-1.5-21.5-9.7-41-18.2s-55.3-24-79.5-34.6c-24.2-10.6-46.8-20.4-50.3-21.8l-6.3-2.6.3-64.5c.4-62.8.4-64.8 2.5-71.4 6.8-21.3 20.5-37.6 39.2-46.5 13.9-6.7 17-7 60.4-7.1 21.4-.1 38.6.3 38.3.7zm97.3 1.2c-1.5 1.1-16.3 12.6-33 25.5-20.4 15.9-31 23.5-32.6 23.5-1.4 0-2.3.5-2.1 1.1.4 1.2 6.4 4 47.8 22.6 12.9 5.8 28.5 12.8 34.5 15.5 30.7 13.9 43.1 19.5 54.3 24.6 10.6 4.8 12.6 5.4 14.3 4.4 1.1-.7 7-5.2 13.2-10 6.2-4.9 18.2-14.2 26.7-20.8 8.5-6.6 23.6-18.3 33.4-26 9.8-7.6 21.1-16.4 25.1-19.4 15.2-11.7 14.2-10.6 12.1-12.9-1.1-1.2-2.3-2.1-2.7-2.1-.5 0-3.7-1.3-7.1-2.8-3.5-1.6-17.9-7.8-32.1-13.8L375 12.5l19.2-.3c15.3-.2 20.8.1 26.3 1.4 8.1 1.9 19.3 6.8 26 11.4 8.5 5.8 18.7 17.7 23.8 27.5 1.9 3.8 5.8 15.7 5.3 16.2-.2.2-6.4 4.9-13.7 10.3-7.4 5.4-17.9 13.3-23.4 17.4-5.5 4.1-14.7 11-20.4 15.2-9 6.7-10.1 7.8-8.5 8.7 1.1.6 2.1 1.3 2.4 1.7.3.4 2.2 1.8 4.2 3.1l3.7 2.5-12.1 8c-6.7 4.3-12.5 8-13 8.2-.4.2-.8-2.4-.8-5.7 0-3.4-.2-6.1-.5-6.1s-4.3 2.9-8.8 6.5c-4.5 3.5-14.1 11.1-21.3 16.7-13.4 10.6-16 12.6-25.1 19.8-2.9 2.3-5.3 4.5-5.2 4.8 0 .4 2.7 2.7 6 5.1 3.3 2.4 5.9 4.7 5.7 5.2-.2.4-3.5 4.1-7.3 8.1-10.4 10.8-9.8 9.1-6.6 19.4l2.9 8.9.7 44.7.7 44.8h-6.5c-3.5 0-9.2-.3-12.6-.6l-6.2-.7.3-16.7.3-16.7L290 272c-11.3-5.2-23.9-11-28-12.8-4.1-1.9-12.2-5.6-17.9-8.3-5.7-2.7-10.5-4.9-10.7-4.9-.2 0-3.2-1.4-6.6-3.1-3.5-1.7-15.1-7-25.8-11.9-23.8-10.7-53-24.1-66.5-30.5-20.4-9.6-54-24.7-55.5-24.8-1.2-.2-1.5 1.6-1.7 10.3-.1 5.8-.2 11.1-.3 11.7 0 1.9-1.8 1.6-5.1-.8l-2.9-2v-88.1l4.5-8.2C76 94 78 89.2 78 87.8c0-6.8 1.2-8.8 8.7-14.9 7-5.8 7.5-6 10.5-5 7.2 2.5 10.9.5 13.5-7.4.8-2.4 5.5-6.2 21.9-17.9 11.5-8.2 25.9-18.4 31.9-22.7l11-7.9h38l38 .1-2.6 1.9zm128.4 6.6c11.1 4.8 28.8 12.2 39.2 16.6 10.5 4.4 19.3 8.3 19.7 8.7.4.3-4.2 4.5-10.4 9.1-6.1 4.7-12.8 9.8-14.9 11.5-4.5 3.5-23.8 18.4-34.9 27-4.2 3.3-15.5 12.1-25.1 19.5l-19 14.8c-1.5 1-2.8.8-8.1-1.7-3.5-1.6-23.9-10.7-45.3-20.4-21.5-9.6-41.9-18.8-45.5-20.4-3.6-1.7-14.3-6.5-23.8-10.8-13.6-6.2-17-8.1-16-9 1.2-1.1 43.9-34.3 55.2-42.9 2.8-2.1 6.9-5.4 9.1-7.2l4-3.4h95.6l20.2 8.6zM474 141c-.5 32.7-1 60.5-1 61.7 0 1.8-1.7 3.2-8.7 6.8-12.6 6.4-21.7 11.7-22.1 12.6-.2.5-.9.9-1.6.9-1 0-1.4-9.8-2-44.6-.5-33.2-1-45.5-2-47.8-1.3-3-5.5-7.3-10.6-10.8-2.5-1.6-2.5-1.7-.5-3.2 22.6-17.4 48.2-36.1 48.7-35.6.4.3.3 27.3-.2 60zm-44.6-5.8c.3 1.3.8 24.7 1.1 52.1l.6 49.7-5.8 6.1c-8.6 9.1-21.6 19.9-42.3 35.4-10.2 7.6-23.2 17.4-29 21.7l-10.5 7.9-.5-40.8c-.6-38.7-.7-41.2-2.9-48.1-1.2-4-2.1-8-1.9-8.7.2-.8 4.7-5.9 10.1-11.4l9.8-10-6.1-4.8c-4.8-3.7-5.8-4.9-4.8-5.8 4.8-3.5 34.5-27.2 35.7-28.3.7-.7 1.8-.9 2.2-.5.5.5 1 12 1.1 25.7l.3 24.7 13.3 7c7.3 3.8 13.4 6.9 13.6 6.9.1 0 .6-14.5.9-32.2.5-26.9.4-32.7-.9-35.6-.8-1.9-1.3-3.6-1.2-3.7 2.1-1.8 14.6-9.4 15.5-9.5.7 0 1.5 1 1.7 2.2zm-24 13.9c.9.8.9 49.9 0 50.8-.2.2-2.6-.7-5.2-2l-4.9-2.4-.6-11c-.4-6.1-.7-17.4-.7-25.2v-14.2l5.3 1.5c2.8.9 5.6 2 6.1 2.5zm-243.1 67.4l9.8 4.5-6.7 4.6-6.6 4.5-5.4-2.1-5.4-2.2v-7.5c0-8.9-.7-8.8 14.3-1.8zm-130.6 8.1c10.9 4.8 23.2 10.1 27.3 11.9 4.1 1.8 25.3 11 47 20.5s48 20.9 58.4 25.5l18.9 8.2 4.3 10.9c3.7 9.4 4.3 11.9 4.4 18.6 0 6.6.5 8.8 3.5 15.4l3.5 7.6V377l-5.2 2.4c-2.9 1.3-5.6 2.2-5.9 2-.4-.2-.4-8.4-.1-18.2l.5-17.8-2.6-4c-1.4-2.1-4-5.4-5.6-7.3-1.7-1.8-3.1-3.5-3.1-3.7 0-.2 1.2-2 2.6-4.1 2.2-3.3 2.5-4.5 1.9-8.7-.5-4.3-7.6-20.5-10.8-24.6-.7-.9-3.4-2.6-6.2-3.8-2.7-1.1-9.7-4.2-15.5-6.8-5.8-2.5-13.9-6.1-18-7.8-4.1-1.8-20.1-8.8-35.5-15.6-15.4-6.7-36.3-15.8-46.5-20.2-10.2-4.4-20.3-8.8-22.5-9.8-2.2-1-6.6-3-9.7-4.4-5.2-2.2-5.8-2.8-5.8-5.5 0-1.7.2-3.1.4-3.1s9.3 3.9 20.3 8.6zm4.3 11.7c30.5 13.4 82.5 36.1 95.5 41.8 22.9 9.9 35.7 15.7 36.5 16.5 2.3 2.3 10 19.1 10.6 22.9.5 3.8.2 4.9-2.6 9l-3.2 4.7 5 5.2c2.7 2.8 5.5 6.1 6.1 7.3 1 1.9 1.7 21.3.7 21.3-.7 0-14.9-6.7-36-16.9-11.4-5.5-21-10.1-21.1-10.1-.2 0-9.1-4.3-20-9.5-10.8-5.2-19.8-9.5-20-9.5-.1 0-7.8-3.7-17.1-8.1-30.5-14.7-43.8-21-51.6-24.6l-7.8-3.6v-28.5c0-26.6.1-28.4 1.8-27.9.9.3 11.4 4.8 23.2 10zm207.9 17.8c9.7 4.5 17.7 8.2 17.9 8.4.2.1-6.1 4.2-13.9 9l-14.1 8.8-4.4-2.4-4.4-2.4v-14.7c0-8.2.3-14.8.6-14.8.4 0 8.6 3.6 18.3 8.1zM32.5 297c16.7 8.1 50.4 24.2 68 32.5 5 2.4 16.2 7.7 25 11.9 8.8 4.3 20.5 9.8 26 12.4 5.5 2.6 14.3 6.8 19.5 9.3 9.2 4.6 9.4 4.7 6.8 5.8-2.7 1-2.8 1.4-2.9 7.8-.1 6.6-.4 10.2-1.1 10.7-1 .7-7.7 3.6-8.4 3.6-1.2 0-5.4 4.2-5.4 5.5 0 .6-.7 3.5-1.5 6.3l-1.6 5.2H141v-8c0-7.2-.2-8.1-2.3-9.5-1.3-.8-13.1-6.3-26.2-12.3-13.2-6-27.6-12.5-32-14.6-4.4-2-21.7-9.9-38.5-17.5l-30.5-13.9-.3-22.6L11 287l2.2.9c1.3.5 10 4.6 19.3 9.1zm-13.3 43c8.6 4 63.1 28.8 91.8 41.8 12.9 5.8 24.1 11 24.8 11.5.7.6 1.2 3.5 1.2 7.8 0 9.1.4 9.2-22-1.3-3.6-1.7-17.1-7.9-30-13.8-12.9-5.9-32.5-14.9-43.5-20s-22.4-10.3-25.2-11.6L11 352v-7.5c0-4.1.4-7.5 1-7.5.5 0 3.7 1.3 7.2 3z"/><path d="M134.3 88.1c-.4.4-5.5 3.2-11.3 6.2l-10.5 5.4-7.4 11.4-7.3 11.4.6 11c.3 6 .6 17.1.6 24.5v13.5l33.3 15.4c18.2 8.5 52.1 24.2 75.2 34.8 23.1 10.7 43.8 20.3 46 21.3 2.2 1 9.2 4.3 15.7 7.3l11.6 5.5.4-23.2c.4-20.7.7-23.8 2.7-29.6 3.4-9.6 4.8-11.4 18.6-23.9 6.9-6.3 12.2-11.8 11.8-12.2-.4-.4-13.2-6.2-28.3-12.9-15.1-6.7-28.8-12.7-30.5-13.5-7.6-3.4-22.5-10-38.5-17-9.6-4.2-18.8-8.4-20.5-9.3-1.6-.9-3.4-1.7-4-1.8-.9-.2-12.3-5.1-26.3-11.5-3.5-1.6-6.5-2.9-6.7-2.9-.3 0-2.8-1.1-5.7-2.4-2.9-1.3-8.3-3.7-12-5.4-3.6-1.6-7-2.6-7.5-2.1zm22.2 11.9c8.8 4 18.7 8.3 22 9.7 3.3 1.4 7.2 3.1 8.6 3.9l2.6 1.3-2.5 5.1c-2.2 4.5-2.5 6.6-3.1 22l-.6 16.9-5.5-2.4c-28.9-12.8-42.4-18.4-43.1-17.9-.5.3-.9-10.3-.9-24.1V90l3.3 1.4c1.7.8 10.4 4.6 19.2 8.6zm47.9 21.2c8.5 3.7 11.6 5.8 8.6 5.8-1.6 0-7.6 6.3-9.6 10-1.6 3.1-1.9 6.9-2.5 33.5-.3 16.5-.5 30.1-.4 30.3.1.1 4.1-4.2 9-9.5 4.9-5.4 9.4-10.1 10.1-10.5.7-.5 7.5 2.3 16 6.3 24.6 11.8 35.7 17 39.5 18.5l3.5 1.5-.3 20.2c-.2 11.1-.5 20.9-.6 21.9-.2 1.6-4.1-.2-69.7-30.4-4.7-2.1-59.8-27.8-70.7-32.9-3.5-1.6-13.1-6.1-21.5-10-8.4-3.9-15.4-7.2-15.6-7.4-.2-.2 26.7-24 30.9-27.2 1.3-1.1 5.7.5 25.8 9.2 13.3 5.8 24.9 10.5 25.7 10.5 1.1 0 1.4 2.3 1.4 12.5 0 10.1.3 12.5 1.4 12.5 1.2 0 1.5-5 1.8-30.3.3-29.1.4-30.4 2.6-34.5 1.2-2.3 2.9-4.2 3.6-4.2.8 0 5.8 1.9 11 4.2zm37.1 16.3c7.2 3.1 18.9 8.3 26 11.5 7.2 3.2 18.9 8.4 26 11.5 17.7 7.8 17.2 7.5 15.3 8.9-.9.6-6.1 5.4-11.7 10.6-10.5 9.7-13.2 13.2-15.2 20-.7 2.2-1.8 4-2.4 4-1.2 0-10.2-4.1-36.5-16.7-7.4-3.5-15.6-7.4-18.2-8.5l-4.8-2v-48.7l4.3 1.8c2.3 1 10.1 4.4 17.2 7.6z"/></svg>