<svg version="1" xmlns="http://www.w3.org/2000/svg" viewBox="0 0 488.000000 488.000000"><path d="M75 1C39.2 5.9 10.9 31.6 2.3 67.1.6 74.1.5 84.7.5 244.5.5 427 .3 419.2 5.6 434.4c7.8 22.6 28.9 43.5 51.4 51 14.7 4.8 4.7 4.6 187.9 4.6 192.1 0 178.8.5 195.8-7.5 13.1-6.2 22.7-13.7 31.6-24.9 8.6-10.8 13-19.9 16.4-34.4 1.7-7.3 1.8-17.2 1.8-178.7v-171l-2.2-8.4c-8.5-31.6-32.2-54.9-64.1-62.8C418.1.7 402.9.6 249 .4 156.3.3 78 .6 75 1zm349.4 12.3c14.1 4.3 23.9 10.2 34.2 20.5 8.1 8.2 13.3 16.7 17.6 29.2l3.3 9.5.3 168.5c.2 113-.1 170.7-.8 175.3-3.7 24.3-18.6 44.7-40.5 55.3-17.8 8.6-1.2 7.9-193.5 7.9H74.5l-7.9-2.3c-22.6-6.5-41.9-23.5-49.8-43.9-6.1-15.6-5.8-7.3-5.8-187.6 0-105.8.4-167.4 1-171.4C17.2 42.1 41.6 17.6 74 12c2.5-.4 81-.7 174.5-.6 159.9.1 170.3.3 175.9 1.9z"/><path d="M79 248.5V398h51.5l15.2-18.9 15.2-18.9-4.3-6.6c-11.1-16.5-12.3-32-3.4-45.8 12.4-19.5 43.7-20.7 66.1-2.4l5.7 4.6v-12.5c0-14.5 1.6-13-15-14-14.3-.8-36.4-4.1-44.6-6.6-11-3.4-15.7-10.6-10.4-15.9l2-2-2.7-1c-6.9-2.5-8.5-3.4-9.8-5.4-2-2.8-1.9-6.9.3-9.6 1-1.2 4.8-3.2 8.7-4.5l6.9-2.2-4.5-.7c-12.3-1.9-20.9-6.8-20.9-11.9 0-5.8 7.1-9.9 20.5-11.6 5-.7 4.9-.7-4.5-1.9-18.8-2.5-29.1-6.2-30.8-11.1-1.5-4.4.4-7.7 5.8-10 2.7-1.2 5.8-2.1 6.9-2.1 3.8 0 2.2-1.7-2.1-2.4-13.3-2.1-19.8-5.9-19.8-11.6 0-6.3 6.2-9 27-11.4 13.9-1.7 53.2-3.6 73.9-3.6 7.4 0 13.2-.2 13-.4-.2-.2-9.6-.9-20.9-1.5-39.9-2.4-65.3-5.9-73.5-10.4-7.3-4.1-6.9-12 .9-15.2 8.4-3.5 32.2-5.9 71.4-7.1l22.4-.7.9-2.6c2-5 6.2-9.4 11.7-11.8 10.7-4.9 23.1-.8 28.2 9.3l2.5 5.1 21.5.7c41.3 1.3 65.2 4.2 71 8.4 6.3 4.7 4.9 11-3.3 14.7-9.2 4.3-23.5 6.1-78.2 10.4l-11 .8 12 .2c40 .4 78.3 3.4 89.3 6.8 8.8 2.7 11.8 9 6.6 13.8-2.8 2.6-6.7 4-16.9 6-6.1 1.3-6.1 1.4 1.1 3.4 6.2 1.7 9.4 4.6 9.4 8.6 0 6.6-5.7 9.4-25.4 12.9l-12.8 2.2 7.2 1.2c7.8 1.3 14.4 4.2 15.4 6.7 1.1 3 .6 7.3-1 9-2.6 2.6-7 4.4-15 6.3l-7.6 1.8 6.2 1.7c13.3 3.7 15 12.6 3.5 18.2-5.1 2.5-5.4 2.9-4 4.5.8.9 1.5 3 1.5 4.6 0 6.5-5.8 10.4-20.3 13.4-8.7 1.9-32.2 4.7-43.2 5.3l-5 .2-.3 14.9-.3 14.8 2.8-2.2c13-10.1 23.9-14.9 35.9-15.7 18.5-1.3 32.5 4.9 39.2 17.4 7.4 14.1 3.8 31.9-9.5 47.2l-4.7 5.4 3.7 7.1c2 3.9 6 11 8.8 15.8l5.1 8.8H416V99H79v149.5z"/><path d="M177.5 134.1c-15.6.8-31.2 2.5-36.1 3.8-2.6.7-2.2.9 4.1 2.4 11.6 2.6 56.2 6.7 73.7 6.7h5.8v-14l-16.2.1c-9 .1-23 .6-31.3 1zM269 139.8v7.2h5.8c20.2 0 67.6-5 75.4-7.9 5.4-2-22.7-4.8-56.9-5.8l-24.3-.6v7.1zM166 169.1c-16.3.7-36.2 2.7-39.4 3.9-2.1.7 11.9 3.3 26.9 4.9 15.1 1.7 40.2 3.2 56 3.4l15 .2.3-6.8.3-6.7-21.8.2c-12 0-28.8.4-37.3.9zM269 175v7h6.3c23.8 0 86-6 88.4-8.4 2.3-2.2-43.3-5.5-76.4-5.6H269v7zM183.5 192c-18.5.8-38 2.4-46 3.9l-4 .7 3.5 1.2c4.5 1.4 21.7 3.8 39 5.2 16.6 1.4 47.2 2.8 48.3 2.3.4-.2.7-3.3.7-6.9V192h-3.2c-1.8 0-6.9-.2-11.3-.4s-16.5 0-27 .4zM274.8 191.7l-5.8.4v13.7l8.3-.4c44.1-2.4 74.8-5.7 78-8.4 2.7-2.4-61-6.5-80.5-5.3zM191 218.7c-11.7.5-31.4 2.3-37.5 3.5l-6 1.2 4.5 1.3c9.2 2.7 34.6 5.7 59.3 6.9l13.7.7V218l-13.7.2c-7.6.1-16.7.3-20.3.5zM269 225.1v7.2l13.3-.7c22.5-1.2 46.2-4 55.8-6.6 3.9-1.1 4.1-1.3 2.2-2.1-5.7-2.1-40-4.9-61-4.9H269v7.1zM182 244.1c-12.7 1.1-24.9 3-25.5 4-.9 1.4 14.9 4.3 24 4.4 5 0 17-.4 26.8-.9l17.7-.9V243l-16.7.1c-9.3.1-21.1.5-26.3 1zM269 246.7v3.9l22.8 1.3c15.8.8 24.4.9 28.2.1 10.7-2 15.2-3.2 14.3-4.1-1.8-1.8-22.4-4-43.5-4.6l-21.8-.6v4zM175 263.7c-1.4.2-4.3.9-6.5 1.5l-4 1.1 3.9 1.3c6.1 2.2 19.8 4.3 38.2 5.9 9.3.8 17.3 1.5 17.7 1.5.5 0 .7-1.9.5-4.3l-.3-4.2-17-1.1c-9.3-.6-19.9-1.4-23.5-1.7-3.6-.3-7.6-.3-9 0zM307.9 263.4c-.2.2-7.6.9-16.4 1.6-23.6 1.6-22.5 1.3-22.5 6 0 2.2.3 4 .8 4 9.2-.1 36.6-3.4 46.6-5.6 8.2-1.8 10.9-3 8.6-3.8-5.3-1.7-16.1-3.1-17.1-2.2zM176.5 302.9c-7.4 1.9-13.8 7.1-17.2 13.9-1.3 2.6-1.8 5.9-1.8 11.2.1 8.5 2.3 13.9 10.1 24.3 2.4 3.3 4.4 6.7 4.4 7.8 0 1-1.9 4.2-4.3 7.1-2.3 2.9-6.7 8.4-9.7 12.3l-5.4 7 11.2-10.8c14.8-14.1 16.5-14.2 25.4-.4l3.1 4.9-2 6.6c-4 12.7-5.1 11.2 7.9 11.2h11.3l5.8-6.4c3.1-3.6 5.7-6.6 5.7-6.9 0-.2-2.9-1.9-6.4-3.7-7.9-4-13.8-9.7-17.2-16.7-2.2-4.5-2.6-6.3-2.2-11.8.5-7.7 2.5-11 8.9-14.3 5.7-3 11.5-2.5 16.5 1.3 3.9 3 9 10.5 10 14.8 1 4.6 4.6 6.2 14.4 6.2 12.1 0 13.8-1 17.9-10.1 4-8.8 7.9-12.4 14.5-13.1 14.8-1.7 24.9 12.1 18.5 25.4-2.5 5.1-10.8 13-18.4 17.3-3 1.7-5.5 3.5-5.5 3.8 0 .4 2.3 3.7 5 7.4l5 6.8h23.1l-.6-9.3c-.3-5-.2-9.7.2-10.2.4-.6 3.2-3 6.2-5.3 7.8-6.1 9.3-5.7 15.3 4.2 6.5 10.8 6.8 10.8 1.2-.2-2.6-5.1-4.7-10.6-4.7-12.2 0-2.1 1.5-4.5 5.8-9.1 11.1-12.1 15.2-25.5 10.6-35.4-3.9-8.5-10.3-12.8-21.1-14.4-18.3-2.5-34.9 6.2-55.7 29.2-3.4 3.8-10.5 6.7-16.2 6.7-4.7 0-13.2-4-15.9-7.4-1.1-1.5-3-4.7-4.2-7.1-3.2-6.5-14.2-16.4-23.5-20.9-6.7-3.4-9-4-15.4-4.2-4.2-.2-8.9 0-10.6.5z"/><path d="M206.1 348.6c-2.4 3.1-2.5 3.5-1 8.8 2.3 8.2 13.4 16.7 23.9 18.2 9.4 1.4 9.5 5.1.5 14.9l-6.5 7 22.6.3c12.5.1 22.9.1 23.1-.2.2-.2-1.6-3.4-4.2-7.1-6.3-9.3-6-10.6 3.7-16.4 13.3-7.9 20.1-14.5 20.1-19.7 0-3.7-4-7.4-8-7.4-4.5 0-7.3 3.1-10.1 11.2-2.1 5.8-2.7 6.7-6.8 8.6-10.6 5.2-24.9 5.2-35.3 0-4-2-4.7-2.9-6.3-7.8-3.8-11.5-11-16.3-15.7-10.4zM166 387l-11.5 11h11.3c6.1 0 11.2-.3 11.2-.8 0-.4 1.1-4.1 2.4-8.3l2.4-7.7-2.2-2.6-2.1-2.6-11.5 11z"/></svg>