<svg version="1" xmlns="http://www.w3.org/2000/svg" viewBox="0 0 488.000000 488.000000"><path d="M62.7 1.1c-8.2 1.2-14.3 3.2-23.3 7.5-6.3 3.1-9.8 5.8-17.4 13.4-7.8 7.8-10.3 11.1-13.7 18C-.2 57.2.5 43 .5 208.5c0 165.8-.7 151.5 8 169.2 3.5 7.1 6.2 10.9 11.8 16.6 10.2 10.4 17.8 15.2 31.2 19.8l7 2.4h301l8-2.7c11.3-3.9 19.8-9.1 28.6-17.8 11.7-11.6 18.5-25.1 20.9-41.6.8-5.7 1-48.2.8-150.4-.4-158.5.1-147.2-7.2-162-4.7-9.5-8.4-14.5-15.3-21.1-11.5-11-25.3-17.7-40.7-19.8-9.4-1.3-283-1.3-291.9 0zM361 11.3c17.8 5.4 32.2 17 40.2 32.4 7.8 14.8 7.3 2.5 7.3 164.8 0 135.3-.1 145.4-1.8 151.5-6.5 24.2-25.7 42.5-49.2 47-4.4.8-45.4 1-152 .8l-146-.3-7.2-2.6c-19.7-7.2-35.3-24-41-43.9-1.7-6.2-1.8-13.9-1.8-152s.1-145.8 1.8-152c3.2-11.1 8.3-19.7 17.2-28.6 10.9-11 21.2-16 38.5-18.8 1.4-.2 66.9-.3 145.5-.2 130.9.2 143.5.3 148.5 1.9z"/><path d="M105 209v167h18v10h37.9l.3-4.8.3-4.7 49.3-.3 49.2-.2v10h39v-10h18l-.2-166.8-.3-166.7-105.7-.3L105 42v167zM302.8 93.2l.2 36.8-92 .2-92 .3V56l91.8.2 91.7.3.3 36.7zm0 160L303 362l-92 .2-92 .3V144l91.8.2 91.7.3.3 108.7z"/><path d="M246 111.5v8.5h29v-17h-29v8.5zM246.4 167.3c-.3.8-.4 20.7-.2 44.3l.3 42.9 14.8.3 14.7.3V166h-14.5c-11.2 0-14.7.3-15.1 1.3zm20.6 43.2V246h-11v-71h11v35.5z"/></svg>