<svg version="1" xmlns="http://www.w3.org/2000/svg" viewBox="0 0 488.000000 488.000000"><path d="M62.5 1.1c-23.7 3.5-44.6 19.2-55 41.2C0 58.1.6 45.2.2 204.5 0 303.6.2 350.1 1 355.8c2.2 17.1 9.8 32.1 22.1 43.6 12 11.2 23.6 17.1 38.9 19.5 9 1.5 287 1.5 295.9 0 15.9-2.5 28.5-9.2 40.7-21.3 6.6-6.6 8.9-9.8 12.7-17.6 8.9-18.1 8.2-3.4 8.2-170V62.5l-2.3-8c-3.8-13-9.5-22.7-19.2-32.6-7.2-7.2-10-9.3-18-13.2C361.9-.2 377 .5 213.5.4c-79.7-.1-147.7.2-151 .7zm290 8.9c11.3 1.2 18.4 3.5 27.5 9 13.4 8.1 24.4 23 28.7 39 1.7 6.1 1.8 16.4 1.8 152 0 118.9-.2 146.5-1.4 151-5.9 24.3-26.8 44.3-50.6 48.5-6.7 1.2-31.3 1.4-148.5 1.4-155.3 0-149.9.2-163.7-6.3-17.9-8.5-29.7-22.8-34.9-42.1-1.8-6.7-1.9-13.2-1.9-152.5 0-135.6.1-145.9 1.8-152 3-11.3 8.4-20.7 16.7-29.1 10.8-11 22.6-16.9 37.2-18.8 9-1.2 276.3-1.3 287.3-.1z"/><path d="M66.7 52.2c-1.3 1.3-8 13.3-15.1 26.8s-14.4 27.4-16.4 31C22.4 134.1 19 140.9 19 142.8c0 1.2 1 3 2.2 4.2 2.1 1.9 3.4 2 25.5 2 12.8 0 23.3.1 23.3.3 0 .2-1 2.3-2.2 4.8-3.3 6.4-3.2 19.6 0 25.7 10.1 19 32.7 23.5 48.9 9.8 1.8-1.5 4.7-5.6 6.4-9.2 4.1-8.2 4.5-17.2 1.1-24.8-1.2-2.7-2.2-5.2-2.2-5.7s10.5-.9 23.4-.9h23.5l2-2.6c1.2-1.5 2.1-3.2 2.1-3.9 0-1.9-41.8-85.4-44.7-89.3l-2.4-3.2H97.4c-28.2 0-28.5 0-30.7 2.2zm69.5 47l17.6 35.3-57.6.3c-31.6.1-57.7.1-57.9-.1-.1-.2 2.1-4.9 5.1-10.4 2.9-5.5 8.4-15.8 12.1-22.9 3.7-7.1 9.2-17.4 12.2-22.8 3-5.5 5.9-11 6.4-12.3L75 64h43.6l17.6 35.2zM223.3 79.9c-14.9 5.9-28.3 11.2-29.7 11.9L191 93v258h7.8l7.7-.1 20-15.9 20-15.9 46.8-.1H340v32h7.4c7.4 0 7.6-.1 18.8-6.6 6.2-3.6 11.8-7 12.3-7.4.6-.4 3.7-2.3 7-4 3.3-1.8 6.8-4 7.8-4.8 1.6-1.4 1.7-8.6 1.5-130.1l-.3-128.6-72-.1-72-.2-27.2 10.7zM384 73.4c0 .4-12.6 8.1-23.7 14.5l-7.2 4.1-74.3-.2-74.3-.3 8.5-3.2c4.7-1.8 15.3-5.9 23.5-9.2l15-5.9 66.3-.1c36.4-.1 66.2.1 66.2.3zm-32 148.1V347h-8V226.6c0-100.3-.2-120.5-1.4-121.5-.9-.8-20.2-1-70.2-.9l-68.9.3-.3 121.1-.2 121.2-4 .4-4 .4V96h157v125.5zm-12.2-97.3l.3 15.8H255v-32l42.3.2 42.2.3.3 15.7zm.2 29.3v9.5h-61c-33.5 0-61-.2-61-.4 0-.4 6.1-3.9 18.5-10.6 4.4-2.4 9.4-5.2 11-6.2 2.8-1.7 6.3-1.8 47.8-1.8H340v9.5zm0 17.5v4H210.5v-8H340v4zm-.2 21.2l-.3 13.3-42.2.3-42.3.2v-27h85.1l-.3 13.2zm0 27l-.3 9.3-61 .3c-46 .2-60.6-.1-59.8-.9.7-.7 7.9-4.9 16-9.5l14.8-8.2 45.3-.1 45.3-.1-.3 9.2zm.2 17.8v4H211.2l-.4-4-.4-4H340v4zm-.2 25.2l-.3 17.3-42.2.3-42.3.2v-35h85l-.2 17.2zm0 31l-.3 9.3-60.7.3c-33.5.1-60.8-.1-60.8-.6 0-.4 2.4-2 5.3-3.5 2.8-1.5 9.9-5.3 15.7-8.6l10.5-6h45.3l45.3-.1-.3 9.2zm.2 17.8v4H211v-8h129v4zM80.6 229.1c-4.9 3.3-8 8-9.1 14-.7 4 1.7 12.3 4.6 15.5 1.8 1.9 1.8 2.3.4 5.7-.8 2.1-1.8 6.4-2.2 9.6l-.6 6-3.8-2.6c-8-5.3-18.6-3.7-25.3 3.7-9.6 10.7-5.2 27.2 8.7 32.3 1.4.5 1.7 1.6 1.6 5.2-.2 3.8-.9 5-4.8 8.7-13.3 12.7-11.5 32.4 4 42.8 4.3 2.9 6.1 3.5 11.9 3.8 7.6.5 12.9-.9 17.6-4.3 2.9-2.2 3.2-2.2 8.4-.9 3 .8 8.5 1.4 12.3 1.4h7l4.6 5c5.9 6.3 12.4 9.2 20.5 9.2 9.8-.1 16.6-3.9 22.8-13 2.7-3.9 3.2-5.7 3.6-12.4.4-6.9.2-8.4-2.2-13.2-1.5-3-4.2-6.8-6.1-8.5-2.9-2.5-3.4-3.5-2.9-5.9.6-2.8.8-3 4.5-2.5 8.2 1.1 17.2-4.8 20.5-13.4 6.2-16-11.8-32.1-27.1-24.3-2.2 1.1-4.3 2-4.7 2-.4 0 0-1.9.9-4.3.8-2.3 1.6-7 1.7-10.4.1-5.6.4-6.5 3.4-9.4 1.8-1.8 3.9-4.4 4.7-5.9 6.1-11.8-1.2-26-14.8-28.5-5.5-1.1-10.1.2-15.1 4-4.1 3.1-4.9 3.4-9.5 2.8-4.6-.5-5.2-.9-7.1-4.6-3.8-7.3-9.7-10.7-18.3-10.7-4.3 0-6.3.6-10.1 3.1zm19 8.3c2.8 2.8 3.4 4.2 3.4 7.5v4.1h6.4c3.5 0 8.3.7 10.6 1.5 5.6 2 5.2 2.1 7.5-2.2 5-9.2 18.8-7.4 21.5 2.8 1.5 5.6-1 10.7-6.6 13.4l-4.1 2 .5 8.6c.4 7.7.2 9.2-2.1 14.2-3.1 6.8-7.6 11.2-14.5 14.4-4.5 2.1-6.5 2.5-12.5 2.1-16.5-.8-27.1-11.9-27.2-28.4 0-6.1.5-8 3.2-13.3l3.2-6.2-3.4-2c-2.2-1.4-3.9-3.5-5-6.3-1.5-4-1.5-4.6 0-8.2 2.2-5.4 5-7.4 10.9-7.4 4.1 0 5.3.5 8.2 3.4zm-33.2 47.1l2.6 1.7-2.9 3.3c-1.6 1.8-4.3 6.2-6.1 9.8-2.5 5.1-3.6 6.4-5 6-3-.8-5.9-4.1-7.1-8.2-3.1-10.4 9.2-18.7 18.5-12.6zm11.9 10.1c2.7 5.5 10.1 12.8 16.4 16 5.3 2.6 6.7 2.9 15.8 2.9 8.7 0 10.7-.3 15.5-2.6 3-1.4 7.3-4.2 9.5-6.2l4-3.6 1.7 3.2c.9 1.8 2.2 6.2 2.9 9.8 4.2 23-13.3 45.6-36.9 47.6-17.5 1.5-32.9-7.5-40.5-23.5-3-6.2-3.2-7.5-3.2-17.2 0-9.3.3-11.1 2.7-16.3 2.8-5.9 8.3-13.7 9.7-13.7.4 0 1.5 1.6 2.4 3.6zm85.8 4.1c5.8 3.5 7.5 12.7 3.2 17.6-2.6 2.9-8 4.9-11.3 4.2-2.5-.6-2.9-1.2-3.5-5.8-.4-2.8-1.4-6.9-2.1-9.1-1.9-5.1-1.8-5.3 1.4-7 3.6-2 8.8-2 12.3.1zM57 335.3c0 .7 1.4 4.1 3.1 7.7 2.1 4.6 5.1 8.5 10.4 13.6l7.4 7.2L75 365c-4.5 1.9-13.2.8-17.4-2.1-8.7-5.9-10.9-19.1-4.5-27.3 2-2.5 3.9-2.7 3.9-.3zm97 15.1c1.6 4.3 1.2 11.3-1 15.6-3.2 6.2-8.1 9.3-15.5 9.8-6.8.4-9.9-.7-14.9-5.4l-2.8-2.7 4.7-2.4c9.9-5 18.1-12.7 22.4-21.1l1.2-2.2 2.4 2.8c1.4 1.6 2.9 4.1 3.5 5.6z"/><path d="M117.9 268.9c-5.6 5.6-2.7 14.5 5.2 15.7 3.1.5 4.2.1 7-2.4 4.6-4.1 4.7-9.2.1-13.3-4.3-3.9-8.4-3.8-12.3 0z"/></svg>