<svg version="1" xmlns="http://www.w3.org/2000/svg" width="648" height="800" viewBox="0 0 486.000000 600.000000"><path d="M77.5.6c-20.9 2.6-36.3 9.6-50.4 22.8C12.5 37.2 3.7 54.6 1 75c-.8 6-1 57.5-.8 174l.3 165.5 2.8 8.9c9.6 30.7 31.5 52 61.2 59.6 7.8 2 10.4 2 177.5 2 111.9 0 171.4-.3 175-1 27.5-5.2 52.1-25.4 62.3-51.1 6.7-16.7 6.2-2.7 6.2-189.9 0-163.7-.1-169.8-1.9-177-2.8-10.9-6.1-18.5-12.1-27.5-11.9-18.1-28.8-30.1-51.1-36.2C415 .8 399.1.6 247.5.4 155.6.4 79.2.4 77.5.6zm338.3 12c30.3 6.2 53.2 30.1 58.1 60.4.7 4.3 1.1 60.9 1.1 170.8 0 178.9.2 171.3-5.5 185.5-5.5 13.4-17.6 27.4-30.5 35-3.6 2.2-10.5 5.3-15.5 7l-9 3.2H244c-135.5 0-171.5-.3-175.5-1.3-23.5-6-42.5-21.8-51.5-43-6.4-15-6.1-5.6-5.8-190.7.3-158.6.5-168.3 2.2-174C19.7 44.3 34.1 27.2 53 18.2c5.8-2.7 14.1-5.3 21-6.5 1.4-.2 77.1-.5 168.3-.6 148-.1 166.6.1 173.5 1.5z"/><path d="M361 48.5c-10.8 3.8-16.1 6.4-22.4 10.9-17.4 12.4-25.6 27.2-25.6 46 0 7.9 1.9 20.9 2.9 20.4 11.8-5.9 20.9-10.9 25.7-14.4 16.8-11.9 24.5-27.6 26.9-54.9.4-3.9.9-7.8 1.1-8.8.7-2.2-.6-2.1-8.6.8zm-11.5 25.7c-1.9 6.8-7.3 15.3-12.9 20.5-5.5 5.1-6.1 5.4-6.4 3.5-.6-4.3 4.8-13.8 11.3-20.2 6.7-6.4 9.1-7.5 8-3.8zM263 64.9c-13 10.1-22.3 20.8-28 32.4-8.1 16.7-9.5 27.8-5.4 45.7 1.9 8.3 9.1 23.3 10.8 22.2.6-.4 6.6-6.4 13.2-13.4 13.1-13.7 18.5-22.4 22.1-35.8 2.5-9.3 2.3-26.3-.5-41-3-15.5-3.1-16-4-15.9-.4 0-4.1 2.6-8.2 5.8zm-1.7 27.3c1.9 12.6-3.3 29.6-12.4 41.1l-3.8 4.8-.7-3.6c-1.1-6.1.2-18.6 2.6-24.8 2.2-6 11.5-20.7 13-20.7.4 0 1 1.5 1.3 3.2zM157 93.4c-.7 2.8-3.3 11.4-5.7 19.1-2.4 7.7-5.3 18.5-6.4 24-6 28.5 2.9 55.3 24.2 73.4l6.1 5.1 5.5-13.2c7.4-18.1 9.3-25.5 9.9-37.8.5-8.3.1-12.6-1.5-20.4-2.7-13.3-7.5-22.9-20.3-40.7l-10.5-14.7-1.3 5.2zm11.3 38.4c2.8 6.3 5.2 15.4 6.2 24.2.7 6.1-.6 15.7-3.3 24.6l-1.8 5.9-2.7-4.6c-6.7-11.4-8.8-24-6.3-38.9 1.9-11.3 3.4-17 4.5-17 .5 0 2 2.6 3.4 5.8zM399.1 113c-6.4 1.4-16.1 6.2-22.3 11-2.9 2.3-5.4 4.5-5.6 4.9-.1.3 1.7 1.8 4 3.3 2.4 1.5 7.2 4.7 10.8 7.1 9.7 6.6 19.2 9.7 29.7 9.7 4.7 0 11.1-.7 14.3-1.5 5-1.3 23.1-7.9 25.2-9.1.4-.3-1.4-2.4-3.9-4.7-2.5-2.3-6-5.5-7.6-7-4.5-4.2-15.5-10.3-21.7-12.1-7-2.1-17.3-2.8-22.9-1.6zM330 131.5c-9.1 4.1-18.7 8.4-21.5 9.6-50.2 22-87.7 43.3-117.5 66.8-22.8 18-38.5 33.1-56.9 55-28.1 33.3-59.8 84.6-61.6 99.6-2.3 17.8 10 41.1 25.7 48.9 5.9 3 13.8 3.5 19.1 1.3 5.2-2.2 10.2-8.6 12.7-16.3 6-18.4 21.3-53.6 33.4-76.9C180 287.6 193 269 212 250c15.6-15.6 44.8-41.8 58-51.9 33.5-25.9 60-43.5 81.7-54.5l7.2-3.6-5.2-7.7c-2.9-4.2-5.7-7.8-6.2-7.9-.6-.2-8.4 3-17.5 7.1zm-63 47.9c0 .2-5.7 5-12.7 10.7-27.4 22.3-58.5 51.3-68.9 64.3-7.1 8.9-18.7 25.5-22.6 32.6-1.4 2.5-4 7-5.8 10-7.5 12.6-31 61.9-31 65 0 2.3-2 .7-5-4-4-6.2-11.1-12.6-16.7-15.2-2.4-1-4.3-2.1-4.3-2.4 0-.8 17.7-29 21.4-34.2 8.4-11.7 20.6-27.6 26.9-35.1 27.8-33.1 61.4-60.2 105.9-85.5 10.7-6.1 12.8-7.1 12.8-6.2zM102.3 361.1c6.7 5.8 11.1 15.2 11.6 24.6.6 12-3.5 15.3-11.6 9.4-4.7-3.4-9.9-11.2-11.9-17.7-1.6-5.5-1.8-14.1-.4-17.8 1.6-4.2 6.6-3.6 12.3 1.5zM78.7 171.7c-1.4 5.4-3.9 15.2-5.7 21.8-2.8 10.5-3.3 13.7-3.4 25 0 10.7.3 14.4 2.2 21 4.4 15.2 14.2 30.2 27 41.1 4.1 3.5 7.7 6.3 7.8 6.1.2-.2 2-4.8 4-10.2 10.7-29.4 12-35.1 11.1-49.4-1.1-18.7-8.2-36.7-19.3-48.7-2.8-3-19.7-16.4-20.7-16.4-.2 0-1.6 4.4-3 9.7zM99 202.6c6.9 14.9 8.4 32.2 4 46.7-1.3 4.3-2.6 8-3 8.2-1.9 1.2-9.6-12.9-12.5-22.9-2.9-10-1.6-31.3 2.6-42.3l1-2.6 2.5 3.4c1.5 1.9 3.9 6.1 5.4 9.5z"/><path d="M342.3 164.4c-5.9 1.4-13.1 5-21 10.2l-5.3 3.5 9.8 7.8c13.4 10.7 14.9 11.6 23.8 15.3 7.5 3.1 8.6 3.2 20.9 3.3 12.2 0 13.7-.2 25.5-3.8 6.8-2.1 13-4.2 13.8-4.6 1-.6-.6-2.8-5.9-8.5-18.7-20-40.6-28.2-61.6-23.2zm25.2 17.1c2.8.9 6.5 2.6 8.4 3.8 2.9 1.8 3.1 2.1 1.6 3-4.4 2.4-22-1.1-29.3-5.9l-2.7-1.8 2.5-.8c3.7-1.1 13.8-.2 19.5 1.7zM290.6 214c-12.4 2.3-26 10.3-36.1 21.3-3.6 3.9-6.4 7.6-6.2 8.1.5 1.4 28.4 12.4 34.6 13.6 7.7 1.4 22.6 1.2 29.8-.5 3.5-.8 9.1-2.8 12.5-4.3 6.9-3.1 30.8-18 30.8-19.1 0-1-14.5-9.6-22.1-13-3.6-1.6-9.3-3.7-12.8-4.6-7.5-1.9-23.7-2.7-30.5-1.5zm18.2 16c8.1 1.1 15.2 2.9 15.2 4 0 1.2-11.5 6-17 7-9.8 1.9-23.5.6-29.4-2.7-1.6-.9-1.1-1.4 4.5-4.2 3.5-1.7 9.1-3.5 12.4-4 3.3-.5 6.2-.9 6.5-.9.3-.1 3.8.3 7.8.8zM229.4 278.4c-9 2.1-19.9 7.1-27.7 12.8-6.1 4.5-20.7 19.2-20.7 20.8 0 1.1 26.2 11.8 35.8 14.7 7.4 2.2 10.7 2.6 22.2 2.6 21.9.2 34.5-4.3 60.7-21.5l12.4-8.1-6.3-3.8c-10.6-6.6-23.9-12.7-33.3-15.5-11.2-3.3-33-4.3-43.1-2zm32.3 16.2c9.5 1.9 18.5 5.2 17.7 6.5-.9 1.5-13.4 7.5-19.4 9.3-14 4.2-29 3.9-43.1-.9-3.9-1.3-7.4-2.6-7.7-2.9-1.6-1.7 15-10.3 23.1-12.1 8.5-1.8 20.3-1.8 29.4.1z"/></svg>