<svg version="1" xmlns="http://www.w3.org/2000/svg" viewBox="0 0 488.000000 488.000000"><path d="M70.1 2.1c-12 2.3-21.9 6.6-32.9 14.2-13.4 9.2-24.1 22.6-30.3 37.9C0 70.9.5 56.1.5 247.5.5 439.3 0 425 7 442.1c8.3 20.5 27 38.8 48.1 47.2 15.4 6.1 5.8 5.8 195.9 5.5l173.5-.3 7-2.4c27.5-9.2 46.2-26.1 56.5-50.7 6.3-15.3 6.1-5.7 5.8-196.9-.3-196.7.5-177.2-8.8-196-2.7-5.5-7.2-12.8-10.1-16.3-11.3-13.7-28.3-24.4-45.7-28.8L419.7 1l-172.6.1c-94.9.1-174.6.5-177 1zm353.4 10.8c24.9 6 42.6 20.2 53 42.6 6.9 14.9 6.5 1.6 6.5 192.5 0 155.8-.2 173-1.6 178.9-7.1 28.6-31.1 51.2-59.5 56.1-4.5.8-56.7 1-178.9.8l-172.5-.3-7-2.6c-23.4-8.7-38-22.2-46.6-43.1-6.2-15-6-7.8-5.6-194.4.2-160.5.4-170.2 2.1-175.9 7.7-25.6 26.1-44.9 50.1-52.6 10.2-3.2 20.4-3.4 198-3.3 119.2 0 158.2.4 162 1.3z"/><path d="M149 85.1c-7.4.4-27.2 1.4-44 2.3-46.8 2.4-46.9 2.4-49.6 5.2L53 94.9V146c0 55.6.1 56.2 5.6 57.6 1.4.4 15.9.1 32.2-.5 16.3-.6 32.6-1.1 36.2-1.1h6.5l-.3 85.5c-.2 92.9-.3 91.1 5.2 93.6 4.4 2.1 7.2.3 14.9-9.4 4.1-5 9.7-11.3 12.3-13.9 5.7-5.4 18.5-15.8 19.7-15.8.4 0 .7 7.6.7 16.9 0 9.3.4 18.1 1 19.6.5 1.4 2.4 3.2 4.1 3.9 2.9 1.2 4.4 1 15.8-2.1 17.1-4.6 22-5.7 22.5-5.2.3.2-.2 5.8-.9 12.4-2.2 18.1-2.1 20 1.4 22.4 3.8 2.8 5.6 2.6 13.3-.8 12.7-5.8 34.4-11 55.3-13.1 6.1-.7 22.6-1.1 36.7-1.1 23.7 0 25.8-.1 28-1.8l2.3-1.9.3-94.8.2-94.7 19.3.6c10.5.4 27.3 1 37.2 1.3 17.5.6 18.1.6 20.8-1.6l2.7-2.2-.2-53-.3-53.1-2.6-1.9c-2.3-1.7-7.6-2.2-57.5-4.8-52.7-2.8-58.3-3-138.9-2.8-46.2 0-90.1.4-97.5.9zm163 17.1c0 6.4-5.1 19.5-10.6 27.4-10 14.3-25.2 21.8-46.5 23.1-28.9 1.7-50.4-8.8-60.9-29.7-3.9-7.7-7.6-20.3-6.5-22 .4-.6 22.9-1 62.6-1H312v2.2zm-140.7 4.1c2.1 20.2 16.9 42.6 34.8 52.6 22.7 12.6 54.9 14.4 78.7 4.2 24.1-10.2 38.9-30 43.7-58.4.7-4.6-4.7-4.4 55-1.2 25.3 1.4 46.1 2.5 46.3 2.5.1 0 .2 18.2.2 40.5V187h-3.7c-2.1 0-18.4-.5-36.3-1.2-17.9-.6-33.8-.8-35.3-.5-5.9 1.5-5.7-2.2-5.7 99.5v92.9l-25.2.6c-31.7.7-52.4 3.6-73.1 10.3-2.7.9-5 1.4-5.3 1.2-.2-.3.3-6.6 1.1-14.2 1.6-14.3 1.3-16.5-2.4-19.3-2.6-2-5.8-1.5-23.3 3.2-9.2 2.5-16.9 4.5-17.2 4.5-.3 0-.6-8.7-.6-19.3 0-16.4-.2-19.6-1.7-21.7-2.3-3.4-3.3-4-6.7-4-6 0-24.4 12.1-38.3 25.1-2.8 2.7-5.4 4.9-5.7 4.9-.3 0-.6-35.8-.6-79.5v-79.6l-2.6-2.6-2.6-2.6-19.7.6c-10.8.4-27.7 1-37.6 1.3l-18 .7.3-40.6.2-40.5 8.3-.6c4.5-.3 17.6-1.1 29.2-1.7 11.6-.6 27.1-1.4 34.5-1.8 7.4-.5 16.9-.9 21.1-1l7.6-.1.6 5.3zM332.2 532.7c-4.5 2.2-6.2 6-6.2 13.5 0 7.8 2.1 12.5 9.5 21.9 6.3 8.1 6.7 9.3 6.3 17.4-.3 5.6-.4 6-2.8 6-2.5 0-2.5-.2-2.8-8.8l-.3-8.7H326v7.9c0 4.3.5 9.1 1 10.7 1.6 4.2 5.6 6.7 10.9 6.8 10.1.2 14.1-4.3 14.1-15.7 0-8.6-.8-10.5-9.1-21.3l-6.9-9.1v-7c0-7.3 1-9 4.5-7.7 1.2.5 1.5 2.5 1.5 9v8.4h10v-7.5c0-4.3-.6-9-1.4-11-2.6-6-11.3-8.3-18.4-4.8zM141.8 533.1c-.2.6-.2 2.7 0 4.5.4 3.4.5 3.5 4.3 2.9l3.9-.6V598h10v-57h8v-9h-12.9c-8.6 0-13.1.4-13.3 1.1zM173 565v33h21v-8h-12v-24h12v-8h-12.1l.3-8.7.3-8.8 3.7.3c6.3.6 7.8-.4 7.8-4.9V532h-21v33zM197 532.9c0 .3 1.6 7.7 3.6 16.3l3.7 15.8-3.7 14.7c-2 8.2-3.9 15.6-4.2 16.5-.5 1.5.1 1.8 4 1.8h4.5l2.1-9.3c1.1-5 2.4-11.2 2.9-13.7.7-4.3.8-4.4 1.4-1.5.3 1.6 1.6 7.8 2.8 13.7l2.2 10.8h4.9c2.6 0 4.8-.2 4.8-.4 0-.1-1.8-8.1-4.1-17.7-4-17.1-4-17.5-2.5-22.9.8-3 2.4-9.1 3.6-13.5 1.1-4.4 2.3-8.8 2.6-9.8.5-1.6 0-1.8-3.7-1.5-3.9.3-4.3.6-5.6 4.3-.7 2.2-2.2 8-3.3 13-1 4.9-1.9 8.5-1.9 8-.2-2.5-3.1-17.8-4.1-21.5-1.1-4.1-1.1-4.1-5.6-3.9-2.4.2-4.4.5-4.4.8zM228.2 536.2c.3 4.3.3 4.3 4.3 4.4h4l.3 28.7.2 28.7h9v-57.8l3.9.5c3.4.5 4 .2 4.6-1.7.4-1.2.4-3.2.1-4.6-.6-2.4-.7-2.4-13.7-2.4h-13l.3 4.2zM259 565v33h9v-66h-9v33zM275 564.9V598h22.1l-.3-3.7-.3-3.8-6.2-.3-6.3-.3-.2-28.7-.3-28.7-4.2-.3-4.3-.3v33zM301 565v33h21v-8h-12v-24h12v-8h-12v-17.5l6 .2 6 .2V532h-21v33z"/></svg>