<svg version="1" xmlns="http://www.w3.org/2000/svg" width="561.333" height="800" viewBox="0 0 421.000000 600.000000"><path d="M63 1.1c-28.8 4.3-51.9 25-60.2 53.6L.5 62.5v296l2.3 7.9c6.1 21.2 19.6 37.5 38.9 47 15.4 7.7 2.2 7.1 168.8 7.1 141.6 0 149.3-.1 155.5-1.8 20.7-5.9 37.5-19.6 46.6-38.2 8.6-17.5 7.9-3.2 7.9-170v-148l-2.3-7.8c-7.5-25.9-26-44.3-52.7-52.3C359.9.7 350.9.6 214 .4 134 .3 66 .6 63 1.1zm254 9.1l45.5.3 7 2.8c20.2 8.1 34.3 23.8 40.2 44.7 1.7 6.1 1.8 14.5 1.8 152.5 0 163.4.5 150.8-7.2 166.5-5.2 10.5-17 22.3-27.3 27.4-15.6 7.6-2 7-162.4 7.3-161.1.4-153.6.7-169.1-6.6-15.9-7.5-28.9-23.2-34.2-41.6-1.6-5.5-1.8-16.6-2.1-146-.2-92.2.1-143.3.7-149.7.6-5.6 2.2-12.6 3.6-16.5C22.1 28.7 42.7 12.5 66 10.1c5.9-.5 137.7-.5 251 .1z"/><path d="M197.4 56.7c.3 1 1.5 7 2.8 13.3 1.9 9.6 2.3 14.6 2.3 30.5 0 16.3-.4 20.3-2.3 28-3.2 12.7-8.1 28.3-9.1 28.9-.5.3-3.2-3-6.1-7.5-4.8-7.2-18.5-22.2-25-27.4-4.4-3.5-15.8-11.5-16.4-11.5-.3 0-.6 6.4-.6 14.2 0 21.3-3.5 35.1-14.5 57.5-5.8 12-10 19.3-27 46.8-22.4 36.2-24.8 55.5-10.3 83.7l5 9.8h227.6l4.6-14.3c8.3-26 10.1-39.1 10.1-73.2 0-21.1-.3-27.7-1.8-35-4.1-20.4-9.3-37.8-16.7-56.5-5.8-14.5-21.2-44.4-22-42.8-.4.7-1 4.9-1.4 9.3-1.3 16.2-3.9 25.8-10.7 40.5-4.1 8.7-11.9 22.3-12.5 21.7-.2-.2-2.2-7.7-4.5-16.7-11.3-45.2-23.5-64.7-56.4-90.2-7.7-5.9-14.4-10.8-14.8-10.8-.5 0-.6.8-.3 1.7zm30.9 42.1c15.1 17.4 24.1 41.6 32.6 87.5l3.7 19.8 7.8-8.8c12.1-13.7 20.5-27 28.5-45.6l3.4-7.9 1.5 2.9c5.6 10.6 14.9 43 17.7 61.8 3.9 26.1.7 66.6-7.2 91.8l-2.8 8.8-104.4-.1c-82.1 0-104.7-.3-105.3-1.3-3.4-5.3-7.1-16.9-7.5-23.6-1-14.4 3.2-24.7 23.2-57.1 24.1-39.1 32.8-58.8 37-84.4l.6-3.8 2.6 2.3c4.9 4.6 16.5 20.4 20 27.4 2 3.8 5.1 11.2 7 16.4 1.8 5.2 3.6 9.8 4 10.4.3.5 3.3-6 6.7-14.5 15.1-37.3 19.6-55.4 19.6-79.7V87.8l3.6 3.2c2 1.7 5.4 5.2 7.7 7.8zM103 351v7h207v-14H103v7z"/></svg>