<svg version="1" xmlns="http://www.w3.org/2000/svg" width="560" height="800" viewBox="0 0 420.000000 600.000000"><path d="M62.5 1.1C39.6 4.5 18.6 19.8 8.4 40.5-.2 58 .5 43.8.5 210v147.5l2.3 7.8c7 24.3 23.6 41.9 47.7 50.4l8 2.8h151c143.7 0 151.3-.1 156.8-1.8 16-5.1 29.2-14.2 38.3-26.3 6.5-8.6 9.8-15.1 12.6-25.1l2.3-7.8V210c0-166.6.7-151.9-8.2-170-3.8-7.9-6.1-11-13.2-18.1-7.1-7.1-10.2-9.4-18.1-13.2C361.9-.2 377 .5 213.5.4c-79.7-.1-147.7.2-151 .7zm301.2 10.6c21.5 6.2 38.6 23.6 45 45.8 1.6 5.5 1.8 16.5 2.1 146 .2 96.6 0 142.9-.8 149.5-3 26.1-19.2 45.9-45 54.6-5.3 1.8-11.5 1.9-155 1.9H60.5l-7.7-2.7c-13.6-4.8-24.7-13.3-32.3-24.7-6.1-9.4-9.3-18.3-10.6-29.9-.6-6.4-.9-57.5-.7-149.2C9.6 47.1 9 59.6 16.7 44c2.8-5.5 5.9-9.6 11.8-15.5 10.8-10.8 21.4-16.2 36-18.4 3.3-.5 70.2-.8 149-.7 142.4.1 143 .1 150.2 2.3z"/><path d="M196 63.7c0 .4 1.2 6.4 2.6 13.3 5.5 27 4.1 50.1-4.6 77.3l-4.1 12.9-4.9-7.3c-9-13.5-22.2-26.9-36.3-36.7l-6.2-4.3-.3 7.7-.3 7.8 6.7 6.7c3.7 3.7 7.1 6.7 7.5 6.6.4-.1 4.7 4.3 9.5 9.8 13.3 15.1 29.7 31.6 30.5 30.8 1.3-1.3 9.8-24 13-34.6 4.5-15.1 6.9-30.9 6.9-45.5l.1-12.7 7 7.5c11.7 12.4 20.2 28.1 26.4 48.4l2.7 8.8 5.8-5.7 5.7-5.7-2.2-6.6c-7.4-21.8-16.7-37.3-31-51.7-8.8-8.8-34.5-28.8-34.5-26.8z"/><path d="M72.3 78.2l-3.2 3.3 30.7 31.2c16.9 17.2 47 47.6 67 67.7 19.9 20 36.2 36.8 36.2 37.2-.1.5-28.8 29.9-64 65.4l-63.9 64.5 2.7 2.7c1.4 1.6 3.1 2.8 3.7 2.8.7 0 11.4-10.5 24-23.3C139 295.6 209.4 225 210 225c.3-.1 29.3 29 64.5 64.5l64 64.6 3.2-3.3 3.2-3.3-63.7-64.4c-35-35.4-63.8-64.7-64-65.2-.2-.5.2-1.5 1-2.2.7-.8 30.9-31.2 67.1-67.7l65.9-66.2-3.2-3.3-3.3-3.4-52.6 53c-28.9 29.2-59.1 59.8-67.1 68l-14.5 15-46.5-46.8c-25.6-25.7-56-56.4-67.5-68.1l-21-21.3-3.2 3.3z"/><path d="M297.7 143.1c-6.5 6.6-11.8 13.1-13.3 16.2-4.7 9.4-11.7 21.7-12.5 21.7-.4 0-1-2.1-1.4-4.7l-.7-4.6-6 6-6.1 6.1 1.7 9.4c.9 5.1 2.1 11.7 2.7 14.7l1.1 5.3 4.5-4.3c11.2-10.9 24.8-32 31.9-49.4l3.2-8 2.6 5.9c4.8 10.8 12.6 36.7 15.2 50.5 2.4 12.2 2.6 15.8 2.6 35.1-.1 23.8-1.8 39.6-5.8 55.9l-2.6 10.4 5.5 5.5 5.5 5.5 2.6-8.4c5.4-17.3 7.8-33.8 9.2-61.9 1.2-25-2.7-50.3-12-78.4-5.3-15.8-15.2-39.6-16.6-39.6-.3 0-5.5 5-11.3 11.1zM138.6 162.1c-6.5 21.6-13.2 35-33.8 68.2-17.5 28-22.7 40.2-23.6 54.8-.6 10.3 1.4 19.5 6.5 30.8l3.4 7.4 5.4-5.3 5.4-5.3-2-3.9c-3.5-6.9-5.2-15.6-4.5-23.5 1-12.2 6.1-23.5 22.3-49 14.4-22.9 26-45 30.9-59.1l1.9-5.2-5.7-5.7c-3.9-3.9-5.8-5.2-6.2-4.2zM118.6 324l-6.8 7h97.6c110.9 0 100.6 1 90.2-8.8l-5.5-5.2H125.5l-6.9 7zM102 358v7h206v-14H102v7z"/></svg>