<svg version="1" xmlns="http://www.w3.org/2000/svg" width="653.333" height="800" viewBox="0 0 490.000000 600.000000"><path d="M75 1C39.8 5.6 12 30.4 2.7 65.3L.5 73.5v343l2.2 8.3c4.4 16.4 14.1 32.4 26.4 43.5 7 6.4 21.8 14.8 31 17.5 14 4.3 15.2 4.3 189.9 4 189.6-.4 172.6.4 191.5-8.8 17.8-8.7 30.8-21.7 39.4-39.5 9.3-19 8.5-2 8.9-190 .2-112.5 0-169-.8-175.2-4.5-39.2-35.2-70.4-74-75.2C405.3-.2 84.1-.2 75 1zm348.5 12.4c21.6 6.5 38.1 20.1 47.5 39.1 8.2 16.5 7.5-.1 7.5 192.5 0 192.7.7 175.7-7.5 192.5-9.4 19.2-26.7 33.3-48.2 39.3-5.9 1.6-17.9 1.7-177.8 1.7-187.7 0-175.6.4-189.7-6C32 461.8 15.9 440.8 12 416c-.8-5.5-1-51.8-.8-175.5.3-158.8.5-168.3 2.2-174 8.7-28.7 30.2-48.7 58.1-54 5.7-1.1 39.2-1.3 176.5-1.1 160.5.1 169.8.2 175.5 2z"/><path d="M219.4 27.9c-3.7 2.2-4.4 5-4.4 16.2 0 6.2-.3 7.9-1.4 7.9-.8 0-2.8 1.1-4.3 2.4l-2.8 2.4v31.4l2.8 2.4c1.5 1.3 3.5 2.4 4.3 2.4 1.7 0 1.7-3.3.4 39-.6 19-1.5 36.1-2 38.2-1.3 4.7-8.6 11.3-24.8 22.6-16.2 11.2-27.6 22.4-32.3 31.7-6.8 13.2-6.9 14.4-4.9 80.5 1 33.4 2.4 82.7 3.6 129l.7 24.4 2.8 2.8 2.7 2.8h170.4l2.7-2.8 2.8-2.8.7-24.9c.4-13.8 1.1-40.1 1.6-58.5.6-18.4 1.4-49.3 2-68.5 1.6-54.5 1.5-65.2-.2-71.1-5-16.3-15.5-28-40.3-44.8-10.6-7.2-18.8-14.5-21-18.6-.9-1.8-1.6-13-2.4-40.4-.7-20.8-1.1-37.9-.9-38 .2-.1 1.6-.7 3.1-1.4 4.8-2.1 6-6.7 5.5-22.1-.4-13.1-.5-13.4-3.2-15.7-1.5-1.3-3.4-2.4-4.2-2.4-1.1 0-1.4-1.7-1.4-7.9 0-11.2-.7-14-4.4-16.2-2.8-1.7-5.3-1.9-25.6-1.9s-22.8.2-25.6 1.9zM258 50.5V58h-26V43h26v7.5zm9 21.5v4h-44v-8h44v4zm-8.6 27.2c.4 6.8 1.1 26.1 1.6 43 1.2 35.5 1.3 36.1 10.7 46 3.2 3.3 12.8 11 21.3 17.1 23.4 16.7 31.1 25.9 32.6 38.8.3 3-.1 30.4-1 60.9s-2.1 72.6-2.6 93.5c-.6 20.9-1.2 40.5-1.3 43.5l-.2 5.5-6.8-.3-6.7-.4-5.3-5.5c-7.8-8.4-23.4-22-28.5-25-14.1-8.3-34.6-9.2-48.6-2.2-7.3 3.6-17.7 11.9-28.2 22.6l-10 10.2-7.5.2-7.4.2-.2-4.4c-.1-2.4-.7-22.6-1.3-44.9-.6-22.3-1.7-65-2.6-95-.9-30-1.3-56.6-1-59.1.2-2.6 1.5-6.8 2.8-9.5 3-6.5 13.7-17.6 24-24.9 25.9-18.4 32.3-24.5 35.5-33.7 1.1-3.1 1.8-15.2 2.8-46.3.8-23.1 1.4-42.1 1.4-42.3.1-.1 5.9-.2 13-.2h12.9l.6 12.2zM261 429c7.7 3.9 24.3 17.9 21.4 18-6.9.3-72.8-.1-73.1-.4-.6-.5 11.2-11.2 16.4-14.7 6.8-4.7 11.5-5.9 21.8-5.6 7.1.3 10 .8 13.5 2.7z"/></svg>